<?xml version="1.0" encoding="UTF-8" standalone="no"?>
<svg
   xmlns:dc="http://purl.org/dc/elements/1.1/"
   xmlns:cc="http://creativecommons.org/ns#"
   xmlns:rdf="http://www.w3.org/1999/02/22-rdf-syntax-ns#"
   xmlns:svg="http://www.w3.org/2000/svg"
   xmlns="http://www.w3.org/2000/svg"
   xmlns:sodipodi="http://sodipodi.sourceforge.net/DTD/sodipodi-0.dtd"
   xmlns:inkscape="http://www.inkscape.org/namespaces/inkscape"
   viewBox="0 0 640 512"
   version="1.1"
   id="svg4"
   sodipodi:docname="viewer.svg"
   inkscape:version="0.92.4 (5da689c313, 2019-01-14)">
  <metadata
     id="metadata10">
    <rdf:RDF>
      <cc:Work
         rdf:about="">
        <dc:format>image/svg+xml</dc:format>
        <dc:type
           rdf:resource="http://purl.org/dc/dcmitype/StillImage" />
        <dc:title></dc:title>
      </cc:Work>
    </rdf:RDF>
  </metadata>
  <defs
     id="defs8" />
  <sodipodi:namedview
     pagecolor="#ffffff"
     bordercolor="#666666"
     borderopacity="1"
     objecttolerance="10"
     gridtolerance="10"
     guidetolerance="10"
     inkscape:pageopacity="0"
     inkscape:pageshadow="2"
     inkscape:window-width="1920"
     inkscape:window-height="1057"
     id="namedview6"
     showgrid="false"
     inkscape:zoom="0.8875"
     inkscape:cx="454.35723"
     inkscape:cy="336.27717"
     inkscape:window-x="-8"
     inkscape:window-y="-8"
     inkscape:window-maximized="1"
     inkscape:current-layer="svg4" />
  <g
     id="g4757">
    <path
       sodipodi:nodetypes="ssssssssssssssssssssssssssssss"
       inkscape:connector-curvature="0"
       id="path2"
       d="m 313.6,288 c -28.7,0 -42.5,16 -89.6,16 -47.1,0 -60.8,-16 -89.6,-16 C 60.2,288 0,348.2 0,422.4 V 464 c 0,26.5 21.5,48 48,48 h 352 c 26.5,0 48,-21.5 48,-48 V 422.4 C 448,348.2 387.8,288 313.6,288 Z M 416,464 c 0,8.8 -7.2,16 -16,16 H 48 c -8.8,0 -16,-7.2 -16,-16 V 422.4 C 32,365.9 77.9,320 134.4,320 c 19.6,0 39.1,16 89.6,16 50.4,0 70,-16 89.6,-16 56.5,0 102.4,45.9 102.4,102.4 z M 224,256 C 294.7,256 352,198.7 352,128 352,57.3 294.7,0 224,0 153.3,0 96,57.3 96,128 c 0,70.7 57.3,128 128,128 z m 0,-224 c 52.9,0 96,43.1 96,96 0,52.9 -43.1,96 -96,96 -52.9,0 -96,-43.1 -96,-96 0,-52.9 43.1,-96 96,-96 z" />
    <path
       style="stroke-width:0.4792479"
       id="path2-4"
       d="m 567.34669,246.56337 c -13.85741,0 -26.26107,5.92541 -34.78873,15.31123 l -46.27177,-28.29968 c 4.6514,-11.09235 4.69986,-23.60679 0,-34.69912 l 46.27177,-28.29969 c 8.52766,9.38582 20.93132,15.31121 34.78873,15.31121 25.67963,0 46.51399,-20.38336 46.51399,-45.50704 0,-25.12367 -20.83436,-45.507037 -46.51399,-45.507037 -25.67974,0 -46.51411,20.383367 -46.51411,45.507037 0,6.16243 1.25971,11.99301 3.48859,17.34957 l -46.27185,28.29969 c -8.47913,-9.38583 -20.88287,-15.31122 -34.74019,-15.31122 -25.67964,0 -46.51406,20.38336 -46.51406,45.50704 0,25.12367 20.83442,45.50704 46.51406,45.50704 13.85732,0 26.26106,-5.9254 34.78864,-15.31123 l 46.27177,28.2997 c -2.27725,5.35655 -3.48848,11.18714 -3.48848,17.34956 0,25.12368 20.83436,45.50704 46.51399,45.50704 25.67963,0 46.51411,-20.38336 46.51411,-45.50704 -0.0488,-25.12368 -20.88284,-45.50706 -46.56247,-45.50706 z m 0,-136.52111 c 17.10358,0 31.00936,13.60471 31.00936,30.33802 0,16.73333 -13.90578,30.33804 -31.00936,30.33804 -17.10371,0 -31.00948,-13.60471 -31.00948,-30.33804 0,-16.73331 13.90577,-30.33802 31.00948,-30.33802 z M 443.30913,246.56337 c -17.10361,0 -31.00938,-13.6047 -31.00938,-30.33801 0,-16.73332 13.90577,-30.33804 31.00938,-30.33804 17.1036,0 31.00938,13.60472 31.00938,30.33804 0,16.73331 -13.90578,30.33801 -31.00938,30.33801 z m 124.03756,75.84508 c -17.10371,0 -31.00948,-13.6047 -31.00948,-30.33802 0,-16.73333 13.90577,-30.33803 31.00948,-30.33803 17.10358,0 31.00936,13.6047 31.00936,30.33803 0,16.73332 -13.90578,30.33802 -31.00936,30.33802 z"
       inkscape:connector-curvature="0" />
  </g>
</svg>
