<?xml version="1.0" encoding="UTF-8" standalone="no"?>
<svg
   xmlns:dc="http://purl.org/dc/elements/1.1/"
   xmlns:cc="http://creativecommons.org/ns#"
   xmlns:rdf="http://www.w3.org/1999/02/22-rdf-syntax-ns#"
   xmlns:svg="http://www.w3.org/2000/svg"
   xmlns="http://www.w3.org/2000/svg"
   version="1.1"
   id="Layer_1"
   x="0px"
   y="0px"
   width="450"
   height="450"
   viewBox="0 0 450 450"
   enable-background="new 0 0 2000 2000"
   xml:space="preserve"><metadata
     id="metadata52"><rdf:RDF><cc:Work
         rdf:about=""><dc:format>image/svg+xml</dc:format><dc:type
           rdf:resource="http://purl.org/dc/dcmitype/StillImage" /><dc:title></dc:title></cc:Work></rdf:RDF></metadata><defs
     id="defs50" /><g
     id="g23"
     transform="matrix(0.89605642,0,0,0.94882089,-672.50855,-582.47996)"
     style="fill:#ffffff"><linearGradient
       gradientTransform="matrix(1,-0.2657,0,1,-3.395229e-4,210.1581)"
       y2="908.38037"
       x2="1139.4113"
       y1="908.38037"
       x1="799.59772"
       gradientUnits="userSpaceOnUse"
       id="SVGID_1_"><stop
         id="stop26"
         style="stop-color:#2E3192"
         offset="0" /><stop
         id="stop28"
         style="stop-color:#29ABE2"
         offset="1" /></linearGradient><path
       style="fill:#ffffff"
       id="path30"
       d="m 1139.411,752.271 c 0,0 -37.693,108.833 -130.398,129.392 -92.705,20.559 -200.383,61.985 -206.495,88.059 0,0 -28.524,-116.705 92.705,-151.976 121.229,-35.271 244.188,-65.475 244.188,-65.475 z" /><g
       id="g32"
       style="fill:#ffffff"><linearGradient
         gradientTransform="matrix(1,-0.2657,0,1,-3.395229e-4,210.1581)"
         y2="787.57672"
         x2="1200.403"
         y1="787.57672"
         x1="799.59772"
         gradientUnits="userSpaceOnUse"
         id="SVGID_2_"><stop
           id="stop35"
           style="stop-color:#2E3192"
           offset="0" /><stop
           id="stop37"
           style="stop-color:#29ABE2"
           offset="1" /></linearGradient><path
         style="fill:#ffffff"
         id="path39"
         d="m 1200.403,615.762 c 0,0 -37.693,108.833 -130.397,129.392 -92.705,20.559 -261.374,77.604 -267.487,103.678 0,0 -28.524,-116.705 92.705,-151.976 121.229,-35.271 305.179,-81.094 305.179,-81.094 z" /><linearGradient
         gradientTransform="matrix(1,-0.2657,0,1,-3.395229e-4,210.1581)"
         y2="1029.3553"
         x2="1200.403"
         y1="1029.3553"
         x1="799.59772"
         gradientUnits="userSpaceOnUse"
         id="SVGID_3_"><stop
           id="stop42"
           style="stop-color:#2E3192"
           offset="0" /><stop
           id="stop44"
           style="stop-color:#29ABE2"
           offset="1" /></linearGradient><path
         style="fill:#ffffff"
         id="path46"
         d="m 1200.403,857.541 c 0,0 -37.693,108.833 -130.397,129.392 -92.705,20.559 -261.374,77.604 -267.487,103.678 0,0 -28.524,-116.705 92.705,-151.975 121.229,-35.27 305.179,-81.095 305.179,-81.095 z" /></g></g></svg>