<svg id="Layer_1" data-name="Layer 1" xmlns="http://www.w3.org/2000/svg" width="25.04" height="24.94" viewBox="0 0 25.04 24.94">
  <title>board-filled</title>
  <ellipse id="path13835" cx="12.52" cy="12.47" rx="11.7" ry="11.65" fill="none" stroke="#000" stroke-width="1.64"/>
  <path id="path13832" d="M11.22,23.2a11.49,11.49,0,0,1-4.66-1.71,10.82,10.82,0,0,1-4.79-7.55,12.77,12.77,0,0,1,0-3A10.84,10.84,0,0,1,7.84,2.73a11.08,11.08,0,0,1,3.42-1,10.87,10.87,0,0,1,11.8,8.14,11.17,11.17,0,0,1,0,5.23,10.92,10.92,0,0,1-3.47,5.56,11,11,0,0,1-5.63,2.49,15.76,15.76,0,0,1-2.72,0Z" fill="#fff"/>
  <path id="path13859-9" d="M11.35,21.77a9.68,9.68,0,0,1-4.79-2,13.13,13.13,0,0,1-1.5-1.5,9.49,9.49,0,0,1-1.93-4.48,12.87,12.87,0,0,1,0-2.44,9.51,9.51,0,0,1,2-4.69A14.13,14.13,0,0,1,6.72,5.08a9.82,9.82,0,0,1,4.51-1.89,16.36,16.36,0,0,1,2.81,0,9.58,9.58,0,0,1,5.27,2.65c.26.26.59.61.72.77a9.73,9.73,0,0,1,1.82,3.66,7.22,7.22,0,0,1,.23,2.19,7.26,7.26,0,0,1-.29,2.39,9.59,9.59,0,0,1-8.47,6.92,11.26,11.26,0,0,1-2,0Z" fill="#66c1ff"/>
  <g id="g3">
    <g id="g5">
      <path id="path7" d="M18.85,10.72a4.65,4.65,0,0,1-3.26-1.5c-2.2-2.16-1.76-4.53-.35-5.92a.35.35,0,0,1,.24-.1c1.26,0,2.58.7,4,2.14s2.17,2.74,2.17,4a.34.34,0,0,1-.1.24A3.94,3.94,0,0,1,18.85,10.72ZM15.63,3.88c-1,1.08-1.48,3,.45,4.86s3.83,1.44,4.94.44a5.58,5.58,0,0,0-2-3.36A5.72,5.72,0,0,0,15.63,3.88Z"/>
    </g>
    <g id="g9">
      <path id="path11" d="M21.36,9.66a7.33,7.33,0,0,1-4-2.14,7.13,7.13,0,0,1-2.17-4,.35.35,0,0,1,.69,0,6.58,6.58,0,0,0,2,3.5A6.76,6.76,0,0,0,21.36,9a.34.34,0,1,1,0,.68Z"/>
    </g>
    <g id="g13">
      <path id="path15" d="M14.72,13.55a3.56,3.56,0,0,1-2.24-1.27C11,10.85,11,9.86,11.44,9.42L14.21,6.7a.35.35,0,0,1,.49,0,.34.34,0,0,1,0,.48L11.93,9.9c-.14.14-.07.81,1,1.9s1.79,1.16,1.93,1l2.76-2.72a.35.35,0,0,1,.49,0,.34.34,0,0,1,0,.48L15.39,13.3A.93.93,0,0,1,14.72,13.55Z"/>
    </g>
    <g id="g17">
      <path id="path19" d="M14.09,17.76c-1.27,0-3-1.4-4.37-2.76C7.95,13.26,6.09,10.94,7.3,9.76a3.8,3.8,0,0,1,4.64-.34.34.34,0,0,1,0,.48.35.35,0,0,1-.49,0,3.13,3.13,0,0,0-3.66.34c-.6.59.33,2.23,2.42,4.28s3.75,3,4.35,2.38a3,3,0,0,0,.35-3.6.34.34,0,0,1,0-.48.35.35,0,0,1,.49,0A3.65,3.65,0,0,1,15,17.38,1.31,1.31,0,0,1,14.09,17.76Z"/>
    </g>
    <g id="g21">
      <path id="path23" d="M5.47,19.52a.35.35,0,0,1-.24-.1.34.34,0,0,1,0-.44L9,13.88a.35.35,0,0,1,.48-.07.34.34,0,0,1,.07.48L7.07,17.6l3.37-2.43a.35.35,0,0,1,.48.07.34.34,0,0,1-.07.48L5.67,19.46A.35.35,0,0,1,5.47,19.52Z"/>
    </g>
  </g>
  <path id="path13837" d="M13.74,17a5.1,5.1,0,0,1-1.29-.63,18.48,18.48,0,0,1-4.17-4.1,2.85,2.85,0,0,1-.66-1.77c.07-.32.58-.71,1.2-.92a3.8,3.8,0,0,1,2.18,0l.24.09,0,.21a3.32,3.32,0,0,0,1.28,2.33,3.41,3.41,0,0,0,2.36,1.26l.21,0,.09.23a3.1,3.1,0,0,1,.18,1.15,2.85,2.85,0,0,1-.28,1.32,2.43,2.43,0,0,1-.64.8,1.13,1.13,0,0,1-.68,0Z" fill="#fff"/>
  <path id="path13839" d="M18.52,10A4.85,4.85,0,0,1,14.9,7a2.19,2.19,0,0,1-.12-1A2.14,2.14,0,0,1,14.91,5c.14-.38.33-.72.38-.67a2.55,2.55,0,0,1,.15.34,8.61,8.61,0,0,0,2,2.91,9,9,0,0,0,3,1.88c.07,0,0,.07-.29.21A3,3,0,0,1,18.52,10Z" fill="#fff"/>
  <path id="path13862" d="M14.5,12.85a5.56,5.56,0,0,1-2.15-1.74,2.92,2.92,0,0,1-.48-1l0-.17,1.25-1.23c.69-.68,1.26-1.23,1.27-1.23a1.94,1.94,0,0,1,.2.33A6.13,6.13,0,0,0,17,10.23a2,2,0,0,1,.34.19s-.56.57-1.25,1.25C14.77,12.95,14.78,12.94,14.5,12.85Z" fill="#fff"/>
  <path id="path13864" d="M20.6,8.82A8.15,8.15,0,0,1,17.78,7a8,8,0,0,1-1.86-2.92l-.06-.19.18,0c1.47.23,4,2.47,4.71,4.18A2.46,2.46,0,0,1,21,8.9s-.17,0-.37-.08Z" fill="#fff"/>
  <path id="path13866" d="M7.16,17.48c0-.08,2-2.78,2.11-2.84s.14,0,.46.35l.41.41L8.66,16.47l-1.5,1.07s0,0,0-.05Z" fill="#fff"/>
</svg>
