<?xml version="1.0" encoding="UTF-8" standalone="no"?>
<!-- Generator: Adobe Illustrator 19.0.0, SVG Export Plug-In . SVG Version: 6.00 Build 0)  -->

<svg
   xmlns:dc="http://purl.org/dc/elements/1.1/"
   xmlns:cc="http://creativecommons.org/ns#"
   xmlns:rdf="http://www.w3.org/1999/02/22-rdf-syntax-ns#"
   xmlns:svg="http://www.w3.org/2000/svg"
   xmlns="http://www.w3.org/2000/svg"
   xmlns:sodipodi="http://sodipodi.sourceforge.net/DTD/sodipodi-0.dtd"
   xmlns:inkscape="http://www.inkscape.org/namespaces/inkscape"
   version="1.1"
   id="Layer_1"
   x="0px"
   y="0px"
   viewBox="0 0 24 24"
   style="enable-background:new 0 0 24 24;"
   xml:space="preserve"
   inkscape:version="0.91 r13725"
   sodipodi:docname="Chat-new.svg"><metadata
     id="metadata43"><rdf:RDF><cc:Work
         rdf:about=""><dc:format>image/svg+xml</dc:format><dc:type
           rdf:resource="http://purl.org/dc/dcmitype/StillImage" /><dc:title></dc:title></cc:Work></rdf:RDF></metadata><defs
     id="defs41" /><sodipodi:namedview
     pagecolor="#ffffff"
     bordercolor="#666666"
     borderopacity="1"
     objecttolerance="10"
     gridtolerance="10"
     guidetolerance="10"
     inkscape:pageopacity="0"
     inkscape:pageshadow="2"
     inkscape:window-width="1920"
     inkscape:window-height="1057"
     id="namedview39"
     showgrid="false"
     inkscape:zoom="18.00237"
     inkscape:cx="8.9798567"
     inkscape:cy="23.04087"
     inkscape:window-x="1912"
     inkscape:window-y="-8"
     inkscape:window-maximized="1"
     inkscape:current-layer="Layer_1" /><g
     id="g13838"><path
       sodipodi:nodetypes="ssscsscccscsccssss"
       style="fill:#000000"
       d="m 3.075351,0.07095001 12.467325,0 c 1.717996,0 3.199788,1.28787109 3.116831,2.86472919 l -0.07856,4.2829675 -7.272157,-0.00537 C 9.826599,7.2121822 8.843847,7.1105536 7.8579697,7.5901743 6.8011876,8.1042895 6.3461353,9.0760196 6.2002268,9.979426 L 6.1578861,13.360103 3.44937,15.998846 c -0.1109584,0.07676 -0.241866,0.114588 -0.374019,0.114588 -0.00874,0 -0.016204,-0.0012 -0.024936,0 -0.344098,0 -0.6233659,-0.25668 -0.6233659,-0.572946 0,-0.119172 0.039898,-0.23147 0.1084659,-0.323142 l 0.9213353,-2.541588 -0.3815001,0 c -1.7179944,0 -3.1168281,-1.28569 -3.1168281,-2.8647278 l 0,-6.875351 c 0,-1.5790387 1.3988337,-2.86472919 3.1168289,-2.86472919 z"
       id="path7-6"
       inkscape:connector-curvature="0" /><path
       sodipodi:nodetypes="sssssccscsccssss"
       d="M 21.094122,8.1210409 9.4515478,8.0793797 C 7.8931383,8.0738032 6.957516,9.4004356 6.957516,10.971742 l 0,6.841683 c 0,1.571307 1.2689018,2.850701 2.8273212,2.850701 l 6.5967058,0 4.373301,3.306814 c 0.100648,0.0764 0.2194,0.114028 0.339278,0.114028 0.0079,0 0.0147,-0.0012 0.02262,0 0.312135,0 0.565464,-0.255423 0.565464,-0.57014 0,-0.118589 -0.03619,-0.230337 -0.09839,-0.32156 l -0.835756,-2.529142 0.346065,0 c 1.558417,0 2.827318,-1.279394 2.827318,-2.850701 l 0,-6.841683 c 0,-1.5713064 -1.268911,-2.8451246 -2.827321,-2.8507011 z"
       id="path7"
       inkscape:connector-curvature="0" /></g><g
     id="g9" /><g
     id="g11" /><g
     id="g13" /><g
     id="g15" /><g
     id="g17" /><g
     id="g19" /><g
     id="g21" /><g
     id="g23" /><g
     id="g25" /><g
     id="g27" /><g
     id="g29" /><g
     id="g31" /><g
     id="g33" /><g
     id="g35" /><g
     id="g37" /></svg>
