<svg id="Layer_1" data-name="Layer 1" xmlns="http://www.w3.org/2000/svg" width="24" height="24" viewBox="0 0 24 24">
  <title>close</title>
  <path d="M18,15.53a1,1,0,0,0-.3-.7L14.83,12l2.83-2.83a1,1,0,0,0,.3-.7,1,1,0,0,0-.3-.72L16.25,6.34a1,1,0,0,0-.72-.3,1,1,0,0,0-.7.3L12,9.17,9.17,6.34a1,1,0,0,0-.7-.3,1,1,0,0,0-.72.3L6.34,7.75a1,1,0,0,0-.3.72,1,1,0,0,0,.3.7L9.17,12,6.34,14.83a1,1,0,0,0-.3.7,1,1,0,0,0,.3.72l1.41,1.41a1,1,0,0,0,.72.3,1,1,0,0,0,.7-.3L12,14.83l2.83,2.83a1,1,0,0,0,.7.3,1,1,0,0,0,.72-.3l1.41-1.41A1,1,0,0,0,18,15.53ZM24,12a11.74,11.74,0,0,1-1.61,6A12,12,0,0,1,18,22.39,11.74,11.74,0,0,1,12,24a11.74,11.74,0,0,1-6-1.61A12,12,0,0,1,1.61,18,11.74,11.74,0,0,1,0,12,11.74,11.74,0,0,1,1.61,6,12,12,0,0,1,6,1.61,11.74,11.74,0,0,1,12,0a11.74,11.74,0,0,1,6,1.61A12,12,0,0,1,22.39,6,11.74,11.74,0,0,1,24,12Z"/>
</svg>
