<svg id="Layer_1" xmlns:rdf="http://www.w3.org/1999/02/22-rdf-syntax-ns#" xmlns="http://www.w3.org/2000/svg" xml:space="preserve" viewBox="0 0 24 22" height="22" width="24" version="1.1" y="0px" x="0px" xmlns:cc="http://creativecommons.org/ns#" xmlns:dc="http://purl.org/dc/elements/1.1/"><metadata id="metadata55"><rdf:RDF><cc:Work rdf:about=""><dc:format>image/svg+xml</dc:format><dc:type rdf:resource="http://purl.org/dc/dcmitype/StillImage"/><dc:title/></cc:Work></rdf:RDF></metadata><path id="path17" d="m11.5 13c-0.064 0-0.12731 0.01273-0.1875 0.03711-0.06272 0.02538-0.11894 0.0623-0.16602 0.10938l-2 2c-0.195 0.195-0.195 0.51203 0 0.70703s0.51203 0.195 0.70703 0l1.147-1.146v4.793c0 0.276 0.224 0.5 0.5 0.5s0.5-0.224 0.5-0.5v-4.793l1.1465 1.1465c0.098 0.097 0.226 0.146 0.354 0.146s0.25552-0.04848 0.35352-0.14648c0.195-0.195 0.195-0.51203 0-0.70703l-2-2c-0.04612-0.04612-0.10092-0.08207-0.16211-0.10742-0.059-0.024-0.124-0.039-0.192-0.039zm0 9c-3.032 0-5.5-2.467-5.5-5.5s2.468-5.5 5.5-5.5 5.5 2.467 5.5 5.5-2.468 5.5-5.5 5.5zm0-10c-2.481 0-4.5 2.019-4.5 4.5s2.019 4.5 4.5 4.5 4.5-2.019 4.5-4.5-2.019-4.5-4.5-4.5zm7 5c-0.276 0-0.5-0.224-0.5-0.5s0.224-0.5 0.5-0.5c2.481 0 4.5-2.019 4.5-4.5s-2.019-4.5-4.5-4.5c-0.231 0.009-0.537-0.172-0.573-0.422-0.453-3.18-3.216-5.578-6.427-5.578-3.584 0-6.5 2.916-6.5 6.5 0 0.282 0.024 0.58 0.076 0.937 0.021 0.145-0.023 0.292-0.12 0.402s-0.244 0.154-0.384 0.169c-0.022 0-0.084-0.006-0.106-0.01-1.896 0.002-3.466 1.572-3.466 3.502s1.57 3.5 3.5 3.5c0.276 0 0.5 0.224 0.5 0.5s-0.224 0.5-0.5 0.5c-2.481 0-4.5-2.019-4.5-4.5 0-2.32 1.765-4.235 4.022-4.475-0.015-0.183-0.022-0.356-0.022-0.525 0-4.136 3.364-7.5 7.5-7.5 3.564 0 6.651 2.561 7.346 6.023 2.912 0.209 5.154 2.586 5.154 5.477 0 3.033-2.468 5.5-5.5 5.5z"/></svg>
