<?xml version="1.0" encoding="UTF-8" standalone="no"?>
<!-- Created with Inkscape (http://www.inkscape.org/) -->

<svg
   xmlns:dc="http://purl.org/dc/elements/1.1/"
   xmlns:cc="http://creativecommons.org/ns#"
   xmlns:rdf="http://www.w3.org/1999/02/22-rdf-syntax-ns#"
   xmlns:svg="http://www.w3.org/2000/svg"
   xmlns="http://www.w3.org/2000/svg"
   xmlns:sodipodi="http://sodipodi.sourceforge.net/DTD/sodipodi-0.dtd"
   xmlns:inkscape="http://www.inkscape.org/namespaces/inkscape"
   width="54.186668mm"
   height="54.186668mm"
   viewBox="0 0 192.00001 192.00001"
   id="svg2"
   version="1.1"
   inkscape:version="0.91 r13725"
   sodipodi:docname="Directions.svg">
  <defs
     id="defs4" />
  <sodipodi:namedview
     id="base"
     pagecolor="#b4b4b4"
     bordercolor="#666666"
     borderopacity="1.0"
     inkscape:pageopacity="0"
     inkscape:pageshadow="2"
     inkscape:zoom="1.1716797"
     inkscape:cx="1.4946175"
     inkscape:cy="18.567115"
     inkscape:document-units="px"
     inkscape:current-layer="layer1"
     showgrid="false"
     fit-margin-top="0"
     fit-margin-left="0"
     fit-margin-right="0"
     fit-margin-bottom="0"
     inkscape:window-width="1920"
     inkscape:window-height="1057"
     inkscape:window-x="1912"
     inkscape:window-y="-8"
     inkscape:window-maximized="1" />
  <metadata
     id="metadata7">
    <rdf:RDF>
      <cc:Work
         rdf:about="">
        <dc:format>image/svg+xml</dc:format>
        <dc:type
           rdf:resource="http://purl.org/dc/dcmitype/StillImage" />
        <dc:title></dc:title>
      </cc:Work>
    </rdf:RDF>
  </metadata>
  <g
     inkscape:label="Layer 1"
     inkscape:groupmode="layer"
     id="layer1"
     transform="translate(-189.91432,-358.92932)">
    <path
       style="fill:#000000"
       d=""
       id="path13799"
       inkscape:connector-curvature="0" />
    <path
       style="fill:#000000"
       d=""
       id="path13797"
       inkscape:connector-curvature="0" />
    <g
       transform="translate(189.06085,360.63627)"
       id="g13812"
       style="fill:#ffffff">
      <path
         style="fill:#ffffff;fill-opacity:0"
         d="M 0,0.5 0,0 0.5,0 1,0 1.5,0 2,0 2.5,0 3,0 3.5,0 4,0 4.5,0 5,0 5.5,0 6,0 6.5,0 7,0 7.5,0 8,0 8.5,0 9,0 9.5,0 10,0 l 0.5,0 0.5,0 0.5,0 0.5,0 0.5,0 0.5,0 0.5,0 0.5,0 0.5,0 0.5,0 0.5,0 0.5,0 0.5,0 0.5,0 0.5,0 0.5,0 0.5,0 0.5,0 0.5,0 0.5,0 0.5,0 0.5,0 0.5,0 0.5,0 0.5,0 0.5,0 0.5,0 0.5,0 0.5,0 0.5,0 0.5,0 0.5,0 0.5,0 0.5,0 0.5,0 0.5,0 0.5,0 0.5,0 0.5,0 0.5,0 0.5,0 0.5,0 0.5,0 0.5,0 0.5,0 0.5,0 0.5,0 0.5,0 0.5,0 0.5,0 0.5,0 0.5,0 0.5,0 0.5,0 0.5,0 0.5,0 0.5,0 0.5,0 0.5,0 0.5,0 0.5,0 0.5,0 0.5,0 0.5,0 0.5,0 0.5,0 0.5,0 0.5,0 0.5,0 0.5,0 0.5,0 0.5,0 0.5,0 0.5,0 0.5,0 0.5,0 0.5,0 0.5,0 0.5,0 0.5,0 0.5,0 0.5,0 0.5,0 0.5,0 0.5,0 0.5,0 0.5,0 0.5,0 0.5,0 0.5,0 0.5,0 0.5,0 0.5,0 0.5,0 0.5,0 0.5,0 0.5,0 0.5,0 0.5,0 0.5,0 0.5,0 0.5,0 0.5,0 0.5,0 0.5,0 0.5,0 0.5,0 0.5,0 0.5,0 0.5,0 0.5,0 0.5,0 0.5,0 0.5,0 0.5,0 0.5,0 0.5,0 0.5,0 0.5,0 0.5,0 0.5,0 0.5,0 0.5,0 0.5,0 0.5,0 0.5,0 0.5,0 0.5,0 0.5,0 0.5,0 0.5,0 0.5,0 0.5,0 0.5,0 0.5,0 0.5,0 0.5,0 0.5,0 0.5,0 0.5,0 0.5,0 0.5,0 0.5,0 0.5,0 0.5,0 0.5,0 0.5,0 0.5,0 0.5,0 0.5,0 0.5,0 0.5,0 0.5,0 0.5,0 0.5,0 0.5,0 0.5,0 0.5,0 0.5,0 0.5,0 0.5,0 0.5,0 0.5,0 0.5,0 0.5,0 0.5,0 0.5,0 0.5,0 0.5,0 0.5,0 0.5,0 0.5,0 0.5,0 0.5,0 0.5,0 0.5,0 0.5,0 0.5,0 0.5,0 0.5,0 0.5,0 0.5,0 0.5,0 0.5,0 0.5,0 0.5,0 0.5,0 0.5,0 0.5,0 0.5,0 0.5,0 0.5,0 0.5,0 0.5,0 0.5,0 0.5,0 0.5,0 0.5,0 0.5,0 0.5,0 0.5,0 0.5,0 0.5,0 0.5,0 0.5,0 0.5,0 0.5,0 0.5,0 0.5,0 0.5,0 0.5,0 0.5,0 0.5,0 0.5,0 0.5,0 0.5,0 0.5,0 0.5,0 0.5,0 0.5,0 0.5,0 0.5,0 0.5,0 0.5,0 0.5,0 0.5,0 0.5,0 0.5,0 0.5,0 0.5,0 0.5,0 0.5,0 0.5,0 0.5,0 0.5,0 0.5,0 0.5,0 0.5,0 0.5,0 0.5,0 0.5,0 0.5,0 0.5,0 0.5,0 0.5,0 0.5,0 0.5,0 0.5,0 0.5,0 0.5,0 0.5,0 0.5,0 0.5,0 0.5,0 0.5,0 0.5,0 0.5,0 0.5,0 0.5,0 0.5,0 0.5,0 0.5,0 0.5,0 0.5,0 0.5,0 0.5,0 0.5,0 0.5,0 0.5,0 0.5,0 0.5,0 0.5,0 0.5,0 0.5,0 0.5,0 0.5,0 0.5,0 0.5,0 0.5,0 0.5,0 0.5,0 0.5,0 0.5,0 0.5,0 0.5,0 0.5,0 0.5,0 0.5,0 0.5,0 0.5,0 0.5,0 0.5,0 0.5,0 0.5,0 0.5,0 0.5,0 0.5,0 0.5,0 0.5,0 0.5,0 0.5,0 0.5,0 0.5,0 0.5,0 0.5,0 0.5,0 0.5,0 0.5,0 0.5,0 0.5,0 0.5,0 0.5,0 0.5,0 0.5,0 0.5,0 0.5,0 0.5,0 0.5,0 0.5,0 0.5,0 0.5,0 0.5,0 0.5,0 0.5,0 0.5,0 0.5,0 0.5,0 0.5,0 0.5,0 0.5,0 0.5,0 0.5,0 0.5,0 0.5,0 0.5,0 0.5,0 0.5,0 0.5,0 0.5,0 0.5,0 0.5,0 0.5,0 0.5,0 0.5,0 0.5,0 0.5,0 0.5,0 0.5,0 0.5,0 0.5,0 0.5,0 0.5,0 0.5,0 0.5,0 0.5,0 0.5,0 0.5,0 0.5,0 0.5,0 0.5,0 0.5,0 0.5,0 0.5,0 0.5,0 0,0.5 0,0.5 0,0.5 0,0.5 0,0.5 0,0.5 0,0.5 0,0.5 0,0.5 0,0.5 0,0.5 0,0.5 0,0.5 0,0.5 0,0.5 0,0.5 0,0.5 0,0.5 0,0.5 0,0.5 0,0.5 0,0.5 0,0.5 0,0.5 0,0.5 0,0.5 0,0.5 0,0.5 0,0.5 0,0.5 0,0.5 0,0.5 0,0.5 0,0.5 0,0.5 0,0.5 0,0.5 0,0.5 0,0.5 0,0.5 0,0.5 0,0.5 0,0.5 0,0.5 0,0.5 0,0.5 0,0.5 0,0.5 0,0.5 0,0.5 0,0.5 0,0.5 0,0.5 0,0.5 0,0.5 0,0.5 0,0.5 0,0.5 0,0.5 0,0.5 0,0.5 0,0.5 0,0.5 0,0.5 0,0.5 0,0.5 0,0.5 0,0.5 0,0.5 0,0.5 0,0.5 0,0.5 0,0.5 0,0.5 0,0.5 0,0.5 0,0.5 0,0.5 0,0.5 0,0.5 0,0.5 0,0.5 0,0.5 0,0.5 0,0.5 0,0.5 0,0.5 0,0.5 0,0.5 0,0.5 0,0.5 0,0.5 0,0.5 0,0.5 0,0.5 0,0.5 0,0.5 0,0.5 0,0.5 0,0.5 0,0.5 0,0.5 0,0.5 0,0.5 0,0.5 0,0.5 0,0.5 0,0.5 0,0.5 0,0.5 0,0.5 0,0.5 0,0.5 0,0.5 0,0.5 0,0.5 0,0.5 0,0.5 0,0.5 0,0.5 0,0.5 0,0.5 0,0.5 0,0.5 0,0.5 0,0.5 0,0.5 0,0.5 0,0.5 0,0.5 0,0.5 0,0.5 0,0.5 0,0.5 0,0.5 0,0.5 0,0.5 0,0.5 0,0.5 0,0.5 0,0.5 0,0.5 0,0.5 0,0.5 0,0.5 0,0.5 0,0.5 0,0.5 0,0.5 0,0.5 0,0.5 0,0.5 0,0.5 0,0.5 0,0.5 0,0.5 0,0.5 0,0.5 0,0.5 0,0.5 0,0.5 0,0.5 0,0.5 0,0.5 0,0.5 0,0.5 0,0.5 0,0.5 0,0.5 0,0.5 0,0.5 0,0.5 0,0.5 0,0.5 0,0.5 0,0.5 0,0.5 0,0.5 0,0.5 0,0.5 0,0.5 0,0.5 0,0.5 0,0.5 0,0.5 0,0.5 0,0.5 0,0.5 0,0.5 0,0.5 0,0.5 0,0.5 0,0.5 0,0.5 0,0.5 0,0.5 0,0.5 0,0.5 0,0.5 0,0.5 0,0.5 0,0.5 0,0.5 0,0.5 0,0.5 0,0.5 0,0.5 0,0.5 0,0.5 0,0.5 0,0.5 0,0.5 0,0.5 0,0.5 0,0.5 0,0.5 0,0.5 0,0.5 0,0.5 0,0.5 0,0.5 0,0.5 0,0.5 0,0.5 0,0.5 0,0.5 0,0.5 0,0.5 0,0.5 0,0.5 0,0.5 0,0.5 0,0.5 0,0.5 0,0.5 0,0.5 0,0.5 0,0.5 0,0.5 0,0.5 0,0.5 0,0.5 0,0.5 0,0.5 0,0.5 0,0.5 0,0.5 0,0.5 0,0.5 0,0.5 0,0.5 0,0.5 0,0.5 0,0.5 0,0.5 0,0.5 0,0.5 0,0.5 0,0.5 0,0.5 0,0.5 0,0.5 0,0.5 0,0.5 0,0.5 0,0.5 0,0.5 0,0.5 0,0.5 0,0.5 0,0.5 0,0.5 0,0.5 0,0.5 0,0.5 0,0.5 0,0.5 0,0.5 0,0.5 0,0.5 0,0.5 0,0.5 0,0.5 0,0.5 0,0.5 0,0.5 0,0.5 0,0.5 0,0.5 0,0.5 0,0.5 0,0.5 0,0.5 0,0.5 0,0.5 0,0.5 0,0.5 0,0.5 0,0.5 0,0.5 0,0.5 0,0.5 0,0.5 0,0.5 0,0.5 0,0.5 0,0.5 0,0.5 0,0.5 0,0.5 0,0.5 0,0.5 0,0.5 0,0.5 0,0.5 0,0.5 0,0.5 0,0.5 0,0.5 0,0.5 0,0.5 0,0.5 0,0.5 0,0.5 0,0.5 0,0.5 0,0.5 0,0.5 0,0.5 0,0.5 0,0.5 0,0.5 0,0.5 0,0.5 0,0.5 0,0.5 0,0.5 0,0.5 0,0.5 0,0.5 0,0.5 0,0.5 0,0.5 0,0.5 0,0.5 0,0.5 0,0.5 0,0.5 0,0.5 0,0.5 0,0.5 0,0.5 0,0.5 0,0.5 0,0.5 0,0.5 0,0.5 0,0.5 0,0.5 0,0.5 0,0.5 0,0.5 0,0.5 0,0.5 0,0.5 0,0.5 0,0.5 0,0.5 0,0.5 0,0.5 0,0.5 0,0.5 0,0.5 0,0.5 0,0.5 0,0.5 0,0.5 0,0.5 0,0.5 0,0.5 0,0.5 0,0.5 0,0.5 0,0.5 -0.5,0 -0.5,0 -0.5,0 -0.5,0 -0.5,0 -0.5,0 -0.5,0 -0.5,0 -0.5,0 -0.5,0 -0.5,0 -0.5,0 -0.5,0 -0.5,0 -0.5,0 -0.5,0 -0.5,0 -0.5,0 -0.5,0 -0.5,0 -0.5,0 -0.5,0 -0.5,0 -0.5,0 -0.5,0 -0.5,0 -0.5,0 -0.5,0 -0.5,0 -0.5,0 -0.5,0 -0.5,0 -0.5,0 -0.5,0 -0.5,0 -0.5,0 -0.5,0 -0.5,0 -0.5,0 -0.5,0 -0.5,0 -0.5,0 -0.5,0 -0.5,0 -0.5,0 -0.5,0 -0.5,0 -0.5,0 -0.5,0 -0.5,0 -0.5,0 -0.5,0 -0.5,0 -0.5,0 -0.5,0 -0.5,0 -0.5,0 -0.5,0 -0.5,0 -0.5,0 -0.5,0 -0.5,0 -0.5,0 -0.5,0 -0.5,0 -0.5,0 -0.5,0 -0.5,0 -0.5,0 -0.5,0 -0.5,0 -0.5,0 -0.5,0 -0.5,0 -0.5,0 -0.5,0 -0.5,0 -0.5,0 -0.5,0 -0.5,0 -0.5,0 -0.5,0 -0.5,0 -0.5,0 -0.5,0 -0.5,0 -0.5,0 -0.5,0 -0.5,0 -0.5,0 -0.5,0 -0.5,0 -0.5,0 -0.5,0 -0.5,0 -0.5,0 -0.5,0 -0.5,0 -0.5,0 -0.5,0 -0.5,0 -0.5,0 -0.5,0 -0.5,0 -0.5,0 -0.5,0 -0.5,0 -0.5,0 -0.5,0 -0.5,0 -0.5,0 -0.5,0 -0.5,0 -0.5,0 -0.5,0 -0.5,0 -0.5,0 -0.5,0 -0.5,0 -0.5,0 -0.5,0 -0.5,0 -0.5,0 -0.5,0 -0.5,0 -0.5,0 -0.5,0 -0.5,0 -0.5,0 -0.5,0 -0.5,0 -0.5,0 -0.5,0 -0.5,0 -0.5,0 -0.5,0 -0.5,0 -0.5,0 -0.5,0 -0.5,0 -0.5,0 -0.5,0 -0.5,0 -0.5,0 -0.5,0 -0.5,0 -0.5,0 -0.5,0 -0.5,0 -0.5,0 -0.5,0 -0.5,0 -0.5,0 -0.5,0 -0.5,0 -0.5,0 -0.5,0 -0.5,0 -0.5,0 -0.5,0 -0.5,0 -0.5,0 -0.5,0 -0.5,0 -0.5,0 -0.5,0 -0.5,0 -0.5,0 -0.5,0 -0.5,0 -0.5,0 -0.5,0 -0.5,0 -0.5,0 -0.5,0 -0.5,0 -0.5,0 -0.5,0 -0.5,0 -0.5,0 -0.5,0 -0.5,0 -0.5,0 -0.5,0 -0.5,0 -0.5,0 -0.5,0 -0.5,0 -0.5,0 -0.5,0 -0.5,0 -0.5,0 -0.5,0 -0.5,0 -0.5,0 -0.5,0 -0.5,0 -0.5,0 -0.5,0 -0.5,0 -0.5,0 -0.5,0 -0.5,0 -0.5,0 -0.5,0 -0.5,0 -0.5,0 -0.5,0 -0.5,0 -0.5,0 -0.5,0 -0.5,0 -0.5,0 -0.5,0 -0.5,0 -0.5,0 -0.5,0 -0.5,0 -0.5,0 -0.5,0 -0.5,0 -0.5,0 -0.5,0 -0.5,0 -0.5,0 -0.5,0 -0.5,0 -0.5,0 -0.5,0 -0.5,0 -0.5,0 -0.5,0 -0.5,0 -0.5,0 -0.5,0 -0.5,0 -0.5,0 -0.5,0 -0.5,0 -0.5,0 -0.5,0 -0.5,0 -0.5,0 -0.5,0 -0.5,0 -0.5,0 -0.5,0 -0.5,0 -0.5,0 -0.5,0 -0.5,0 -0.5,0 -0.5,0 -0.5,0 -0.5,0 -0.5,0 -0.5,0 -0.5,0 -0.5,0 -0.5,0 -0.5,0 -0.5,0 -0.5,0 -0.5,0 -0.5,0 -0.5,0 -0.5,0 -0.5,0 -0.5,0 -0.5,0 -0.5,0 -0.5,0 -0.5,0 -0.5,0 -0.5,0 -0.5,0 -0.5,0 -0.5,0 -0.5,0 -0.5,0 -0.5,0 -0.5,0 -0.5,0 -0.5,0 -0.5,0 -0.5,0 -0.5,0 -0.5,0 -0.5,0 -0.5,0 -0.5,0 -0.5,0 -0.5,0 -0.5,0 -0.5,0 -0.5,0 -0.5,0 -0.5,0 -0.5,0 -0.5,0 -0.5,0 -0.5,0 -0.5,0 -0.5,0 -0.5,0 -0.5,0 -0.5,0 -0.5,0 -0.5,0 -0.5,0 -0.5,0 -0.5,0 -0.5,0 -0.5,0 -0.5,0 -0.5,0 -0.5,0 -0.5,0 -0.5,0 -0.5,0 -0.5,0 -0.5,0 -0.5,0 -0.5,0 -0.5,0 -0.5,0 -0.5,0 -0.5,0 -0.5,0 -0.5,0 -0.5,0 -0.5,0 -0.5,0 -0.5,0 -0.5,0 -0.5,0 -0.5,0 -0.5,0 -0.5,0 -0.5,0 -0.5,0 -0.5,0 -0.5,0 -0.5,0 -0.5,0 -0.5,0 -0.5,0 -0.5,0 -0.5,0 -0.5,0 -0.5,0 -0.5,0 -0.5,0 -0.5,0 -0.5,0 -0.5,0 -0.5,0 -0.5,0 -0.5,0 -0.5,0 -0.5,0 -0.5,0 -0.5,0 -0.5,0 -0.5,0 L 9,192 8.5,192 8,192 7.5,192 7,192 6.5,192 6,192 5.5,192 5,192 4.5,192 4,192 3.5,192 3,192 2.5,192 2,192 1.5,192 1,192 0.5,192 0,192 0,191.5 0,191 0,190.5 0,190 0,189.5 0,189 0,188.5 0,188 0,187.5 0,187 0,186.5 0,186 0,185.5 0,185 0,184.5 0,184 0,183.5 0,183 0,182.5 0,182 0,181.5 0,181 0,180.5 0,180 0,179.5 0,179 0,178.5 0,178 0,177.5 0,177 0,176.5 0,176 0,175.5 0,175 0,174.5 0,174 0,173.5 0,173 0,172.5 0,172 0,171.5 0,171 0,170.5 0,170 0,169.5 0,169 0,168.5 0,168 0,167.5 0,167 0,166.5 0,166 0,165.5 0,165 0,164.5 0,164 0,163.5 0,163 0,162.5 0,162 0,161.5 0,161 0,160.5 0,160 0,159.5 0,159 0,158.5 0,158 0,157.5 0,157 0,156.5 0,156 0,155.5 0,155 0,154.5 0,154 0,153.5 0,153 0,152.5 0,152 0,151.5 0,151 0,150.5 0,150 0,149.5 0,149 0,148.5 0,148 0,147.5 0,147 0,146.5 0,146 0,145.5 0,145 0,144.5 0,144 0,143.5 0,143 0,142.5 0,142 0,141.5 0,141 0,140.5 0,140 0,139.5 0,139 0,138.5 0,138 0,137.5 0,137 0,136.5 0,136 0,135.5 0,135 0,134.5 0,134 0,133.5 0,133 0,132.5 0,132 0,131.5 0,131 0,130.5 0,130 0,129.5 0,129 0,128.5 0,128 0,127.5 0,127 0,126.5 0,126 0,125.5 0,125 0,124.5 0,124 0,123.5 0,123 0,122.5 0,122 0,121.5 0,121 0,120.5 0,120 0,119.5 0,119 0,118.5 0,118 0,117.5 0,117 0,116.5 0,116 0,115.5 0,115 0,114.5 0,114 0,113.5 0,113 0,112.5 0,112 0,111.5 0,111 0,110.5 0,110 0,109.5 0,109 0,108.5 0,108 0,107.5 0,107 0,106.5 0,106 0,105.5 0,105 0,104.5 0,104 0,103.5 0,103 0,102.5 0,102 0,101.5 0,101 0,100.5 0,100 0,99.5 0,99 0,98.5 0,98 0,97.5 0,97 0,96.5 0,96 0,95.5 0,95 0,94.5 0,94 0,93.5 0,93 0,92.5 0,92 0,91.5 0,91 0,90.5 0,90 0,89.5 0,89 0,88.5 0,88 0,87.5 0,87 0,86.5 0,86 0,85.5 0,85 0,84.5 0,84 0,83.5 0,83 0,82.5 0,82 0,81.5 0,81 0,80.5 0,80 0,79.5 0,79 0,78.5 0,78 0,77.5 0,77 0,76.5 0,76 0,75.5 0,75 0,74.5 0,74 0,73.5 0,73 0,72.5 0,72 0,71.5 0,71 0,70.5 0,70 0,69.5 0,69 0,68.5 0,68 0,67.5 0,67 0,66.5 0,66 0,65.5 0,65 0,64.5 0,64 0,63.5 0,63 0,62.5 0,62 0,61.5 0,61 0,60.5 0,60 0,59.5 0,59 0,58.5 0,58 0,57.5 0,57 0,56.5 0,56 0,55.5 0,55 0,54.5 0,54 0,53.5 0,53 0,52.5 0,52 0,51.5 0,51 0,50.5 0,50 0,49.5 0,49 0,48.5 0,48 0,47.5 0,47 0,46.5 0,46 0,45.5 0,45 0,44.5 0,44 0,43.5 0,43 0,42.5 0,42 0,41.5 0,41 0,40.5 0,40 0,39.5 0,39 0,38.5 0,38 0,37.5 0,37 0,36.5 0,36 0,35.5 0,35 0,34.5 0,34 0,33.5 0,33 0,32.5 0,32 0,31.5 0,31 0,30.5 0,30 0,29.5 0,29 0,28.5 0,28 0,27.5 0,27 0,26.5 0,26 0,25.5 0,25 0,24.5 0,24 0,23.5 0,23 0,22.5 0,22 0,21.5 0,21 0,20.5 0,20 0,19.5 0,19 0,18.5 0,18 0,17.5 0,17 0,16.5 0,16 0,15.5 0,15 0,14.5 0,14 0,13.5 0,13 0,12.5 0,12 0,11.5 0,11 0,10.5 0,10 0,9.5 0,9 0,8.5 0,8 0,7.5 0,7 0,6.5 0,6 0,5.5 0,5 0,4.5 0,4 0,3.5 0,3 0,2.5 0,2 0,1.5 0,1 0,0.5 M 99.5,176 q 0.5,0 0.5,-0.5 0,-0.5 0.5,-0.5 0.5,0 1,0 0.5,0 0.5,-0.5 0,-0.5 0.5,-0.5 0.5,0 0.5,-0.5 0,-0.5 0.5,-0.5 0.5,0 0.5,-0.5 0,-0.5 0.5,-0.5 0.5,0 0.5,-0.5 0,-0.5 0.5,-0.5 0.5,0 0.5,-0.5 0,-0.5 0.5,-0.5 0.5,0 0.5,-0.5 0,-0.5 0.5,-0.5 0.5,0 0.5,-0.5 0,-0.5 0.5,-0.5 0.5,0 0.5,-0.5 0,-0.5 0.5,-0.5 0.5,0 0.5,-0.5 0,-0.5 0.5,-0.5 0.5,0 0.5,-0.5 0,-0.5 0.5,-0.5 0.5,0 0.5,-0.5 0,-0.5 0.5,-0.5 0.5,0 0.5,-0.5 0,-0.5 0.5,-0.5 0.5,0 0.5,-0.5 0,-0.5 0.5,-0.5 0.5,0 0.5,-0.5 0,-0.5 0.5,-0.5 0.5,0 0.5,-0.5 0,-0.5 0.5,-0.5 0.5,0 0.5,-0.5 0,-0.5 0.5,-0.5 0.5,0 0.5,-0.5 0,-0.5 0.5,-0.5 0.5,0 0.5,-0.5 0,-0.5 0.5,-0.5 0.5,0 0.5,-0.5 0,-0.5 0.5,-0.5 0.5,0 0.5,-0.5 0,-0.5 0.5,-0.5 0.5,0 0.5,-0.5 0,-0.5 0.5,-0.5 0.5,0 0.5,-0.5 0,-0.5 0.5,-0.5 0.5,0 0.5,-0.5 0,-0.5 0.5,-0.5 0.5,0 0.5,-0.5 0,-0.5 0.5,-0.5 0.5,0 0.5,-0.5 0,-0.5 0.5,-0.5 0.5,0 0.5,-0.5 0,-0.5 0.5,-0.5 0.5,0 0.5,-0.5 0,-0.5 0.5,-0.5 0.5,0 0.5,-0.5 0,-0.5 0.5,-0.5 0.5,0 0.5,-0.5 0,-0.5 0.5,-0.5 0.5,0 0.5,-0.5 0,-0.5 0.5,-0.5 0.5,0 0.5,-0.5 0,-0.5 0.5,-0.5 0.5,0 0.5,-0.5 0,-0.5 0.5,-0.5 0.5,0 0.5,-0.5 0,-0.5 0.5,-0.5 0.5,0 0.5,-0.5 0,-0.5 0.5,-0.5 0.5,0 0.5,-0.5 0,-0.5 0.5,-0.5 0.5,0 0.5,-0.5 0,-0.5 0.5,-0.5 0.5,0 0.5,-0.5 0,-0.5 0.5,-0.5 0.5,0 0.5,-0.5 0,-0.5 0.5,-0.5 0.5,0 0.5,-0.5 0,-0.5 0.5,-0.5 0.5,0 0.5,-0.5 0,-0.5 0.5,-0.5 0.5,0 0.5,-0.5 0,-0.5 0.5,-0.5 0.5,0 0.5,-0.5 0,-0.5 0.5,-0.5 0.5,0 0.5,-0.5 0,-0.5 0.5,-0.5 0.5,0 0.5,-0.5 0,-0.5 0.5,-0.5 0.5,0 0.5,-0.5 0,-0.5 0.5,-0.5 0.5,0 0.5,-0.5 0,-0.5 0.5,-0.5 0.5,0 0.5,-0.5 0,-0.5 0.5,-0.5 0.5,0 0.5,-0.5 0,-0.5 0.5,-0.5 0.5,0 0.5,-0.5 0,-0.5 0.5,-0.5 0.5,0 0.5,-0.5 0,-0.5 0.5,-0.5 0.5,0 0.5,-0.5 0,-0.5 0.5,-0.5 0.5,0 0.5,-0.5 0,-0.5 0.5,-0.5 0.5,0 0.5,-0.5 0,-0.5 0.5,-0.5 0.5,0 0.5,-0.5 0,-0.5 0.5,-0.5 0.5,0 0.5,-0.5 0,-0.5 0.5,-0.5 0.5,0 0.5,-0.5 0,-0.5 0.5,-0.5 0.5,0 0.5,-0.5 0,-0.5 0.5,-0.5 0.5,0 0.5,-0.5 0,-0.5 0.5,-0.5 0.5,0 0.5,-0.5 0,-0.5 0.5,-0.5 0.5,0 0.5,-0.5 0,-0.5 0.5,-0.5 0.5,0 0.5,-0.5 0,-0.5 0.5,-0.5 0.5,0 0.5,-0.5 0,-0.5 0.5,-0.5 0.5,0 0.5,-0.5 0,-0.5 0.5,-0.5 0.5,0 0.5,-0.5 0,-0.5 0.5,-0.5 0.5,0 0.5,-0.5 0,-0.5 0.5,-0.5 0.5,0 0.5,-0.5 0,-0.5 0.5,-0.5 0.5,0 0.5,-0.5 0,-0.5 0.5,-0.5 0.5,0 0.5,-0.5 0,-0.5 0.5,-0.5 0.5,0 0.5,-0.5 0,-0.5 0.5,-0.5 0.5,0 0.5,-0.5 0,-0.5 0.5,-0.5 0.5,0 0.5,-0.5 0,-0.5 0.5,-0.5 0.5,0 0.5,-0.5 0,-0.5 0.5,-0.5 0.5,0 0.5,-0.5 0,-0.5 0.5,-0.5 0.5,0 0.5,-0.5 0,-0.5 0,-1 0,-0.5 0.5,-0.5 0.5,0 0.5,-0.5 0,-0.5 0,-1 0,-0.5 0,-1 0,-0.5 0,-1 0,-0.5 0,-1 0,-0.5 0,-1 0,-0.5 0,-1 0,-0.5 0,-1 0,-0.5 -0.5,-0.5 -0.5,0 -0.5,-0.5 0,-0.5 0,-1 Q 175,90 174.5,90 174,90 174,89.5 174,89 173.5,89 173,89 173,88.5 173,88 172.5,88 172,88 172,87.5 172,87 171.5,87 171,87 171,86.5 171,86 170.5,86 170,86 170,85.5 170,85 169.5,85 169,85 169,84.5 169,84 168.5,84 168,84 168,83.5 168,83 167.5,83 167,83 167,82.5 167,82 166.5,82 166,82 166,81.5 166,81 165.5,81 165,81 165,80.5 165,80 164.5,80 164,80 164,79.5 164,79 163.5,79 163,79 163,78.5 163,78 162.5,78 162,78 162,77.5 162,77 161.5,77 161,77 161,76.5 161,76 160.5,76 160,76 160,75.5 160,75 159.5,75 159,75 159,74.5 159,74 158.5,74 158,74 158,73.5 158,73 157.5,73 157,73 157,72.5 157,72 156.5,72 156,72 156,71.5 156,71 155.5,71 155,71 155,70.5 155,70 154.5,70 154,70 154,69.5 154,69 153.5,69 153,69 153,68.5 153,68 152.5,68 152,68 152,67.5 152,67 151.5,67 151,67 151,66.5 151,66 150.5,66 150,66 150,65.5 150,65 149.5,65 149,65 149,64.5 149,64 148.5,64 148,64 148,63.5 148,63 147.5,63 147,63 147,62.5 147,62 146.5,62 146,62 146,61.5 146,61 145.5,61 145,61 145,60.5 145,60 144.5,60 144,60 144,59.5 144,59 143.5,59 143,59 143,58.5 143,58 142.5,58 142,58 142,57.5 142,57 141.5,57 141,57 141,56.5 141,56 140.5,56 140,56 140,55.5 140,55 139.5,55 139,55 139,54.5 139,54 138.5,54 138,54 138,53.5 138,53 137.5,53 137,53 137,52.5 137,52 136.5,52 136,52 136,51.5 136,51 135.5,51 135,51 135,50.5 135,50 134.5,50 134,50 134,49.5 134,49 133.5,49 133,49 133,48.5 133,48 132.5,48 132,48 132,47.5 132,47 131.5,47 131,47 131,46.5 131,46 130.5,46 130,46 130,45.5 130,45 129.5,45 129,45 129,44.5 129,44 128.5,44 128,44 128,43.5 128,43 127.5,43 127,43 127,42.5 127,42 126.5,42 126,42 126,41.5 126,41 125.5,41 125,41 125,40.5 125,40 124.5,40 124,40 124,39.5 124,39 123.5,39 123,39 123,38.5 123,38 122.5,38 122,38 122,37.5 122,37 121.5,37 121,37 121,36.5 121,36 120.5,36 120,36 120,35.5 120,35 119.5,35 119,35 119,34.5 119,34 118.5,34 118,34 118,33.5 118,33 117.5,33 117,33 117,32.5 117,32 116.5,32 116,32 116,31.5 116,31 115.5,31 115,31 115,30.5 115,30 114.5,30 114,30 114,29.5 114,29 113.5,29 113,29 113,28.5 113,28 112.5,28 112,28 112,27.5 112,27 111.5,27 111,27 111,26.5 111,26 110.5,26 110,26 110,25.5 110,25 109.5,25 109,25 109,24.5 109,24 108.5,24 108,24 108,23.5 108,23 107.5,23 107,23 107,22.5 107,22 106.5,22 106,22 106,21.5 106,21 105.5,21 105,21 105,20.5 105,20 104.5,20 104,20 104,19.5 104,19 103.5,19 103,19 103,18.5 103,18 102.5,18 102,18 102,17.5 102,17 101.5,17 q -0.5,0 -1,0 -0.5,0 -0.5,-0.5 0,-0.5 -0.5,-0.5 -0.5,0 -1,0 -0.5,0 -1,0 -0.5,0 -1,0 -0.5,0 -1,0 -0.5,0 -1,0 -0.5,0 -1,0 -0.5,0 -1,0 Q 92,16 92,16.5 92,17 91.5,17 91,17 90.5,17 90,17 90,17.5 90,18 89.5,18 89,18 89,18.5 89,19 88.5,19 88,19 88,19.5 88,20 87.5,20 87,20 87,20.5 87,21 86.5,21 86,21 86,21.5 86,22 85.5,22 85,22 85,22.5 85,23 84.5,23 84,23 84,23.5 84,24 83.5,24 83,24 83,24.5 83,25 82.5,25 82,25 82,25.5 82,26 81.5,26 81,26 81,26.5 81,27 80.5,27 80,27 80,27.5 80,28 79.5,28 79,28 79,28.5 79,29 78.5,29 78,29 78,29.5 78,30 77.5,30 77,30 77,30.5 77,31 76.5,31 76,31 76,31.5 76,32 75.5,32 75,32 75,32.5 75,33 74.5,33 74,33 74,33.5 74,34 73.5,34 73,34 73,34.5 73,35 72.5,35 72,35 72,35.5 72,36 71.5,36 71,36 71,36.5 71,37 70.5,37 70,37 70,37.5 70,38 69.5,38 69,38 69,38.5 69,39 68.5,39 68,39 68,39.5 68,40 67.5,40 67,40 67,40.5 67,41 66.5,41 66,41 66,41.5 66,42 65.5,42 65,42 65,42.5 65,43 64.5,43 64,43 64,43.5 64,44 63.5,44 63,44 63,44.5 63,45 62.5,45 62,45 62,45.5 62,46 61.5,46 61,46 61,46.5 61,47 60.5,47 60,47 60,47.5 60,48 59.5,48 59,48 59,48.5 59,49 58.5,49 58,49 58,49.5 58,50 57.5,50 57,50 57,50.5 57,51 56.5,51 56,51 56,51.5 56,52 55.5,52 55,52 55,52.5 55,53 54.5,53 54,53 54,53.5 54,54 53.5,54 53,54 53,54.5 53,55 52.5,55 52,55 52,55.5 52,56 51.5,56 51,56 51,56.5 51,57 50.5,57 50,57 50,57.5 50,58 49.5,58 49,58 49,58.5 49,59 48.5,59 48,59 48,59.5 48,60 47.5,60 47,60 47,60.5 47,61 46.5,61 46,61 46,61.5 46,62 45.5,62 45,62 45,62.5 45,63 44.5,63 44,63 44,63.5 44,64 43.5,64 43,64 43,64.5 43,65 42.5,65 42,65 42,65.5 42,66 41.5,66 41,66 41,66.5 41,67 40.5,67 40,67 40,67.5 40,68 39.5,68 39,68 39,68.5 39,69 38.5,69 38,69 38,69.5 38,70 37.5,70 37,70 37,70.5 37,71 36.5,71 36,71 36,71.5 36,72 35.5,72 35,72 35,72.5 35,73 34.5,73 34,73 34,73.5 34,74 33.5,74 33,74 33,74.5 33,75 32.5,75 32,75 32,75.5 32,76 31.5,76 31,76 31,76.5 31,77 30.5,77 30,77 30,77.5 30,78 29.5,78 29,78 29,78.5 29,79 28.5,79 28,79 28,79.5 28,80 27.5,80 27,80 27,80.5 27,81 26.5,81 26,81 26,81.5 26,82 25.5,82 25,82 25,82.5 25,83 24.5,83 24,83 24,83.5 24,84 23.5,84 23,84 23,84.5 23,85 22.5,85 22,85 22,85.5 22,86 21.5,86 21,86 21,86.5 21,87 20.5,87 20,87 20,87.5 20,88 19.5,88 19,88 19,88.5 19,89 18.5,89 18,89 18,89.5 18,90 17.5,90 17,90 17,90.5 q 0,0.5 0,1 0,0.5 -0.5,0.5 -0.5,0 -0.5,0.5 0,0.5 0,1 0,0.5 0,1 0,0.5 0,1 0,0.5 0,1 0,0.5 0,1 0,0.5 0,1 0,0.5 0,1 0,0.5 0.5,0.5 0.5,0 0.5,0.5 0,0.5 0,1 0,0.5 0.5,0.5 0.5,0 0.5,0.5 0,0.5 0.5,0.5 0.5,0 0.5,0.5 0,0.5 0.5,0.5 0.5,0 0.5,0.5 0,0.5 0.5,0.5 0.5,0 0.5,0.5 0,0.5 0.5,0.5 0.5,0 0.5,0.5 0,0.5 0.5,0.5 0.5,0 0.5,0.5 0,0.5 0.5,0.5 0.5,0 0.5,0.5 0,0.5 0.5,0.5 0.5,0 0.5,0.5 0,0.5 0.5,0.5 0.5,0 0.5,0.5 0,0.5 0.5,0.5 0.5,0 0.5,0.5 0,0.5 0.5,0.5 0.5,0 0.5,0.5 0,0.5 0.5,0.5 0.5,0 0.5,0.5 0,0.5 0.5,0.5 0.5,0 0.5,0.5 0,0.5 0.5,0.5 0.5,0 0.5,0.5 0,0.5 0.5,0.5 0.5,0 0.5,0.5 0,0.5 0.5,0.5 0.5,0 0.5,0.5 0,0.5 0.5,0.5 0.5,0 0.5,0.5 0,0.5 0.5,0.5 0.5,0 0.5,0.5 0,0.5 0.5,0.5 0.5,0 0.5,0.5 0,0.5 0.5,0.5 0.5,0 0.5,0.5 0,0.5 0.5,0.5 0.5,0 0.5,0.5 0,0.5 0.5,0.5 0.5,0 0.5,0.5 0,0.5 0.5,0.5 0.5,0 0.5,0.5 0,0.5 0.5,0.5 0.5,0 0.5,0.5 0,0.5 0.5,0.5 0.5,0 0.5,0.5 0,0.5 0.5,0.5 0.5,0 0.5,0.5 0,0.5 0.5,0.5 0.5,0 0.5,0.5 0,0.5 0.5,0.5 0.5,0 0.5,0.5 0,0.5 0.5,0.5 0.5,0 0.5,0.5 0,0.5 0.5,0.5 0.5,0 0.5,0.5 0,0.5 0.5,0.5 0.5,0 0.5,0.5 0,0.5 0.5,0.5 0.5,0 0.5,0.5 0,0.5 0.5,0.5 0.5,0 0.5,0.5 0,0.5 0.5,0.5 0.5,0 0.5,0.5 0,0.5 0.5,0.5 0.5,0 0.5,0.5 0,0.5 0.5,0.5 0.5,0 0.5,0.5 0,0.5 0.5,0.5 0.5,0 0.5,0.5 0,0.5 0.5,0.5 0.5,0 0.5,0.5 0,0.5 0.5,0.5 0.5,0 0.5,0.5 0,0.5 0.5,0.5 0.5,0 0.5,0.5 0,0.5 0.5,0.5 0.5,0 0.5,0.5 0,0.5 0.5,0.5 0.5,0 0.5,0.5 0,0.5 0.5,0.5 0.5,0 0.5,0.5 0,0.5 0.5,0.5 0.5,0 0.5,0.5 0,0.5 0.5,0.5 0.5,0 0.5,0.5 0,0.5 0.5,0.5 0.5,0 0.5,0.5 0,0.5 0.5,0.5 0.5,0 0.5,0.5 0,0.5 0.5,0.5 0.5,0 0.5,0.5 0,0.5 0.5,0.5 0.5,0 0.5,0.5 0,0.5 0.5,0.5 0.5,0 0.5,0.5 0,0.5 0.5,0.5 0.5,0 0.5,0.5 0,0.5 0.5,0.5 0.5,0 0.5,0.5 0,0.5 0.5,0.5 0.5,0 0.5,0.5 0,0.5 0.5,0.5 0.5,0 0.5,0.5 0,0.5 0.5,0.5 0.5,0 0.5,0.5 0,0.5 0.5,0.5 0.5,0 0.5,0.5 0,0.5 0.5,0.5 0.5,0 0.5,0.5 0,0.5 0.5,0.5 0.5,0 0.5,0.5 0,0.5 0.5,0.5 0.5,0 0.5,0.5 0,0.5 0.5,0.5 0.5,0 0.5,0.5 0,0.5 0.5,0.5 0.5,0 0.5,0.5 0,0.5 0.5,0.5 0.5,0 0.5,0.5 0,0.5 0.5,0.5 0.5,0 0.5,0.5 0,0.5 0.5,0.5 0.5,0 0.5,0.5 0,0.5 0.5,0.5 0.5,0 0.5,0.5 0,0.5 0.5,0.5 0.5,0 0.5,0.5 0,0.5 0.5,0.5 0.5,0 0.5,0.5 0,0.5 0.5,0.5 0.5,0 0.5,0.5 0,0.5 0.5,0.5 0.5,0 0.5,0.5 0,0.5 0.5,0.5 0.5,0 0.5,0.5 0,0.5 0.5,0.5 0.5,0 0.5,0.5 0,0.5 0.5,0.5 0.5,0 0.5,0.5 0,0.5 0.5,0.5 0.5,0 0.5,0.5 0,0.5 0.5,0.5 0.5,0 1,0 0.5,0 0.5,0.5 0,0.5 0.5,0.5 0.5,0 1,0 0.5,0 1,0 0.5,0 1,0 0.5,0 1,0 0.5,0 1,0 0.5,0 1,0 0.5,0 1,0"
         id="path13814"
         inkscape:connector-curvature="0" />
      <path
         style="fill:#ffffff;fill-opacity:1"
         d="m 92,16.5 q 0,-0.5 0.5,-0.5 0.5,0 1,0 0.5,0 1,0 0.5,0 1,0 0.5,0 1,0 0.5,0 1,0 0.5,0 1,0 0.5,0 1,0 0.5,0 0.5,0.5 0,0.5 0.5,0.5 0.5,0 1,0 0.5,0 0.5,0.5 0,0.5 0.5,0.5 0.5,0 0.5,0.5 0,0.5 0.5,0.5 0.5,0 0.5,0.5 0,0.5 0.5,0.5 0.5,0 0.5,0.5 0,0.5 0.5,0.5 0.5,0 0.5,0.5 0,0.5 0.5,0.5 0.5,0 0.5,0.5 0,0.5 0.5,0.5 0.5,0 0.5,0.5 0,0.5 0.5,0.5 0.5,0 0.5,0.5 0,0.5 0.5,0.5 0.5,0 0.5,0.5 0,0.5 0.5,0.5 0.5,0 0.5,0.5 0,0.5 0.5,0.5 0.5,0 0.5,0.5 0,0.5 0.5,0.5 0.5,0 0.5,0.5 0,0.5 0.5,0.5 0.5,0 0.5,0.5 0,0.5 0.5,0.5 0.5,0 0.5,0.5 0,0.5 0.5,0.5 0.5,0 0.5,0.5 0,0.5 0.5,0.5 0.5,0 0.5,0.5 0,0.5 0.5,0.5 0.5,0 0.5,0.5 0,0.5 0.5,0.5 0.5,0 0.5,0.5 0,0.5 0.5,0.5 0.5,0 0.5,0.5 0,0.5 0.5,0.5 0.5,0 0.5,0.5 0,0.5 0.5,0.5 0.5,0 0.5,0.5 0,0.5 0.5,0.5 0.5,0 0.5,0.5 0,0.5 0.5,0.5 0.5,0 0.5,0.5 0,0.5 0.5,0.5 0.5,0 0.5,0.5 0,0.5 0.5,0.5 0.5,0 0.5,0.5 0,0.5 0.5,0.5 0.5,0 0.5,0.5 0,0.5 0.5,0.5 0.5,0 0.5,0.5 0,0.5 0.5,0.5 0.5,0 0.5,0.5 0,0.5 0.5,0.5 0.5,0 0.5,0.5 0,0.5 0.5,0.5 0.5,0 0.5,0.5 0,0.5 0.5,0.5 0.5,0 0.5,0.5 0,0.5 0.5,0.5 0.5,0 0.5,0.5 0,0.5 0.5,0.5 0.5,0 0.5,0.5 0,0.5 0.5,0.5 0.5,0 0.5,0.5 0,0.5 0.5,0.5 0.5,0 0.5,0.5 0,0.5 0.5,0.5 0.5,0 0.5,0.5 0,0.5 0.5,0.5 0.5,0 0.5,0.5 0,0.5 0.5,0.5 0.5,0 0.5,0.5 0,0.5 0.5,0.5 0.5,0 0.5,0.5 0,0.5 0.5,0.5 0.5,0 0.5,0.5 0,0.5 0.5,0.5 0.5,0 0.5,0.5 0,0.5 0.5,0.5 0.5,0 0.5,0.5 0,0.5 0.5,0.5 0.5,0 0.5,0.5 0,0.5 0.5,0.5 0.5,0 0.5,0.5 0,0.5 0.5,0.5 0.5,0 0.5,0.5 0,0.5 0.5,0.5 0.5,0 0.5,0.5 0,0.5 0.5,0.5 0.5,0 0.5,0.5 0,0.5 0.5,0.5 0.5,0 0.5,0.5 0,0.5 0.5,0.5 0.5,0 0.5,0.5 0,0.5 0.5,0.5 0.5,0 0.5,0.5 0,0.5 0.5,0.5 0.5,0 0.5,0.5 0,0.5 0.5,0.5 0.5,0 0.5,0.5 0,0.5 0.5,0.5 0.5,0 0.5,0.5 0,0.5 0.5,0.5 0.5,0 0.5,0.5 0,0.5 0.5,0.5 0.5,0 0.5,0.5 0,0.5 0.5,0.5 0.5,0 0.5,0.5 0,0.5 0.5,0.5 0.5,0 0.5,0.5 0,0.5 0.5,0.5 0.5,0 0.5,0.5 0,0.5 0.5,0.5 0.5,0 0.5,0.5 0,0.5 0.5,0.5 0.5,0 0.5,0.5 0,0.5 0.5,0.5 0.5,0 0.5,0.5 0,0.5 0.5,0.5 0.5,0 0.5,0.5 0,0.5 0.5,0.5 0.5,0 0.5,0.5 0,0.5 0.5,0.5 0.5,0 0.5,0.5 0,0.5 0.5,0.5 0.5,0 0.5,0.5 0,0.5 0.5,0.5 0.5,0 0.5,0.5 0,0.5 0.5,0.5 0.5,0 0.5,0.5 0,0.5 0.5,0.5 0.5,0 0.5,0.5 0,0.5 0.5,0.5 0.5,0 0.5,0.5 0,0.5 0.5,0.5 0.5,0 0.5,0.5 0,0.5 0.5,0.5 0.5,0 0.5,0.5 0,0.5 0.5,0.5 0.5,0 0.5,0.5 0,0.5 0.5,0.5 0.5,0 0.5,0.5 0,0.5 0.5,0.5 0.5,0 0.5,0.5 0,0.5 0,1 0,0.5 0.5,0.5 0.5,0 0.5,0.5 0,0.5 0,1 0,0.5 0,1 0,0.5 0,1 0,0.5 0,1 0,0.5 0,1 0,0.5 0,1 0,0.5 0,1 0,0.5 -0.5,0.5 -0.5,0 -0.5,0.5 0,0.5 0,1 0,0.5 -0.5,0.5 -0.5,0 -0.5,0.5 0,0.5 -0.5,0.5 -0.5,0 -0.5,0.5 0,0.5 -0.5,0.5 -0.5,0 -0.5,0.5 0,0.5 -0.5,0.5 -0.5,0 -0.5,0.5 0,0.5 -0.5,0.5 -0.5,0 -0.5,0.5 0,0.5 -0.5,0.5 -0.5,0 -0.5,0.5 0,0.5 -0.5,0.5 -0.5,0 -0.5,0.5 0,0.5 -0.5,0.5 -0.5,0 -0.5,0.5 0,0.5 -0.5,0.5 -0.5,0 -0.5,0.5 0,0.5 -0.5,0.5 -0.5,0 -0.5,0.5 0,0.5 -0.5,0.5 -0.5,0 -0.5,0.5 0,0.5 -0.5,0.5 -0.5,0 -0.5,0.5 0,0.5 -0.5,0.5 -0.5,0 -0.5,0.5 0,0.5 -0.5,0.5 -0.5,0 -0.5,0.5 0,0.5 -0.5,0.5 -0.5,0 -0.5,0.5 0,0.5 -0.5,0.5 -0.5,0 -0.5,0.5 0,0.5 -0.5,0.5 -0.5,0 -0.5,0.5 0,0.5 -0.5,0.5 -0.5,0 -0.5,0.5 0,0.5 -0.5,0.5 -0.5,0 -0.5,0.5 0,0.5 -0.5,0.5 -0.5,0 -0.5,0.5 0,0.5 -0.5,0.5 -0.5,0 -0.5,0.5 0,0.5 -0.5,0.5 -0.5,0 -0.5,0.5 0,0.5 -0.5,0.5 -0.5,0 -0.5,0.5 0,0.5 -0.5,0.5 -0.5,0 -0.5,0.5 0,0.5 -0.5,0.5 -0.5,0 -0.5,0.5 0,0.5 -0.5,0.5 -0.5,0 -0.5,0.5 0,0.5 -0.5,0.5 -0.5,0 -0.5,0.5 0,0.5 -0.5,0.5 -0.5,0 -0.5,0.5 0,0.5 -0.5,0.5 -0.5,0 -0.5,0.5 0,0.5 -0.5,0.5 -0.5,0 -0.5,0.5 0,0.5 -0.5,0.5 -0.5,0 -0.5,0.5 0,0.5 -0.5,0.5 -0.5,0 -0.5,0.5 0,0.5 -0.5,0.5 -0.5,0 -0.5,0.5 0,0.5 -0.5,0.5 -0.5,0 -0.5,0.5 0,0.5 -0.5,0.5 -0.5,0 -0.5,0.5 0,0.5 -0.5,0.5 -0.5,0 -0.5,0.5 0,0.5 -0.5,0.5 -0.5,0 -0.5,0.5 0,0.5 -0.5,0.5 -0.5,0 -0.5,0.5 0,0.5 -0.5,0.5 -0.5,0 -0.5,0.5 0,0.5 -0.5,0.5 -0.5,0 -0.5,0.5 0,0.5 -0.5,0.5 -0.5,0 -0.5,0.5 0,0.5 -0.5,0.5 -0.5,0 -0.5,0.5 0,0.5 -0.5,0.5 -0.5,0 -0.5,0.5 0,0.5 -0.5,0.5 -0.5,0 -0.5,0.5 0,0.5 -0.5,0.5 -0.5,0 -0.5,0.5 0,0.5 -0.5,0.5 -0.5,0 -0.5,0.5 0,0.5 -0.5,0.5 -0.5,0 -0.5,0.5 0,0.5 -0.5,0.5 -0.5,0 -0.5,0.5 0,0.5 -0.5,0.5 -0.5,0 -0.5,0.5 0,0.5 -0.5,0.5 -0.5,0 -0.5,0.5 0,0.5 -0.5,0.5 -0.5,0 -0.5,0.5 0,0.5 -0.5,0.5 -0.5,0 -0.5,0.5 0,0.5 -0.5,0.5 -0.5,0 -0.5,0.5 0,0.5 -0.5,0.5 -0.5,0 -0.5,0.5 0,0.5 -0.5,0.5 -0.5,0 -0.5,0.5 0,0.5 -0.5,0.5 -0.5,0 -0.5,0.5 0,0.5 -0.5,0.5 -0.5,0 -0.5,0.5 0,0.5 -0.5,0.5 -0.5,0 -0.5,0.5 0,0.5 -0.5,0.5 -0.5,0 -0.5,0.5 0,0.5 -0.5,0.5 -0.5,0 -0.5,0.5 0,0.5 -0.5,0.5 -0.5,0 -0.5,0.5 0,0.5 -0.5,0.5 -0.5,0 -0.5,0.5 0,0.5 -0.5,0.5 -0.5,0 -0.5,0.5 0,0.5 -0.5,0.5 -0.5,0 -0.5,0.5 0,0.5 -0.5,0.5 -0.5,0 -0.5,0.5 0,0.5 -0.5,0.5 -0.5,0 -0.5,0.5 0,0.5 -0.5,0.5 -0.5,0 -0.5,0.5 0,0.5 -0.5,0.5 -0.5,0 -0.5,0.5 0,0.5 -0.5,0.5 -0.5,0 -0.5,0.5 0,0.5 -0.5,0.5 -0.5,0 -0.5,0.5 0,0.5 -0.5,0.5 -0.5,0 -0.5,0.5 0,0.5 -0.5,0.5 -0.5,0 -0.5,0.5 0,0.5 -0.5,0.5 -0.5,0 -0.5,0.5 0,0.5 -0.5,0.5 -0.5,0 -1,0 -0.5,0 -0.5,0.5 0,0.5 -0.5,0.5 -0.5,0 -1,0 -0.5,0 -1,0 -0.5,0 -1,0 -0.5,0 -1,0 -0.5,0 -1,0 -0.5,0 -1,0 -0.5,0 -1,0 -0.5,0 -0.5,-0.5 0,-0.5 -0.5,-0.5 -0.5,0 -1,0 Q 90,175 90,174.5 90,174 89.5,174 89,174 89,173.5 89,173 88.5,173 88,173 88,172.5 88,172 87.5,172 87,172 87,171.5 87,171 86.5,171 86,171 86,170.5 86,170 85.5,170 85,170 85,169.5 85,169 84.5,169 84,169 84,168.5 84,168 83.5,168 83,168 83,167.5 83,167 82.5,167 82,167 82,166.5 82,166 81.5,166 81,166 81,165.5 81,165 80.5,165 80,165 80,164.5 80,164 79.5,164 79,164 79,163.5 79,163 78.5,163 78,163 78,162.5 78,162 77.5,162 77,162 77,161.5 77,161 76.5,161 76,161 76,160.5 76,160 75.5,160 75,160 75,159.5 75,159 74.5,159 74,159 74,158.5 74,158 73.5,158 73,158 73,157.5 73,157 72.5,157 72,157 72,156.5 72,156 71.5,156 71,156 71,155.5 71,155 70.5,155 70,155 70,154.5 70,154 69.5,154 69,154 69,153.5 69,153 68.5,153 68,153 68,152.5 68,152 67.5,152 67,152 67,151.5 67,151 66.5,151 66,151 66,150.5 66,150 65.5,150 65,150 65,149.5 65,149 64.5,149 64,149 64,148.5 64,148 63.5,148 63,148 63,147.5 63,147 62.5,147 62,147 62,146.5 62,146 61.5,146 61,146 61,145.5 61,145 60.5,145 60,145 60,144.5 60,144 59.5,144 59,144 59,143.5 59,143 58.5,143 58,143 58,142.5 58,142 57.5,142 57,142 57,141.5 57,141 56.5,141 56,141 56,140.5 56,140 55.5,140 55,140 55,139.5 55,139 54.5,139 54,139 54,138.5 54,138 53.5,138 53,138 53,137.5 53,137 52.5,137 52,137 52,136.5 52,136 51.5,136 51,136 51,135.5 51,135 50.5,135 50,135 50,134.5 50,134 49.5,134 49,134 49,133.5 49,133 48.5,133 48,133 48,132.5 48,132 47.5,132 47,132 47,131.5 47,131 46.5,131 46,131 46,130.5 46,130 45.5,130 45,130 45,129.5 45,129 44.5,129 44,129 44,128.5 44,128 43.5,128 43,128 43,127.5 43,127 42.5,127 42,127 42,126.5 42,126 41.5,126 41,126 41,125.5 41,125 40.5,125 40,125 40,124.5 40,124 39.5,124 39,124 39,123.5 39,123 38.5,123 38,123 38,122.5 38,122 37.5,122 37,122 37,121.5 37,121 36.5,121 36,121 36,120.5 36,120 35.5,120 35,120 35,119.5 35,119 34.5,119 34,119 34,118.5 34,118 33.5,118 33,118 33,117.5 33,117 32.5,117 32,117 32,116.5 32,116 31.5,116 31,116 31,115.5 31,115 30.5,115 30,115 30,114.5 30,114 29.5,114 29,114 29,113.5 29,113 28.5,113 28,113 28,112.5 28,112 27.5,112 27,112 27,111.5 27,111 26.5,111 26,111 26,110.5 26,110 25.5,110 25,110 25,109.5 25,109 24.5,109 24,109 24,108.5 24,108 23.5,108 23,108 23,107.5 23,107 22.5,107 22,107 22,106.5 22,106 21.5,106 21,106 21,105.5 21,105 20.5,105 20,105 20,104.5 20,104 19.5,104 19,104 19,103.5 19,103 18.5,103 18,103 18,102.5 18,102 17.5,102 17,102 17,101.5 q 0,-0.5 0,-1 0,-0.5 -0.5,-0.5 -0.5,0 -0.5,-0.5 0,-0.5 0,-1 0,-0.5 0,-1 0,-0.5 0,-1 0,-0.5 0,-1 0,-0.5 0,-1 0,-0.5 0,-1 0,-0.5 0,-1 Q 16,92 16.5,92 17,92 17,91.5 17,91 17,90.5 17,90 17.5,90 18,90 18,89.5 18,89 18.5,89 19,89 19,88.5 19,88 19.5,88 20,88 20,87.5 20,87 20.5,87 21,87 21,86.5 21,86 21.5,86 22,86 22,85.5 22,85 22.5,85 23,85 23,84.5 23,84 23.5,84 24,84 24,83.5 24,83 24.5,83 25,83 25,82.5 25,82 25.5,82 26,82 26,81.5 26,81 26.5,81 27,81 27,80.5 27,80 27.5,80 28,80 28,79.5 28,79 28.5,79 29,79 29,78.5 29,78 29.5,78 30,78 30,77.5 30,77 30.5,77 31,77 31,76.5 31,76 31.5,76 32,76 32,75.5 32,75 32.5,75 33,75 33,74.5 33,74 33.5,74 34,74 34,73.5 34,73 34.5,73 35,73 35,72.5 35,72 35.5,72 36,72 36,71.5 36,71 36.5,71 37,71 37,70.5 37,70 37.5,70 38,70 38,69.5 38,69 38.5,69 39,69 39,68.5 39,68 39.5,68 40,68 40,67.5 40,67 40.5,67 41,67 41,66.5 41,66 41.5,66 42,66 42,65.5 42,65 42.5,65 43,65 43,64.5 43,64 43.5,64 44,64 44,63.5 44,63 44.5,63 45,63 45,62.5 45,62 45.5,62 46,62 46,61.5 46,61 46.5,61 47,61 47,60.5 47,60 47.5,60 48,60 48,59.5 48,59 48.5,59 49,59 49,58.5 49,58 49.5,58 50,58 50,57.5 50,57 50.5,57 51,57 51,56.5 51,56 51.5,56 52,56 52,55.5 52,55 52.5,55 53,55 53,54.5 53,54 53.5,54 54,54 54,53.5 54,53 54.5,53 55,53 55,52.5 55,52 55.5,52 56,52 56,51.5 56,51 56.5,51 57,51 57,50.5 57,50 57.5,50 58,50 58,49.5 58,49 58.5,49 59,49 59,48.5 59,48 59.5,48 60,48 60,47.5 60,47 60.5,47 61,47 61,46.5 61,46 61.5,46 62,46 62,45.5 62,45 62.5,45 63,45 63,44.5 63,44 63.5,44 64,44 64,43.5 64,43 64.5,43 65,43 65,42.5 65,42 65.5,42 66,42 66,41.5 66,41 66.5,41 67,41 67,40.5 67,40 67.5,40 68,40 68,39.5 68,39 68.5,39 69,39 69,38.5 69,38 69.5,38 70,38 70,37.5 70,37 70.5,37 71,37 71,36.5 71,36 71.5,36 72,36 72,35.5 72,35 72.5,35 73,35 73,34.5 73,34 73.5,34 74,34 74,33.5 74,33 74.5,33 75,33 75,32.5 75,32 75.5,32 76,32 76,31.5 76,31 76.5,31 77,31 77,30.5 77,30 77.5,30 78,30 78,29.5 78,29 78.5,29 79,29 79,28.5 79,28 79.5,28 80,28 80,27.5 80,27 80.5,27 81,27 81,26.5 81,26 81.5,26 82,26 82,25.5 82,25 82.5,25 83,25 83,24.5 83,24 83.5,24 84,24 84,23.5 84,23 84.5,23 85,23 85,22.5 85,22 85.5,22 86,22 86,21.5 86,21 86.5,21 87,21 87,20.5 87,20 87.5,20 88,20 88,19.5 88,19 88.5,19 89,19 89,18.5 89,18 89.5,18 90,18 90,17.5 90,17 90.5,17 q 0.5,0 1,0 0.5,0 0.5,-0.5 M 79.5,120 q 0.5,0 0.5,-0.5 0,-0.5 0,-1 0,-0.5 0,-1 0,-0.5 0,-1 0,-0.5 0,-1 0,-0.5 0,-1 0,-0.5 0,-1 0,-0.5 0,-1 0,-0.5 0,-1 0,-0.5 0,-1 0,-0.5 0,-1 0,-0.5 0,-1 0,-0.5 0,-1 0,-0.5 0,-1 0,-0.5 0,-1 0,-0.5 0,-1 0,-0.5 0,-1 0,-0.5 0,-1 0,-0.5 0,-1 0,-0.5 0,-1 0,-0.5 0,-1 0,-0.5 0,-1 0,-0.5 0,-1 0,-0.5 0,-1 0,-0.5 0.5,-0.5 0.5,0 1,0 0.5,0 1,0 0.5,0 1,0 0.5,0 1,0 0.5,0 1,0 0.5,0 1,0 0.5,0 1,0 0.5,0 1,0 0.5,0 1,0 0.5,0 1,0 0.5,0 1,0 0.5,0 1,0 0.5,0 1,0 0.5,0 1,0 0.5,0 1,0 0.5,0 1,0 0.5,0 1,0 0.5,0 1,0 0.5,0 1,0 0.5,0 1,0 0.5,0 1,0 0.5,0 1,0 0.5,0 1,0 0.5,0 1,0 0.5,0 1,0 0.5,0 1,0 0.5,0 1,0 0.5,0 1,0 0.5,0 1,0 0.5,0 1,0 0.5,0 1,0 0.5,0 0.5,0.5 0,0.5 0,1 0,0.5 0,1 0,0.5 0,1 0,0.5 0,1 0,0.5 0,1 0,0.5 0,1 0,0.5 0,1 0,0.5 0,1 0,0.5 0,1 0,0.5 0,1 0,0.5 0,1 0,0.5 0,1 0,0.5 0,1 0,0.5 0,1 0,0.5 0,1 0,0.5 0,1 0,0.5 0,1 0,0.5 0,1 0,0.5 0.5,0.5 0.5,0 0.5,-0.5 0,-0.5 0.5,-0.5 0.5,0 0.5,-0.5 0,-0.5 0.5,-0.5 0.5,0 0.5,-0.5 0,-0.5 0.5,-0.5 0.5,0 0.5,-0.5 0,-0.5 0.5,-0.5 0.5,0 0.5,-0.5 0,-0.5 0.5,-0.5 0.5,0 0.5,-0.5 0,-0.5 0.5,-0.5 0.5,0 0.5,-0.5 0,-0.5 0.5,-0.5 0.5,0 0.5,-0.5 0,-0.5 0.5,-0.5 0.5,0 0.5,-0.5 0,-0.5 0.5,-0.5 0.5,0 0.5,-0.5 0,-0.5 0.5,-0.5 0.5,0 0.5,-0.5 0,-0.5 0.5,-0.5 0.5,0 0.5,-0.5 0,-0.5 0.5,-0.5 0.5,0 0.5,-0.5 0,-0.5 0.5,-0.5 0.5,0 0.5,-0.5 0,-0.5 0.5,-0.5 0.5,0 0.5,-0.5 0,-0.5 0.5,-0.5 0.5,0 0.5,-0.5 0,-0.5 0.5,-0.5 0.5,0 0.5,-0.5 0,-0.5 0.5,-0.5 0.5,0 0.5,-0.5 0,-0.5 0.5,-0.5 0.5,0 0.5,-0.5 0,-0.5 0.5,-0.5 0.5,0 0.5,-0.5 0,-0.5 0.5,-0.5 0.5,0 0.5,-0.5 0,-0.5 0.5,-0.5 0.5,0 0.5,-0.5 0,-0.5 0.5,-0.5 0.5,0 0.5,-0.5 0,-0.5 0.5,-0.5 0.5,0 0.5,-0.5 0,-0.5 0.5,-0.5 0.5,0 0.5,-0.5 0,-0.5 0.5,-0.5 0.5,0 0.5,-0.5 0,-0.5 0.5,-0.5 0.5,0 0.5,-0.5 0,-0.5 0,-1 Q 139,87 138.5,87 138,87 138,86.5 138,86 137.5,86 137,86 137,85.5 137,85 136.5,85 136,85 136,84.5 136,84 135.5,84 135,84 135,83.5 135,83 134.5,83 134,83 134,82.5 134,82 133.5,82 133,82 133,81.5 133,81 132.5,81 132,81 132,80.5 132,80 131.5,80 131,80 131,79.5 131,79 130.5,79 130,79 130,78.5 130,78 129.5,78 129,78 129,77.5 129,77 128.5,77 128,77 128,76.5 128,76 127.5,76 127,76 127,75.5 127,75 126.5,75 126,75 126,74.5 126,74 125.5,74 125,74 125,73.5 125,73 124.5,73 124,73 124,72.5 124,72 123.5,72 123,72 123,71.5 123,71 122.5,71 122,71 122,70.5 122,70 121.5,70 121,70 121,69.5 121,69 120.5,69 120,69 120,68.5 120,68 119.5,68 119,68 119,67.5 119,67 118.5,67 118,67 118,66.5 118,66 117.5,66 117,66 117,65.5 117,65 116.5,65 116,65 116,64.5 116,64 115.5,64 115,64 115,63.5 115,63 114.5,63 114,63 114,62.5 114,62 113.5,62 113,62 113,61.5 113,61 112.5,61 q -0.5,0 -0.5,0.5 0,0.5 0,1 0,0.5 0,1 0,0.5 0,1 0,0.5 0,1 0,0.5 0,1 0,0.5 0,1 0,0.5 0,1 0,0.5 0,1 0,0.5 0,1 0,0.5 0,1 0,0.5 0,1 0,0.5 0,1 0,0.5 0,1 0,0.5 0,1 0,0.5 0,1 0,0.5 0,1 0,0.5 0,1 0,0.5 0,1 0,0.5 -0.5,0.5 -0.5,0 -1,0 -0.5,0 -1,0 -0.5,0 -1,0 -0.5,0 -1,0 -0.5,0 -1,0 -0.5,0 -1,0 -0.5,0 -1,0 -0.5,0 -1,0 -0.5,0 -1,0 -0.5,0 -1,0 -0.5,0 -1,0 -0.5,0 -1,0 -0.5,0 -1,0 -0.5,0 -1,0 -0.5,0 -1,0 -0.5,0 -1,0 -0.5,0 -1,0 -0.5,0 -1,0 -0.5,0 -1,0 -0.5,0 -1,0 -0.5,0 -1,0 -0.5,0 -1,0 -0.5,0 -1,0 -0.5,0 -1,0 -0.5,0 -1,0 -0.5,0 -1,0 -0.5,0 -1,0 -0.5,0 -1,0 -0.5,0 -1,0 -0.5,0 -1,0 -0.5,0 -1,0 -0.5,0 -1,0 -0.5,0 -1,0 -0.5,0 -1,0 -0.5,0 -1,0 -0.5,0 -1,0 -0.5,0 -1,0 -0.5,0 -1,0 -0.5,0 -1,0 -0.5,0 -0.5,0.5 0,0.5 -0.5,0.5 -0.5,0 -1,0 -0.5,0 -1,0 -0.5,0 -1,0 Q 68,81 68,81.5 68,82 67.5,82 67,82 67,82.5 67,83 66.5,83 66,83 66,83.5 66,84 65.5,84 65,84 65,84.5 q 0,0.5 0,1 0,0.5 0,1 0,0.5 0,1 0,0.5 -0.5,0.5 -0.5,0 -0.5,0.5 0,0.5 0,1 0,0.5 0,1 0,0.5 0,1 0,0.5 0,1 0,0.5 0,1 0,0.5 0,1 0,0.5 0,1 0,0.5 0,1 0,0.5 0,1 0,0.5 0,1 0,0.5 0,1 0,0.5 0,1 0,0.5 0,1 0,0.5 0,1 0,0.5 0,1 0,0.5 0,1 0,0.5 0,1 0,0.5 0,1 0,0.5 0,1 0,0.5 0,1 0,0.5 0,1 0,0.5 0,1 0,0.5 0,1 0,0.5 0,1 0,0.5 0,1 0,0.5 0,1 0,0.5 0,1 0,0.5 0,1 0,0.5 0,1 0,0.5 0,1 0,0.5 0,1 0,0.5 0.5,0.5 0.5,0 1,0 0.5,0 1,0 0.5,0 1,0 0.5,0 1,0 0.5,0 1,0 0.5,0 1,0 0.5,0 1,0 0.5,0 1,0 0.5,0 1,0 0.5,0 1,0 0.5,0 1,0 0.5,0 1,0 0.5,0 1,0 0.5,0 1,0 0.5,0 1,0"
         id="path13816"
         inkscape:connector-curvature="0" />
      <path
         style="fill:#ffffff;fill-opacity:0"
         d="m 112,61.5 q 0,-0.5 0.5,-0.5 0.5,0 0.5,0.5 0,0.5 0.5,0.5 0.5,0 0.5,0.5 0,0.5 0.5,0.5 0.5,0 0.5,0.5 0,0.5 0.5,0.5 0.5,0 0.5,0.5 0,0.5 0.5,0.5 0.5,0 0.5,0.5 0,0.5 0.5,0.5 0.5,0 0.5,0.5 0,0.5 0.5,0.5 0.5,0 0.5,0.5 0,0.5 0.5,0.5 0.5,0 0.5,0.5 0,0.5 0.5,0.5 0.5,0 0.5,0.5 0,0.5 0.5,0.5 0.5,0 0.5,0.5 0,0.5 0.5,0.5 0.5,0 0.5,0.5 0,0.5 0.5,0.5 0.5,0 0.5,0.5 0,0.5 0.5,0.5 0.5,0 0.5,0.5 0,0.5 0.5,0.5 0.5,0 0.5,0.5 0,0.5 0.5,0.5 0.5,0 0.5,0.5 0,0.5 0.5,0.5 0.5,0 0.5,0.5 0,0.5 0.5,0.5 0.5,0 0.5,0.5 0,0.5 0.5,0.5 0.5,0 0.5,0.5 0,0.5 0.5,0.5 0.5,0 0.5,0.5 0,0.5 0.5,0.5 0.5,0 0.5,0.5 0,0.5 0.5,0.5 0.5,0 0.5,0.5 0,0.5 0.5,0.5 0.5,0 0.5,0.5 0,0.5 0.5,0.5 0.5,0 0.5,0.5 0,0.5 0.5,0.5 0.5,0 0.5,0.5 0,0.5 0.5,0.5 0.5,0 0.5,0.5 0,0.5 0.5,0.5 0.5,0 0.5,0.5 0,0.5 0.5,0.5 0.5,0 0.5,0.5 0,0.5 0,1 0,0.5 -0.5,0.5 -0.5,0 -0.5,0.5 0,0.5 -0.5,0.5 -0.5,0 -0.5,0.5 0,0.5 -0.5,0.5 -0.5,0 -0.5,0.5 0,0.5 -0.5,0.5 -0.5,0 -0.5,0.5 0,0.5 -0.5,0.5 -0.5,0 -0.5,0.5 0,0.5 -0.5,0.5 -0.5,0 -0.5,0.5 0,0.5 -0.5,0.5 -0.5,0 -0.5,0.5 0,0.5 -0.5,0.5 -0.5,0 -0.5,0.5 0,0.5 -0.5,0.5 -0.5,0 -0.5,0.5 0,0.5 -0.5,0.5 -0.5,0 -0.5,0.5 0,0.5 -0.5,0.5 -0.5,0 -0.5,0.5 0,0.5 -0.5,0.5 -0.5,0 -0.5,0.5 0,0.5 -0.5,0.5 -0.5,0 -0.5,0.5 0,0.5 -0.5,0.5 -0.5,0 -0.5,0.5 0,0.5 -0.5,0.5 -0.5,0 -0.5,0.5 0,0.5 -0.5,0.5 -0.5,0 -0.5,0.5 0,0.5 -0.5,0.5 -0.5,0 -0.5,0.5 0,0.5 -0.5,0.5 -0.5,0 -0.5,0.5 0,0.5 -0.5,0.5 -0.5,0 -0.5,0.5 0,0.5 -0.5,0.5 -0.5,0 -0.5,0.5 0,0.5 -0.5,0.5 -0.5,0 -0.5,0.5 0,0.5 -0.5,0.5 -0.5,0 -0.5,0.5 0,0.5 -0.5,0.5 -0.5,0 -0.5,0.5 0,0.5 -0.5,0.5 -0.5,0 -0.5,0.5 0,0.5 -0.5,0.5 -0.5,0 -0.5,0.5 0,0.5 -0.5,0.5 -0.5,0 -0.5,0.5 0,0.5 -0.5,0.5 -0.5,0 -0.5,-0.5 0,-0.5 0,-1 0,-0.5 0,-1 0,-0.5 0,-1 0,-0.5 0,-1 0,-0.5 0,-1 0,-0.5 0,-1 0,-0.5 0,-1 0,-0.5 0,-1 0,-0.5 0,-1 0,-0.5 0,-1 0,-0.5 0,-1 0,-0.5 0,-1 0,-0.5 0,-1 0,-0.5 0,-1 0,-0.5 0,-1 0,-0.5 0,-1 0,-0.5 0,-1 0,-0.5 0,-1 0,-0.5 -0.5,-0.5 -0.5,0 -1,0 -0.5,0 -1,0 -0.5,0 -1,0 -0.5,0 -1,0 -0.5,0 -1,0 -0.5,0 -1,0 -0.5,0 -1,0 -0.5,0 -1,0 -0.5,0 -1,0 -0.5,0 -1,0 -0.5,0 -1,0 -0.5,0 -1,0 -0.5,0 -1,0 -0.5,0 -1,0 -0.5,0 -1,0 -0.5,0 -1,0 -0.5,0 -1,0 -0.5,0 -1,0 -0.5,0 -1,0 -0.5,0 -1,0 -0.5,0 -1,0 -0.5,0 -1,0 -0.5,0 -1,0 -0.5,0 -1,0 -0.5,0 -1,0 -0.5,0 -1,0 -0.5,0 -1,0 -0.5,0 -1,0 -0.5,0 -1,0 -0.5,0 -1,0 -0.5,0 -1,0 -0.5,0 -0.5,0.5 0,0.5 0,1 0,0.5 0,1 0,0.5 0,1 0,0.5 0,1 0,0.5 0,1 0,0.5 0,1 0,0.5 0,1 0,0.5 0,1 0,0.5 0,1 0,0.5 0,1 0,0.5 0,1 0,0.5 0,1 0,0.5 0,1 0,0.5 0,1 0,0.5 0,1 0,0.5 0,1 0,0.5 0,1 0,0.5 0,1 0,0.5 0,1 0,0.5 0,1 0,0.5 0,1 0,0.5 0,1 0,0.5 0,1 0,0.5 -0.5,0.5 -0.5,0 -1,0 -0.5,0 -1,0 -0.5,0 -1,0 -0.5,0 -1,0 -0.5,0 -1,0 -0.5,0 -1,0 -0.5,0 -1,0 -0.5,0 -1,0 -0.5,0 -1,0 -0.5,0 -1,0 -0.5,0 -1,0 -0.5,0 -1,0 -0.5,0 -1,0 -0.5,0 -1,0 -0.5,0 -1,0 -0.5,0 -0.5,-0.5 0,-0.5 0,-1 0,-0.5 0,-1 0,-0.5 0,-1 0,-0.5 0,-1 0,-0.5 0,-1 0,-0.5 0,-1 0,-0.5 0,-1 0,-0.5 0,-1 0,-0.5 0,-1 0,-0.5 0,-1 0,-0.5 0,-1 0,-0.5 0,-1 0,-0.5 0,-1 0,-0.5 0,-1 0,-0.5 0,-1 0,-0.5 0,-1 0,-0.5 0,-1 0,-0.5 0,-1 0,-0.5 0,-1 0,-0.5 0,-1 0,-0.5 0,-1 0,-0.5 0,-1 0,-0.5 0,-1 0,-0.5 0,-1 0,-0.5 0,-1 0,-0.5 0,-1 0,-0.5 0,-1 0,-0.5 0,-1 0,-0.5 0,-1 0,-0.5 0,-1 0,-0.5 0,-1 0,-0.5 0.5,-0.5 0.5,0 0.5,-0.5 0,-0.5 0,-1 0,-0.5 0,-1 0,-0.5 0,-1 Q 65,84 65.5,84 66,84 66,83.5 66,83 66.5,83 67,83 67,82.5 67,82 67.5,82 68,82 68,81.5 68,81 68.5,81 q 0.5,0 1,0 0.5,0 1,0 0.5,0 1,0 0.5,0 0.5,-0.5 0,-0.5 0.5,-0.5 0.5,0 1,0 0.5,0 1,0 0.5,0 1,0 0.5,0 1,0 0.5,0 1,0 0.5,0 1,0 0.5,0 1,0 0.5,0 1,0 0.5,0 1,0 0.5,0 1,0 0.5,0 1,0 0.5,0 1,0 0.5,0 1,0 0.5,0 1,0 0.5,0 1,0 0.5,0 1,0 0.5,0 1,0 0.5,0 1,0 0.5,0 1,0 0.5,0 1,0 0.5,0 1,0 0.5,0 1,0 0.5,0 1,0 0.5,0 1,0 0.5,0 1,0 0.5,0 1,0 0.5,0 1,0 0.5,0 1,0 0.5,0 1,0 0.5,0 1,0 0.5,0 1,0 0.5,0 1,0 0.5,0 1,0 0.5,0 1,0 0.5,0 1,0 0.5,0 1,0 0.5,0 1,0 0.5,0 1,0 0.5,0 1,0 0.5,0 0.5,-0.5 0,-0.5 0,-1 0,-0.5 0,-1 0,-0.5 0,-1 0,-0.5 0,-1 0,-0.5 0,-1 0,-0.5 0,-1 0,-0.5 0,-1 0,-0.5 0,-1 0,-0.5 0,-1 0,-0.5 0,-1 0,-0.5 0,-1 0,-0.5 0,-1 0,-0.5 0,-1 0,-0.5 0,-1 0,-0.5 0,-1 0,-0.5 0,-1 0,-0.5 0,-1 0,-0.5 0,-1"
         id="path13818"
         inkscape:connector-curvature="0" />
    </g>
  </g>
</svg>
