<?xml version="1.0" encoding="UTF-8" standalone="no"?>
<!-- Created with Inkscape (http://www.inkscape.org/) -->

<svg
   xmlns:dc="http://purl.org/dc/elements/1.1/"
   xmlns:cc="http://creativecommons.org/ns#"
   xmlns:rdf="http://www.w3.org/1999/02/22-rdf-syntax-ns#"
   xmlns:svg="http://www.w3.org/2000/svg"
   xmlns="http://www.w3.org/2000/svg"
   xmlns:sodipodi="http://sodipodi.sourceforge.net/DTD/sodipodi-0.dtd"
   xmlns:inkscape="http://www.inkscape.org/namespaces/inkscape"
   width="600"
   height="200"
   viewBox="0 0 158.75 52.916667"
   version="1.1"
   id="svg9261"
   inkscape:version="0.92.4 (5da689c313, 2019-01-14)"
   sodipodi:docname="experium-logo.svg"
   inkscape:export-filename="C:\Users\jeffs\OneDrive\Experium Inc\Experium\Artwork\Elements\Splash Pages\experium-splash.png"
   inkscape:export-xdpi="96"
   inkscape:export-ydpi="96">
  <defs
     id="defs9255">
    <linearGradient
       id="SVGID_1_"
       gradientUnits="userSpaceOnUse"
       x1="799.59772"
       y1="908.38037"
       x2="1139.4113"
       y2="908.38037"
       gradientTransform="matrix(1,-0.2657,0,1,-3.395229e-4,210.1581)">
      <stop
         offset="0"
         style="stop-color:#2E3192"
         id="stop26" />
      <stop
         offset="1"
         style="stop-color:#29ABE2"
         id="stop28" />
    </linearGradient>
    <linearGradient
       id="SVGID_2_"
       gradientUnits="userSpaceOnUse"
       x1="799.59772"
       y1="787.57672"
       x2="1200.403"
       y2="787.57672"
       gradientTransform="matrix(1,-0.2657,0,1,-3.395229e-4,210.1581)">
      <stop
         offset="0"
         style="stop-color:#2E3192"
         id="stop35" />
      <stop
         offset="1"
         style="stop-color:#29ABE2"
         id="stop37" />
    </linearGradient>
    <linearGradient
       id="SVGID_3_"
       gradientUnits="userSpaceOnUse"
       x1="799.59772"
       y1="1029.3553"
       x2="1200.403"
       y2="1029.3553"
       gradientTransform="matrix(1,-0.2657,0,1,-3.395229e-4,210.1581)">
      <stop
         offset="0"
         style="stop-color:#2E3192"
         id="stop42" />
      <stop
         offset="1"
         style="stop-color:#29ABE2"
         id="stop44" />
    </linearGradient>
  </defs>
  <sodipodi:namedview
     id="base"
     pagecolor="#ffffff"
     bordercolor="#666666"
     borderopacity="1.0"
     inkscape:pageopacity="0.0"
     inkscape:pageshadow="2"
     inkscape:zoom="0.98994949"
     inkscape:cx="309.17834"
     inkscape:cy="278.51223"
     inkscape:document-units="mm"
     inkscape:current-layer="g13891"
     showgrid="false"
     inkscape:window-width="1920"
     inkscape:window-height="1057"
     inkscape:window-x="-8"
     inkscape:window-y="-8"
     inkscape:window-maximized="1"
     units="px" />
  <metadata
     id="metadata9258">
    <rdf:RDF>
      <cc:Work
         rdf:about="">
        <dc:format>image/svg+xml</dc:format>
        <dc:type
           rdf:resource="http://purl.org/dc/dcmitype/StillImage" />
        <dc:title></dc:title>
      </cc:Work>
    </rdf:RDF>
  </metadata>
  <g
     inkscape:label="Layer 1"
     inkscape:groupmode="layer"
     id="layer1"
     transform="translate(0,-244.08334)">
    <g
       id="g13851"
       transform="matrix(1.1844202,0,0,1.2189265,-47.309846,-29.45912)">
      <g
         id="g13891"
         transform="matrix(0.98724377,0,0,0.97082394,-56.160243,97.359358)">
        <g
           id="g13976"
           transform="translate(1.5999809)">
          <g
             id="text13743"
             style="font-style:normal;font-variant:normal;font-weight:normal;font-stretch:normal;font-size:22.11318588px;line-height:1.25;font-family:'Montserrat Alternates';-inkscape-font-specification:'Montserrat Alternates';font-variant-ligatures:normal;font-variant-caps:normal;font-variant-numeric:normal;text-align:start;letter-spacing:0px;word-spacing:0px;writing-mode:lr-tb;text-anchor:start;fill:#000000;fill-opacity:1;stroke:none;stroke-width:0.23034567"
             transform="matrix(0.96973387,0,0,0.99417744,4.7197409,0)"
             aria-label="xperium">
            <path
               inkscape:connector-curvature="0"
               id="path13939"
               style="font-style:normal;font-variant:normal;font-weight:500;font-stretch:normal;font-size:22.11318588px;font-family:'Montserrat Alternates';-inkscape-font-specification:'Montserrat Alternates Medium';letter-spacing:-0.57512158px;stroke-width:0.23034567"
               d="m 139.83508,160.1544 -3.38331,-4.48897 -3.42755,4.48897 h -2.36611 l 4.62166,-5.99267 -4.40053,-5.72731 h 2.36611 l 3.22853,4.22361 3.20641,-4.22361 h 2.32188 l -4.42263,5.72731 4.66588,5.99267 z" />
            <path
               inkscape:connector-curvature="0"
               id="path13941"
               style="font-style:normal;font-variant:normal;font-weight:500;font-stretch:normal;font-size:22.11318588px;font-family:'Montserrat Alternates';-inkscape-font-specification:'Montserrat Alternates Medium';letter-spacing:-0.57512158px;stroke-width:0.23034567"
               d="m 150.22223,148.32385 q 1.70271,0 3.05162,0.75185 1.3489,0.75185 2.10075,2.10075 0.77396,1.3489 0.77396,3.11796 0,1.76905 -0.77396,3.14007 -0.75185,1.34891 -2.10075,2.10075 -1.34891,0.75185 -3.05162,0.75185 -1.26045,0 -2.32189,-0.48649 -1.03932,-0.48649 -1.76905,-1.41524 v 6.05901 h -2.12287 v -16.00994 h 2.03442 v 1.8575 q 0.70762,-0.97298 1.79116,-1.45947 1.08355,-0.5086 2.38823,-0.5086 z m -0.17691,10.10573 q 1.12777,0 2.0123,-0.50861 0.90664,-0.53071 1.41525,-1.45947 0.53071,-0.95087 0.53071,-2.16709 0,-1.21623 -0.53071,-2.14498 -0.50861,-0.95087 -1.41525,-1.45947 -0.88453,-0.5086 -2.0123,-0.5086 -1.10566,0 -2.0123,0.53071 -0.88453,0.50861 -1.41524,1.43736 -0.50861,0.92875 -0.50861,2.14498 0,1.21622 0.50861,2.16709 0.5086,0.92876 1.41524,1.45947 0.90664,0.50861 2.0123,0.50861 z" />
            <path
               inkscape:connector-curvature="0"
               id="path13943"
               style="font-style:normal;font-variant:normal;font-weight:500;font-stretch:normal;font-size:22.11318588px;font-family:'Montserrat Alternates';-inkscape-font-specification:'Montserrat Alternates Medium';letter-spacing:-0.57512158px;stroke-width:0.23034567"
               d="m 163.7916,158.42958 q 2.10075,0 3.38332,-1.41525 l 1.14988,1.37102 q -0.77396,0.92875 -1.96807,1.41524 -1.172,0.48649 -2.63147,0.48649 -1.85751,0 -3.29487,-0.75185 -1.43735,-0.77396 -2.23343,-2.14497 -0.77396,-1.37102 -0.77396,-3.09585 0,-1.70272 0.75185,-3.07373 0.77396,-1.37102 2.10075,-2.12287 1.34891,-0.77396 3.02951,-0.77396 1.59215,0 2.89683,0.72973 1.30467,0.70763 2.07864,2.0123 0.77396,1.30468 0.79607,3.0074 l -9.30965,1.81328 q 0.44226,1.21622 1.48158,1.87962 1.06144,0.6634 2.54302,0.6634 z m -0.48649,-8.31456 q -1.10566,0 -1.99019,0.5086 -0.86241,0.5086 -1.3489,1.43736 -0.48649,0.90664 -0.48649,2.12286 v 0.22114 l 7.49637,-1.41525 q -0.28747,-1.28256 -1.28257,-2.07864 -0.99509,-0.79607 -2.38822,-0.79607 z" />
            <path
               inkscape:connector-curvature="0"
               id="path13945"
               style="font-style:normal;font-variant:normal;font-weight:500;font-stretch:normal;font-size:22.11318588px;font-family:'Montserrat Alternates';-inkscape-font-specification:'Montserrat Alternates Medium';letter-spacing:-0.57512158px;stroke-width:0.23034567"
               d="m 173.48425,150.40249 q 0.55283,-1.01721 1.63638,-1.54792 1.08354,-0.53072 2.63147,-0.53072 v 2.05653 q -0.17691,-0.0221 -0.48649,-0.0221 -1.72483,0 -2.71993,1.03932 -0.97298,1.01721 -0.97298,2.91894 v 5.83788 h -2.12286 v -11.71998 h 2.03441 z" />
            <path
               inkscape:connector-curvature="0"
               id="path13947"
               style="font-style:normal;font-variant:normal;font-weight:500;font-stretch:normal;font-size:22.11318588px;font-family:'Montserrat Alternates';-inkscape-font-specification:'Montserrat Alternates Medium';letter-spacing:-0.57512158px;stroke-width:0.23034567"
               d="m 179.77182,148.43442 h 2.12286 v 11.71998 h -2.12286 z m 1.06143,-2.25555 q -0.61917,0 -1.03932,-0.39804 -0.39804,-0.39803 -0.39804,-0.97298 0,-0.57494 0.39804,-0.97298 0.42015,-0.42015 1.03932,-0.42015 0.61917,0 1.01721,0.39804 0.42015,0.37592 0.42015,0.95087 0,0.59705 -0.42015,1.0172 -0.39804,0.39804 -1.01721,0.39804 z" />
            <path
               inkscape:connector-curvature="0"
               id="path13949"
               style="font-style:normal;font-variant:normal;font-weight:500;font-stretch:normal;font-size:22.11318588px;font-family:'Montserrat Alternates';-inkscape-font-specification:'Montserrat Alternates Medium';letter-spacing:-0.57512158px;stroke-width:0.23034567"
               d="m 196.29676,148.43442 v 11.71998 h -2.0123 v -1.76905 q -0.64129,0.90664 -1.70272,1.41524 -1.03932,0.48649 -2.27766,0.48649 -2.344,0 -3.6929,-1.28256 -1.3489,-1.30468 -1.3489,-3.82558 v -6.74452 h 2.12286 v 6.50127 q 0,1.70272 0.81819,2.58724 0.81819,0.86242 2.344,0.86242 1.6806,0 2.65358,-1.01721 0.97298,-1.0172 0.97298,-2.87471 v -6.05901 z" />
            <path
               inkscape:connector-curvature="0"
               id="path13951"
               style="font-style:normal;font-variant:normal;font-weight:500;font-stretch:normal;font-size:22.11318588px;font-family:'Montserrat Alternates';-inkscape-font-specification:'Montserrat Alternates Medium';letter-spacing:-0.57512158px;stroke-width:0.23034567"
               d="m 214.44563,148.32385 q 2.21132,0 3.49388,1.28256 1.30468,1.28257 1.30468,3.80347 v 6.74452 h -2.12287 v -6.50127 q 0,-1.70272 -0.79607,-2.56513 -0.77396,-0.86242 -2.23343,-0.86242 -1.61427,0 -2.56513,1.01721 -0.95087,0.99509 -0.95087,2.87471 v 6.0369 h -2.12287 v -6.50127 q 0,-1.70272 -0.79607,-2.56513 -0.77396,-0.86242 -2.23343,-0.86242 -1.61426,0 -2.56513,1.01721 -0.95087,0.99509 -0.95087,2.87471 v 6.0369 h -2.12286 v -11.71998 h 2.03441 v 1.74694 q 0.64128,-0.90664 1.6806,-1.37102 1.03932,-0.48649 2.36611,-0.48649 1.37102,0 2.43245,0.55283 1.06143,0.55283 1.63638,1.61426 0.66339,-1.01721 1.83539,-1.59215 1.19411,-0.57494 2.6757,-0.57494 z" />
          </g>
          <g
             id="g23"
             transform="matrix(0.0521261,0,0,0.0502661,68.24649,110.34379)"
             inkscape:transform-center-x="-3.2959571"
             inkscape:transform-center-y="-0.53454389">
            <linearGradient
               gradientTransform="matrix(1,-0.2657,0,1,-3.395229e-4,210.1581)"
               y2="908.38037"
               x2="1139.4113"
               y1="908.38037"
               x1="799.59772"
               gradientUnits="userSpaceOnUse"
               id="linearGradient13766">
              <stop
                 id="stop13762"
                 style="stop-color:#2E3192"
                 offset="0" />
              <stop
                 id="stop13764"
                 style="stop-color:#29ABE2"
                 offset="1" />
            </linearGradient>
            <path
               inkscape:connector-curvature="0"
               style="fill:url(#SVGID_1_)"
               id="path30"
               d="m 1139.411,752.271 c 0,0 -37.693,108.833 -130.398,129.392 -92.705,20.559 -200.383,61.985 -206.495,88.059 0,0 -28.524,-116.705 92.705,-151.976 121.229,-35.271 244.188,-65.475 244.188,-65.475 z" />
            <g
               id="g32">
              <linearGradient
                 gradientTransform="matrix(1,-0.2657,0,1,-3.395229e-4,210.1581)"
                 y2="787.57672"
                 x2="1200.403"
                 y1="787.57672"
                 x1="799.59772"
                 gradientUnits="userSpaceOnUse"
                 id="linearGradient13773">
                <stop
                   id="stop13769"
                   style="stop-color:#2E3192"
                   offset="0" />
                <stop
                   id="stop13771"
                   style="stop-color:#29ABE2"
                   offset="1" />
              </linearGradient>
              <path
                 inkscape:connector-curvature="0"
                 style="fill:url(#SVGID_2_)"
                 id="path39"
                 d="m 1200.403,615.762 c 0,0 -37.693,108.833 -130.397,129.392 -92.705,20.559 -261.374,77.604 -267.487,103.678 0,0 -28.524,-116.705 92.705,-151.976 121.229,-35.271 305.179,-81.094 305.179,-81.094 z" />
              <linearGradient
                 gradientTransform="matrix(1,-0.2657,0,1,-3.395229e-4,210.1581)"
                 y2="1029.3553"
                 x2="1200.403"
                 y1="1029.3553"
                 x1="799.59772"
                 gradientUnits="userSpaceOnUse"
                 id="linearGradient13780">
                <stop
                   id="stop13776"
                   style="stop-color:#2E3192"
                   offset="0" />
                <stop
                   id="stop13778"
                   style="stop-color:#29ABE2"
                   offset="1" />
              </linearGradient>
              <path
                 inkscape:connector-curvature="0"
                 style="fill:url(#SVGID_3_)"
                 id="path46"
                 d="m 1200.403,857.541 c 0,0 -37.693,108.833 -130.397,129.392 -92.705,20.559 -261.374,77.604 -267.487,103.678 0,0 -28.524,-116.705 92.705,-151.975 121.229,-35.27 305.179,-81.095 305.179,-81.095 z" />
            </g>
          </g>
        </g>
      </g>
    </g>
  </g>
</svg>
