<?xml version="1.0" encoding="UTF-8" standalone="no"?>
<svg
   xmlns:dc="http://purl.org/dc/elements/1.1/"
   xmlns:cc="http://creativecommons.org/ns#"
   xmlns:rdf="http://www.w3.org/1999/02/22-rdf-syntax-ns#"
   xmlns:svg="http://www.w3.org/2000/svg"
   xmlns="http://www.w3.org/2000/svg"
   xmlns:sodipodi="http://sodipodi.sourceforge.net/DTD/sodipodi-0.dtd"
   xmlns:inkscape="http://www.inkscape.org/namespaces/inkscape"
   xml:space="preserve"
   enable-background="new 0 0 2000 2000"
   viewBox="0 0 450 450"
   height="450"
   width="450"
   y="0px"
   x="0px"
   id="Layer_1"
   version="1.1"
   sodipodi:docname="experiences1.svg"
   inkscape:version="0.92.4 (5da689c313, 2019-01-14)"><sodipodi:namedview
     pagecolor="#ffffff"
     bordercolor="#666666"
     borderopacity="1"
     objecttolerance="10"
     gridtolerance="10"
     guidetolerance="10"
     inkscape:pageopacity="0"
     inkscape:pageshadow="2"
     inkscape:window-width="1920"
     inkscape:window-height="1057"
     id="namedview19"
     showgrid="false"
     inkscape:zoom="0.52444444"
     inkscape:cx="-597.28269"
     inkscape:cy="446.93638"
     inkscape:window-x="-8"
     inkscape:window-y="-8"
     inkscape:window-maximized="1"
     inkscape:current-layer="Layer_1" /><metadata
     id="metadata52"><rdf:RDF><cc:Work
         rdf:about=""><dc:format>image/svg+xml</dc:format><dc:type
           rdf:resource="http://purl.org/dc/dcmitype/StillImage" /><dc:title></dc:title></cc:Work></rdf:RDF></metadata><defs
     id="defs50"><linearGradient
       gradientTransform="matrix(1,-0.2657,0,1,-3.395229e-4,210.1581)"
       y2="908.38037"
       x2="1139.4113"
       y1="908.38037"
       x1="799.59772"
       gradientUnits="userSpaceOnUse"
       id="SVGID_1_"><stop
         id="stop26"
         style="stop-color:#2E3192"
         offset="0" /><stop
         id="stop28"
         style="stop-color:#29ABE2"
         offset="1" /></linearGradient><linearGradient
       id="SVGID_2_"
       gradientUnits="userSpaceOnUse"
       x1="799.59772"
       y1="787.57672"
       x2="1200.403"
       y2="787.57672"
       gradientTransform="matrix(1,-0.2657,0,1,-3.395229e-4,210.1581)"><stop
         offset="0"
         style="stop-color:#2E3192"
         id="stop35" /><stop
         offset="1"
         style="stop-color:#29ABE2"
         id="stop37" /></linearGradient><linearGradient
       id="SVGID_3_"
       gradientUnits="userSpaceOnUse"
       x1="799.59772"
       y1="1029.3553"
       x2="1200.403"
       y2="1029.3553"
       gradientTransform="matrix(1,-0.2657,0,1,-3.395229e-4,210.1581)"><stop
         offset="0"
         style="stop-color:#2E3192"
         id="stop42" /><stop
         offset="1"
         style="stop-color:#29ABE2"
         id="stop44" /></linearGradient></defs><path
     style="stroke-width:0.92206132"
     d="m 352.759,126.04738 c 0,0 -104.43843,27.66991 -223.17867,65.18066 C 21.193799,225.46799 42.120859,353.37522 44.210275,336.65989 49.686972,311.92034 153.32304,272.61397 236.39195,253.10716 319.46086,233.60035 352.759,126.04738 352.759,126.04738 Z m -31.65796,26.41486 c 0,0 -33.51456,73.14774 -94.8655,86.29978 -61.35094,13.15204 -161.21311,48.99033 -165.257951,65.67042 0,0 0.75503,-76.25984 80.568901,-100.24639 86.29508,-25.93435 179.55455,-51.72381 179.55455,-51.72381 z"
     id="path30"
     inkscape:connector-curvature="0"
     sodipodi:nodetypes="cscsccscsc" /><path
     style="stroke-width:0.92206132"
     d="m 403.12109,1.7675781 c 0,0 -172.93476,41.5707189 -281.56279,75.0365799 C 12.930274,110.27002 44.210275,227.67711 44.210275,227.67711 49.687868,202.93756 207.49868,144.91553 290.56759,125.40872 373.6356,105.90191 403.12109,1.7675781 403.12109,1.7675781 Z M 372.4787,24.195954 c 0,0 -18.40394,63.790793 -80.42409,82.063886 -84.94197,20.96976 -203.491431,60.30718 -231.336701,82.09354 0,0 -11.973911,-70.84008 72.270661,-95.887311 C 225.9313,64.832743 372.4787,24.195954 372.4787,24.195954 Z"
     id="path39"
     inkscape:connector-curvature="0"
     sodipodi:nodetypes="csccccccsc" /><path
     style="stroke-width:0.92206132"
     d="m 402.1677,224.97485 c 0,0 -165.30764,45.38718 -273.93567,78.85209 C 19.604003,337.29186 40.396716,450.88437 40.396716,450.88437 45.874309,426.14481 209.88216,376.31034 292.95107,356.80353 376.01908,337.29672 402.1677,224.97485 402.1677,224.97485 Z m -28.72113,29.03246 c 0,0 -27.64238,70.00021 -96.37406,86.69683 -68.73241,16.69664 -212.322973,61.82484 -217.278165,80.21826 0,0 -7.245808,-74.52632 82.778065,-102.22644 90.02389,-27.70013 230.87416,-64.68865 230.87416,-64.68865 z"
     id="path46"
     inkscape:connector-curvature="0"
     sodipodi:nodetypes="csccccccsc" /></svg>