<?xml version="1.0" encoding="UTF-8" standalone="no"?>
<svg
   xmlns:dc="http://purl.org/dc/elements/1.1/"
   xmlns:cc="http://creativecommons.org/ns#"
   xmlns:rdf="http://www.w3.org/1999/02/22-rdf-syntax-ns#"
   xmlns:svg="http://www.w3.org/2000/svg"
   xmlns="http://www.w3.org/2000/svg"
   xml:space="preserve"
   enable-background="new 0 0 2000 2000"
   viewBox="0 0 450 450"
   height="450"
   width="450"
   y="0px"
   x="0px"
   id="Layer_1"
   version="1.1"><metadata
     id="metadata52"><rdf:RDF><cc:Work
         rdf:about=""><dc:format>image/svg+xml</dc:format><dc:type
           rdf:resource="http://purl.org/dc/dcmitype/StillImage" /><dc:title></dc:title></cc:Work></rdf:RDF></metadata><defs
     id="defs50" /><g
     style="fill:#000000"
     transform="matrix(0.89605642,0,0,0.94882089,-672.50855,-582.47996)"
     id="g23"><linearGradient
       id="SVGID_1_"
       gradientUnits="userSpaceOnUse"
       x1="799.59772"
       y1="908.38037"
       x2="1139.4113"
       y2="908.38037"
       gradientTransform="matrix(1,-0.2657,0,1,-3.395229e-4,210.1581)"><stop
         offset="0"
         style="stop-color:#2E3192"
         id="stop26" /><stop
         offset="1"
         style="stop-color:#29ABE2"
         id="stop28" /></linearGradient><path
       d="m 1139.411,752.271 c 0,0 -37.693,108.833 -130.398,129.392 -92.705,20.559 -200.383,61.985 -206.495,88.059 0,0 -28.524,-116.705 92.705,-151.976 121.229,-35.271 244.188,-65.475 244.188,-65.475 z"
       id="path30"
       style="fill:#000000" /><g
       style="fill:#000000"
       id="g32"><linearGradient
         id="SVGID_2_"
         gradientUnits="userSpaceOnUse"
         x1="799.59772"
         y1="787.57672"
         x2="1200.403"
         y2="787.57672"
         gradientTransform="matrix(1,-0.2657,0,1,-3.395229e-4,210.1581)"><stop
           offset="0"
           style="stop-color:#2E3192"
           id="stop35" /><stop
           offset="1"
           style="stop-color:#29ABE2"
           id="stop37" /></linearGradient><path
         d="m 1200.403,615.762 c 0,0 -37.693,108.833 -130.397,129.392 -92.705,20.559 -261.374,77.604 -267.487,103.678 0,0 -28.524,-116.705 92.705,-151.976 121.229,-35.271 305.179,-81.094 305.179,-81.094 z"
         id="path39"
         style="fill:#000000" /><linearGradient
         id="SVGID_3_"
         gradientUnits="userSpaceOnUse"
         x1="799.59772"
         y1="1029.3553"
         x2="1200.403"
         y2="1029.3553"
         gradientTransform="matrix(1,-0.2657,0,1,-3.395229e-4,210.1581)"><stop
           offset="0"
           style="stop-color:#2E3192"
           id="stop42" /><stop
           offset="1"
           style="stop-color:#29ABE2"
           id="stop44" /></linearGradient><path
         d="m 1200.403,857.541 c 0,0 -37.693,108.833 -130.397,129.392 -92.705,20.559 -261.374,77.604 -267.487,103.678 0,0 -28.524,-116.705 92.705,-151.975 121.229,-35.27 305.179,-81.095 305.179,-81.095 z"
         id="path46"
         style="fill:#000000" /></g></g></svg>
