<?xml version="1.0" encoding="UTF-8" standalone="no"?>
<!-- Created with Inkscape (http://www.inkscape.org/) -->

<svg
   xmlns:dc="http://purl.org/dc/elements/1.1/"
   xmlns:cc="http://creativecommons.org/ns#"
   xmlns:rdf="http://www.w3.org/1999/02/22-rdf-syntax-ns#"
   xmlns:svg="http://www.w3.org/2000/svg"
   xmlns="http://www.w3.org/2000/svg"
   xmlns:xlink="http://www.w3.org/1999/xlink"
   xmlns:sodipodi="http://sodipodi.sourceforge.net/DTD/sodipodi-0.dtd"
   xmlns:inkscape="http://www.inkscape.org/namespaces/inkscape"
   width="1920"
   height="1080"
   viewBox="0 0 508 285.75001"
   version="1.1"
   id="svg5169"
   inkscape:version="0.92.4 (5da689c313, 2019-01-14)"
   sodipodi:docname="experium-splash-beta.svg">
  <defs
     id="defs5163">
    <linearGradient
       id="SVGID_1_"
       gradientUnits="userSpaceOnUse"
       x1="799.59772"
       y1="908.38037"
       x2="1139.4113"
       y2="908.38037"
       gradientTransform="matrix(0.92341774,-0.27324245,0,1.0283871,91.929232,176.17811)">
      <stop
         offset="0"
         style="stop-color:#2E3192"
         id="stop26" />
      <stop
         offset="1"
         style="stop-color:#29ABE2"
         id="stop28" />
    </linearGradient>
    <linearGradient
       id="SVGID_2_"
       gradientUnits="userSpaceOnUse"
       x1="799.59772"
       y1="787.57672"
       x2="1200.403"
       y2="787.57672"
       gradientTransform="matrix(1,-0.2657,0,1,-3.395229e-4,210.1581)">
      <stop
         offset="0"
         style="stop-color:#2E3192"
         id="stop35" />
      <stop
         offset="1"
         style="stop-color:#29ABE2"
         id="stop37" />
    </linearGradient>
    <linearGradient
       id="SVGID_3_"
       gradientUnits="userSpaceOnUse"
       x1="799.59772"
       y1="1029.3553"
       x2="1200.403"
       y2="1029.3553"
       gradientTransform="matrix(1,-0.2657,0,1,-3.395229e-4,210.1581)">
      <stop
         offset="0"
         style="stop-color:#2E3192"
         id="stop42" />
      <stop
         offset="1"
         style="stop-color:#29ABE2"
         id="stop44" />
    </linearGradient>
    <linearGradient
       inkscape:collect="always"
       xlink:href="#SVGID_3_"
       id="linearGradient9742"
       x1="135.55103"
       y1="210.21423"
       x2="184.6516"
       y2="210.21423"
       gradientUnits="userSpaceOnUse"
       gradientTransform="translate(13.954997,-35.105538)" />
    <linearGradient
       inkscape:collect="always"
       xlink:href="#SVGID_3_"
       id="linearGradient9750"
       gradientUnits="userSpaceOnUse"
       gradientTransform="translate(13.954997,-35.105538)"
       x1="135.55103"
       y1="210.21423"
       x2="184.6516"
       y2="210.21423" />
    <clipPath
       id="clipPath1142"
       clipPathUnits="userSpaceOnUse">
      <path
         id="path1140"
         d="M 0,1963.966 H 2244 V 0 H 0 Z"
         inkscape:connector-curvature="0" />
    </clipPath>
    <linearGradient
       inkscape:collect="always"
       xlink:href="#SVGID_3_"
       id="linearGradient9884"
       gradientUnits="userSpaceOnUse"
       gradientTransform="matrix(1,-0.2657,0,1,-3.395229e-4,210.1581)"
       x1="799.59772"
       y1="1029.3553"
       x2="1200.403"
       y2="1029.3553" />
  </defs>
  <sodipodi:namedview
     id="base"
     pagecolor="#ffffff"
     bordercolor="#666666"
     borderopacity="1.0"
     inkscape:pageopacity="0.0"
     inkscape:pageshadow="2"
     inkscape:zoom="0.35"
     inkscape:cx="250.62117"
     inkscape:cy="846.98161"
     inkscape:document-units="mm"
     inkscape:current-layer="g13976"
     showgrid="false"
     width="1920mm"
     units="px"
     inkscape:window-width="1920"
     inkscape:window-height="1057"
     inkscape:window-x="-8"
     inkscape:window-y="-8"
     inkscape:window-maximized="1" />
  <metadata
     id="metadata5166">
    <rdf:RDF>
      <cc:Work
         rdf:about="">
        <dc:format>image/svg+xml</dc:format>
        <dc:type
           rdf:resource="http://purl.org/dc/dcmitype/StillImage" />
        <dc:title></dc:title>
      </cc:Work>
    </rdf:RDF>
  </metadata>
  <g
     inkscape:label="Layer 1"
     inkscape:groupmode="layer"
     id="layer1"
     transform="translate(0,-11.249939)">
    <g
       id="g13976"
       transform="matrix(0.87463367,0,0,0.85890114,108.00939,21.271648)">
      <g
         id="g9882"
         transform="translate(-6.7618582,-19.247343)">
        <g
           aria-label="xperium"
           transform="matrix(0.96973387,0,0,0.99417744,4.7197409,0)"
           style="font-style:normal;font-variant:normal;font-weight:normal;font-stretch:normal;font-size:22.11318588px;line-height:1.25;font-family:'Montserrat Alternates';-inkscape-font-specification:'Montserrat Alternates';font-variant-ligatures:normal;font-variant-caps:normal;font-variant-numeric:normal;text-align:start;letter-spacing:0px;word-spacing:0px;writing-mode:lr-tb;text-anchor:start;fill:#000000;fill-opacity:1;stroke:none;stroke-width:0.23034567"
           id="text13743">
          <path
             d="m 139.83508,160.1544 -3.38331,-4.48897 -3.42755,4.48897 h -2.36611 l 4.62166,-5.99267 -4.40053,-5.72731 h 2.36611 l 3.22853,4.22361 3.20641,-4.22361 h 2.32188 l -4.42263,5.72731 4.66588,5.99267 z"
             style="font-style:normal;font-variant:normal;font-weight:500;font-stretch:normal;font-size:22.11318588px;font-family:'Montserrat Alternates';-inkscape-font-specification:'Montserrat Alternates Medium';letter-spacing:-0.57512158px;stroke-width:0.23034567"
             id="path13939"
             inkscape:connector-curvature="0" />
          <path
             d="m 150.22223,148.32385 q 1.70271,0 3.05162,0.75185 1.3489,0.75185 2.10075,2.10075 0.77396,1.3489 0.77396,3.11796 0,1.76905 -0.77396,3.14007 -0.75185,1.34891 -2.10075,2.10075 -1.34891,0.75185 -3.05162,0.75185 -1.26045,0 -2.32189,-0.48649 -1.03932,-0.48649 -1.76905,-1.41524 v 6.05901 h -2.12287 v -16.00994 h 2.03442 v 1.8575 q 0.70762,-0.97298 1.79116,-1.45947 1.08355,-0.5086 2.38823,-0.5086 z m -0.17691,10.10573 q 1.12777,0 2.0123,-0.50861 0.90664,-0.53071 1.41525,-1.45947 0.53071,-0.95087 0.53071,-2.16709 0,-1.21623 -0.53071,-2.14498 -0.50861,-0.95087 -1.41525,-1.45947 -0.88453,-0.5086 -2.0123,-0.5086 -1.10566,0 -2.0123,0.53071 -0.88453,0.50861 -1.41524,1.43736 -0.50861,0.92875 -0.50861,2.14498 0,1.21622 0.50861,2.16709 0.5086,0.92876 1.41524,1.45947 0.90664,0.50861 2.0123,0.50861 z"
             style="font-style:normal;font-variant:normal;font-weight:500;font-stretch:normal;font-size:22.11318588px;font-family:'Montserrat Alternates';-inkscape-font-specification:'Montserrat Alternates Medium';letter-spacing:-0.57512158px;stroke-width:0.23034567"
             id="path13941"
             inkscape:connector-curvature="0" />
          <path
             d="m 163.7916,158.42958 q 2.10075,0 3.38332,-1.41525 l 1.14988,1.37102 q -0.77396,0.92875 -1.96807,1.41524 -1.172,0.48649 -2.63147,0.48649 -1.85751,0 -3.29487,-0.75185 -1.43735,-0.77396 -2.23343,-2.14497 -0.77396,-1.37102 -0.77396,-3.09585 0,-1.70272 0.75185,-3.07373 0.77396,-1.37102 2.10075,-2.12287 1.34891,-0.77396 3.02951,-0.77396 1.59215,0 2.89683,0.72973 1.30467,0.70763 2.07864,2.0123 0.77396,1.30468 0.79607,3.0074 l -9.30965,1.81328 q 0.44226,1.21622 1.48158,1.87962 1.06144,0.6634 2.54302,0.6634 z m -0.48649,-8.31456 q -1.10566,0 -1.99019,0.5086 -0.86241,0.5086 -1.3489,1.43736 -0.48649,0.90664 -0.48649,2.12286 v 0.22114 l 7.49637,-1.41525 q -0.28747,-1.28256 -1.28257,-2.07864 -0.99509,-0.79607 -2.38822,-0.79607 z"
             style="font-style:normal;font-variant:normal;font-weight:500;font-stretch:normal;font-size:22.11318588px;font-family:'Montserrat Alternates';-inkscape-font-specification:'Montserrat Alternates Medium';letter-spacing:-0.57512158px;stroke-width:0.23034567"
             id="path13943"
             inkscape:connector-curvature="0" />
          <path
             d="m 173.48425,150.40249 q 0.55283,-1.01721 1.63638,-1.54792 1.08354,-0.53072 2.63147,-0.53072 v 2.05653 q -0.17691,-0.0221 -0.48649,-0.0221 -1.72483,0 -2.71993,1.03932 -0.97298,1.01721 -0.97298,2.91894 v 5.83788 h -2.12286 v -11.71998 h 2.03441 z"
             style="font-style:normal;font-variant:normal;font-weight:500;font-stretch:normal;font-size:22.11318588px;font-family:'Montserrat Alternates';-inkscape-font-specification:'Montserrat Alternates Medium';letter-spacing:-0.57512158px;stroke-width:0.23034567"
             id="path13945"
             inkscape:connector-curvature="0" />
          <path
             d="m 179.77182,148.43442 h 2.12286 v 11.71998 h -2.12286 z m 1.06143,-2.25555 q -0.61917,0 -1.03932,-0.39804 -0.39804,-0.39803 -0.39804,-0.97298 0,-0.57494 0.39804,-0.97298 0.42015,-0.42015 1.03932,-0.42015 0.61917,0 1.01721,0.39804 0.42015,0.37592 0.42015,0.95087 0,0.59705 -0.42015,1.0172 -0.39804,0.39804 -1.01721,0.39804 z"
             style="font-style:normal;font-variant:normal;font-weight:500;font-stretch:normal;font-size:22.11318588px;font-family:'Montserrat Alternates';-inkscape-font-specification:'Montserrat Alternates Medium';letter-spacing:-0.57512158px;stroke-width:0.23034567"
             id="path13947"
             inkscape:connector-curvature="0" />
          <path
             d="m 196.29676,148.43442 v 11.71998 h -2.0123 v -1.76905 q -0.64129,0.90664 -1.70272,1.41524 -1.03932,0.48649 -2.27766,0.48649 -2.344,0 -3.6929,-1.28256 -1.3489,-1.30468 -1.3489,-3.82558 v -6.74452 h 2.12286 v 6.50127 q 0,1.70272 0.81819,2.58724 0.81819,0.86242 2.344,0.86242 1.6806,0 2.65358,-1.01721 0.97298,-1.0172 0.97298,-2.87471 v -6.05901 z"
             style="font-style:normal;font-variant:normal;font-weight:500;font-stretch:normal;font-size:22.11318588px;font-family:'Montserrat Alternates';-inkscape-font-specification:'Montserrat Alternates Medium';letter-spacing:-0.57512158px;stroke-width:0.23034567"
             id="path13949"
             inkscape:connector-curvature="0" />
          <path
             d="m 214.44563,148.32385 q 2.21132,0 3.49388,1.28256 1.30468,1.28257 1.30468,3.80347 v 6.74452 h -2.12287 v -6.50127 q 0,-1.70272 -0.79607,-2.56513 -0.77396,-0.86242 -2.23343,-0.86242 -1.61427,0 -2.56513,1.01721 -0.95087,0.99509 -0.95087,2.87471 v 6.0369 h -2.12287 v -6.50127 q 0,-1.70272 -0.79607,-2.56513 -0.77396,-0.86242 -2.23343,-0.86242 -1.61426,0 -2.56513,1.01721 -0.95087,0.99509 -0.95087,2.87471 v 6.0369 h -2.12286 v -11.71998 h 2.03441 v 1.74694 q 0.64128,-0.90664 1.6806,-1.37102 1.03932,-0.48649 2.36611,-0.48649 1.37102,0 2.43245,0.55283 1.06143,0.55283 1.63638,1.61426 0.66339,-1.01721 1.83539,-1.59215 1.19411,-0.57494 2.6757,-0.57494 z"
             style="font-style:normal;font-variant:normal;font-weight:500;font-stretch:normal;font-size:22.11318588px;font-family:'Montserrat Alternates';-inkscape-font-specification:'Montserrat Alternates Medium';letter-spacing:-0.57512158px;stroke-width:0.23034567"
             id="path13951"
             inkscape:connector-curvature="0" />
        </g>
        <g
           inkscape:transform-center-y="-0.50579792"
           inkscape:transform-center-x="-3.0744641"
           transform="matrix(0.0486232,0,0,0.04756258,71.370993,113.48802)"
           id="g23">
          <linearGradient
             id="linearGradient13766"
             gradientUnits="userSpaceOnUse"
             x1="799.59772"
             y1="908.38037"
             x2="1139.4113"
             y2="908.38037"
             gradientTransform="matrix(1,-0.2657,0,1,-3.395229e-4,210.1581)">
            <stop
               offset="0"
               style="stop-color:#2E3192"
               id="stop13762" />
            <stop
               offset="1"
               style="stop-color:#29ABE2"
               id="stop13764" />
          </linearGradient>
          <path
             d="m 1144.0818,733.68007 c 0,0 -34.8063,111.92246 -120.4117,133.06507 -85.60548,21.14261 -185.03726,63.74458 -190.68119,90.55874 0,0 -26.33956,-120.01792 85.60545,-156.29016 111.94504,-36.27225 225.48744,-67.33365 225.48744,-67.33365 z"
             id="path30"
             style="fill:url(#SVGID_1_);stroke-width:0.97449005"
             inkscape:connector-curvature="0" />
          <g
             transform="matrix(0.92341776,0,0,1.0283871,91.929543,-39.945763)"
             id="g32">
            <linearGradient
               id="linearGradient13773"
               gradientUnits="userSpaceOnUse"
               x1="799.59772"
               y1="787.57672"
               x2="1200.403"
               y2="787.57672"
               gradientTransform="matrix(1,-0.2657,0,1,-3.395229e-4,210.1581)">
              <stop
                 offset="0"
                 style="stop-color:#2E3192"
                 id="stop13769" />
              <stop
                 offset="1"
                 style="stop-color:#29ABE2"
                 id="stop13771" />
            </linearGradient>
            <path
               d="m 1200.403,615.762 c 0,0 -37.693,108.833 -130.397,129.392 -92.705,20.559 -261.374,77.604 -267.487,103.678 0,0 -28.524,-116.705 92.705,-151.976 121.229,-35.271 305.179,-81.094 305.179,-81.094 z"
               id="path39"
               style="fill:url(#SVGID_2_)"
               inkscape:connector-curvature="0" />
            <linearGradient
               id="linearGradient13780"
               gradientUnits="userSpaceOnUse"
               x1="799.59772"
               y1="1029.3553"
               x2="1200.403"
               y2="1029.3553"
               gradientTransform="matrix(1,-0.2657,0,1,-3.395229e-4,210.1581)">
              <stop
                 offset="0"
                 style="stop-color:#2E3192"
                 id="stop13776" />
              <stop
                 offset="1"
                 style="stop-color:#29ABE2"
                 id="stop13778" />
            </linearGradient>
            <path
               d="m 1200.403,857.541 c 0,0 -37.693,108.833 -130.397,129.392 -92.705,20.559 -261.374,77.604 -267.487,103.678 0,0 -28.524,-116.705 92.705,-151.975 121.229,-35.27 305.179,-81.095 305.179,-81.095 z"
               id="path46"
               style="fill:url(#linearGradient9884)"
               inkscape:connector-curvature="0" />
          </g>
        </g>
        <g
           transform="matrix(0.85592105,0,0,0.89834643,16.774591,12.241807)"
           id="g9748">
          <text
             xml:space="preserve"
             style="font-style:normal;font-variant:normal;font-weight:300;font-stretch:normal;font-size:8.14041424px;line-height:1.25;font-family:Poppins;-inkscape-font-specification:'Poppins Light';letter-spacing:0px;word-spacing:0px;fill:#000000;fill-opacity:1;stroke:none;stroke-width:0.30526555"
             x="129.40768"
             y="177.04787"
             id="text9716"
             transform="scale(0.99096538,1.009117)"><tspan
               sodipodi:role="line"
               id="tspan9714"
               x="129.40768"
               y="177.04787"
               style="font-style:normal;font-variant:normal;font-weight:300;font-stretch:normal;font-size:8.14041424px;font-family:Poppins;-inkscape-font-specification:'Poppins Light';stroke-width:0.30526555">Your                          live here.</tspan></text>
          <text
             xml:space="preserve"
             style="font-style:normal;font-variant:normal;font-weight:600;font-stretch:normal;font-size:8.14041424px;line-height:1.25;font-family:Poppins;-inkscape-font-specification:'Poppins Semi-Bold';letter-spacing:0px;word-spacing:0px;fill:url(#linearGradient9750);fill-opacity:1;stroke:none;stroke-width:0.30526555"
             x="148.98505"
             y="177.24963"
             id="text9716-6"
             transform="scale(0.99096538,1.009117)"><tspan
               sodipodi:role="line"
               id="tspan9714-7"
               x="148.98505"
               y="177.24963"
               style="font-style:normal;font-variant:normal;font-weight:600;font-stretch:normal;font-size:8.14041424px;font-family:Poppins;-inkscape-font-specification:'Poppins Semi-Bold';fill:url(#linearGradient9750);fill-opacity:1;stroke-width:0.30526555">Experiences</tspan></text>
        </g>
        <g
           transform="matrix(0.97476747,0.2273115,-0.21920748,0.97476747,16.282186,-4.2447909)"
           id="g9829">
          <ellipse
             ry="18.734188"
             rx="19.085957"
             cy="94.884094"
             cx="232.09995"
             id="path4199"
             style="fill:#ffffff;fill-opacity:0.51254482;stroke:none;stroke-width:1.30922914;stroke-miterlimit:4;stroke-dasharray:none" />
          <g
             style="fill:#808080"
             transform="matrix(0.09475298,0,0,-0.09202758,231.80629,113.64192)"
             id="g1040">
            <path
               id="path1042"
               style="fill:#808080;fill-opacity:1;fill-rule:nonzero;stroke:none"
               d="m 0,0 c -45.454,0 -88.503,14.571 -124.493,42.141 -34.845,26.691 -60.624,64.512 -72.586,106.493 -0.363,1.275 0.375,2.603 1.65,2.966 1.275,0.362 2.603,-0.375 2.966,-1.65 C -168.111,64.488 -88.967,4.8 0,4.8 c 88.965,0 168.108,59.688 192.462,145.15 0.363,1.275 1.691,2.013 2.966,1.65 1.275,-0.363 2.013,-1.691 1.65,-2.966 C 185.115,106.652 159.336,68.832 124.492,42.141 88.502,14.571 45.454,0 0,0"
               inkscape:connector-curvature="0" />
          </g>
          <g
             style="fill:#808080"
             transform="matrix(0.09475298,0,0,-0.09202758,250.26125,89.889379)"
             id="g1044">
            <path
               id="path1046"
               style="fill:#808080;fill-opacity:1;fill-rule:nonzero;stroke:none"
               d="m 0,0 c -1.045,0 -2.007,0.688 -2.307,1.744 -24.352,85.464 -103.495,145.153 -192.462,145.153 -88.968,0 -168.112,-59.689 -192.463,-145.153 -0.363,-1.275 -1.691,-2.014 -2.966,-1.651 -1.275,0.364 -2.013,1.691 -1.65,2.966 11.962,41.983 37.74,79.803 72.585,106.496 35.99,27.57 79.039,42.142 124.494,42.142 45.455,0 88.503,-14.572 124.493,-42.142 C -35.431,82.862 -9.653,45.042 2.309,3.059 2.672,1.784 1.934,0.457 0.659,0.093 0.439,0.03 0.218,0 0,0"
               inkscape:connector-curvature="0" />
          </g>
          <g
             style="fill:#3366cc"
             transform="matrix(0.09475298,0,0,-0.09202758,231.80638,112.04991)"
             id="g1048">
            <path
               id="path1050"
               style="fill:#3366cc;fill-opacity:1;fill-rule:nonzero;stroke:none"
               d="m 0,0 c -40.861,0 -79.701,12.907 -112.319,37.328 -31.54,23.611 -55.3,57.233 -66.903,94.669 -0.261,0.844 0.211,1.74 1.055,2.002 0.844,0.261 1.74,-0.211 2.002,-1.055 C -152.113,55.341 -81.318,3.201 0,3.201 c 81.319,0 152.113,52.14 176.162,129.743 0.261,0.843 1.157,1.316 2.002,1.055 0.843,-0.262 1.316,-1.158 1.054,-2.002 C 167.617,94.561 143.858,60.94 112.318,37.328 79.7,12.907 40.861,0 0,0"
               inkscape:connector-curvature="0" />
          </g>
          <g
             style="fill:#3366cc"
             transform="matrix(0.09475298,0,0,-0.09202758,214.96937,89.859617)"
             id="g1052">
            <path
               id="path1054"
               style="fill:#3366cc;fill-opacity:1;fill-rule:nonzero;stroke:none"
               d="m 0,0 c -0.157,0 -0.316,0.023 -0.474,0.072 -0.844,0.262 -1.317,1.158 -1.055,2.002 11.603,37.438 35.363,71.06 66.903,94.672 32.618,24.42 71.458,37.328 112.32,37.328 40.862,0 79.701,-12.908 112.319,-37.328 31.54,-23.613 55.3,-57.234 66.901,-94.672 0.261,-0.844 -0.211,-1.74 -1.055,-2.002 -0.844,-0.261 -1.74,0.211 -2.002,1.055 C 329.808,78.732 259.014,130.874 177.694,130.874 96.375,130.874 25.58,78.732 1.528,1.127 1.315,0.44 0.683,0 0,0"
               inkscape:connector-curvature="0" />
          </g>
          <text
             y="103.98437"
             x="217.56906"
             id="text1118"
             style="font-variant:normal;font-weight:normal;font-stretch:normal;font-size:6.00086021px;font-family:Raleway;-inkscape-font-specification:Raleway-Regular;writing-mode:lr-tb;fill:#808080;fill-opacity:1;fill-rule:nonzero;stroke:none;stroke-width:0.23080231"
             transform="scale(1.016962,0.98332092)">
            <tspan
               style="fill:#808080;stroke-width:0.23080231"
               y="103.98437"
               x="217.56906"
               id="tspan1116">Version</tspan>
          </text>
          <text
             y="98.208763"
             x="212.84966"
             id="text1134"
             style="font-style:italic;font-variant:normal;font-weight:bold;font-stretch:normal;font-size:10.33765125px;font-family:'Nickainley Normal';-inkscape-font-specification:'Nickainley Normal, Bold Italic';writing-mode:lr-tb;fill:#404040;fill-opacity:1;fill-rule:nonzero;stroke:none;stroke-width:0.09230045"
             transform="scale(1.0164215,0.98384379)">
            <tspan
               style="font-style:italic;font-variant:normal;font-weight:bold;font-stretch:normal;font-family:'Nickainley Normal';-inkscape-font-specification:'Nickainley Normal, Bold Italic';fill:#404040;stroke-width:0.09230045"
               y="98.208763"
               x="212.84966"
               id="tspan1132">BETA</tspan>
          </text>
          <g
             style="fill:#808080"
             id="g1136"
             transform="matrix(0.09475298,0,0,-0.09202758,124.01706,188.7579)">
            <g
               style="fill:#808080"
               clip-path="url(#clipPath1142)"
               id="g1138">
              <g
                 style="fill:#808080"
                 transform="translate(1287.1382,963.2734)"
                 id="g1144">
                <path
                   id="path1146"
                   style="fill:#808080;fill-opacity:1;fill-rule:nonzero;stroke:none"
                   d="m 0,0 c -0.14,0 -0.281,0.022 -0.42,0.073 -0.654,0.232 -0.997,0.949 -0.765,1.605 l 0.165,0.468 c 0.229,0.655 0.947,1 1.603,0.77 0.654,-0.229 1,-0.946 0.77,-1.602 L 1.185,0.837 C 1.002,0.322 0.518,0 0,0 m -3.84,-9.771 c -0.167,0 -0.336,0.033 -0.498,0.103 -0.638,0.274 -0.931,1.014 -0.656,1.652 l 0.197,0.457 c 0.274,0.638 1.012,0.934 1.651,0.66 0.638,-0.274 0.934,-1.013 0.66,-1.651 l -0.2,-0.463 C -2.891,-9.487 -3.354,-9.771 -3.84,-9.771 m -4.492,-9.491 c -0.194,0 -0.391,0.045 -0.575,0.14 -0.617,0.317 -0.859,1.077 -0.541,1.693 l 0.226,0.442 c 0.316,0.618 1.074,0.863 1.692,0.548 0.618,-0.317 0.863,-1.074 0.547,-1.692 l -0.23,-0.45 c -0.224,-0.433 -0.663,-0.681 -1.119,-0.681 m -5.121,-9.165 c -0.221,0 -0.445,0.059 -0.648,0.181 -0.595,0.359 -0.785,1.132 -0.426,1.726 l 0.255,0.425 c 0.357,0.596 1.129,0.789 1.725,0.432 0.595,-0.356 0.789,-1.128 0.432,-1.724 l -0.26,-0.432 c -0.236,-0.391 -0.652,-0.608 -1.078,-0.608 m -5.724,-8.801 c -0.249,0 -0.5,0.074 -0.72,0.228 -0.569,0.397 -0.707,1.182 -0.309,1.75 l 0.283,0.407 c 0.396,0.571 1.179,0.712 1.75,0.316 0.57,-0.396 0.712,-1.18 0.316,-1.75 l -0.289,-0.413 c -0.245,-0.35 -0.635,-0.538 -1.031,-0.538 m -6.301,-8.396 c -0.276,0 -0.556,0.09 -0.788,0.278 -0.541,0.435 -0.626,1.226 -0.191,1.767 l 0.31,0.386 c 0.433,0.544 1.224,0.631 1.767,0.198 0.543,-0.432 0.631,-1.223 0.198,-1.766 l -0.316,-0.394 c -0.248,-0.308 -0.612,-0.469 -0.98,-0.469 m -6.849,-7.957 c -0.303,0 -0.609,0.11 -0.85,0.331 -0.511,0.472 -0.545,1.267 -0.074,1.778 l 0.336,0.366 c 0.469,0.512 1.264,0.547 1.776,0.078 0.513,-0.469 0.547,-1.264 0.078,-1.777 l -0.34,-0.37 c -0.248,-0.269 -0.586,-0.406 -0.926,-0.406"
                   inkscape:connector-curvature="0" />
              </g>
              <g
                 style="fill:#808080"
                 transform="translate(989.6899,958.7949)"
                 id="g1148">
                <path
                   id="path1150"
                   style="fill:#808080;fill-opacity:1;fill-rule:nonzero;stroke:none"
                   d="m 0,0 c -0.503,0 -0.978,0.303 -1.172,0.801 l -0.182,0.47 c -0.25,0.648 0.074,1.375 0.722,1.625 0.648,0.25 1.375,-0.074 1.625,-0.722 L 1.171,1.713 C 1.423,1.066 1.103,0.338 0.456,0.086 0.306,0.027 0.152,0 0,0 m 4.138,-9.646 c -0.472,0 -0.925,0.268 -1.138,0.723 l -0.214,0.456 c -0.293,0.63 -0.02,1.378 0.61,1.671 0.629,0.293 1.377,0.019 1.67,-0.61 L 5.275,-7.854 C 5.571,-8.482 5.3,-9.231 4.672,-9.528 4.499,-9.608 4.317,-9.646 4.138,-9.646 m 4.78,-9.345 c -0.442,0 -0.871,0.233 -1.1,0.647 l -0.244,0.442 c -0.335,0.609 -0.113,1.373 0.496,1.707 0.608,0.334 1.373,0.112 1.707,-0.496 l 0.239,-0.433 c 0.337,-0.606 0.118,-1.372 -0.489,-1.709 -0.194,-0.107 -0.402,-0.158 -0.609,-0.158 m 5.397,-9.003 c -0.412,0 -0.816,0.202 -1.056,0.575 l -0.274,0.422 c -0.374,0.586 -0.204,1.364 0.38,1.738 0.585,0.375 1.362,0.205 1.737,-0.379 l 0.268,-0.416 c 0.377,-0.584 0.21,-1.362 -0.373,-1.738 -0.211,-0.138 -0.448,-0.202 -0.682,-0.202 m 5.99,-8.621 c -0.384,0 -0.762,0.175 -1.009,0.506 l -0.301,0.405 c -0.413,0.557 -0.295,1.346 0.263,1.758 0.557,0.412 1.345,0.296 1.758,-0.262 l 0.296,-0.397 c 0.415,-0.558 0.3,-1.345 -0.257,-1.761 -0.225,-0.168 -0.489,-0.249 -0.75,-0.249 m 6.552,-8.2 c -0.354,0 -0.707,0.148 -0.955,0.439 l -0.327,0.383 c -0.45,0.531 -0.386,1.324 0.143,1.772 0.53,0.45 1.323,0.386 1.773,-0.143 l 0.321,-0.378 c 0.452,-0.527 0.39,-1.321 -0.138,-1.772 -0.237,-0.203 -0.528,-0.301 -0.817,-0.301 m 7.086,-7.746 c -0.326,0 -0.652,0.127 -0.898,0.378 l -0.353,0.362 c -0.484,0.499 -0.471,1.295 0.027,1.778 0.498,0.483 1.294,0.472 1.778,-0.027 l 0.345,-0.354 c 0.486,-0.496 0.477,-1.293 -0.019,-1.778 -0.245,-0.239 -0.562,-0.359 -0.88,-0.359"
                   inkscape:connector-curvature="0" />
              </g>
              <g
                 style="fill:#808080"
                 transform="translate(1234.7178,1144.2769)"
                 id="g1152">
                <path
                   id="path1154"
                   style="fill:#808080;fill-opacity:1;fill-rule:nonzero;stroke:none"
                   d="M 0,0 C -0.278,0 -0.558,0.091 -0.791,0.28 L -1.177,0.592 C -1.717,1.027 -1.803,1.819 -1.367,2.36 -0.932,2.9 -0.14,2.985 0.4,2.55 L 0.792,2.233 C 1.332,1.796 1.415,1.004 0.978,0.465 0.729,0.158 0.366,0 0,0 m 7.93,-6.88 c -0.307,0 -0.614,0.111 -0.856,0.336 L 6.71,-6.208 c -0.51,0.471 -0.542,1.267 -0.071,1.776 0.47,0.512 1.266,0.543 1.776,0.073 l 0.37,-0.343 C 9.294,-5.175 9.323,-5.97 8.851,-6.479 8.603,-6.745 8.267,-6.88 7.93,-6.88 m 7.449,-7.397 c -0.334,0 -0.668,0.133 -0.915,0.396 l -0.341,0.36 c -0.477,0.504 -0.456,1.3 0.048,1.777 0.504,0.477 1.3,0.456 1.777,-0.048 l 0.346,-0.366 c 0.477,-0.506 0.453,-1.3 -0.053,-1.778 -0.243,-0.228 -0.553,-0.341 -0.862,-0.341 m 6.937,-7.88 c -0.362,0 -0.723,0.157 -0.971,0.459 l -0.316,0.383 c -0.443,0.534 -0.368,1.327 0.167,1.77 0.534,0.442 1.327,0.367 1.77,-0.167 l 0.321,-0.389 c 0.441,-0.537 0.363,-1.329 -0.173,-1.77 -0.234,-0.192 -0.516,-0.286 -0.798,-0.286 m 6.393,-8.327 c -0.392,0 -0.778,0.181 -1.023,0.525 l -0.29,0.403 c -0.406,0.564 -0.278,1.349 0.286,1.754 0.563,0.406 1.349,0.279 1.755,-0.284 l 0.293,-0.41 c 0.404,-0.565 0.274,-1.35 -0.291,-1.754 -0.221,-0.158 -0.477,-0.234 -0.73,-0.234 m 5.817,-8.74 c -0.422,0 -0.833,0.212 -1.07,0.597 l -0.262,0.42 c -0.367,0.591 -0.187,1.365 0.403,1.732 0.589,0.368 1.365,0.187 1.732,-0.403 l 0.265,-0.429 c 0.365,-0.589 0.182,-1.364 -0.408,-1.729 -0.206,-0.128 -0.435,-0.188 -0.66,-0.188 m 5.214,-9.112 c -0.451,0 -0.887,0.244 -1.112,0.67 l -0.232,0.438 c -0.327,0.613 -0.095,1.374 0.518,1.701 0.613,0.327 1.374,0.094 1.7,-0.518 l 0.237,-0.446 c 0.324,-0.615 0.089,-1.376 -0.524,-1.699 -0.188,-0.1 -0.389,-0.146 -0.587,-0.146 m 4.586,-9.444 c -0.482,0 -0.941,0.278 -1.15,0.746 l -0.202,0.454 c -0.284,0.633 0,1.377 0.633,1.662 0.633,0.283 1.377,0 1.662,-0.634 l 0.205,-0.46 c 0.282,-0.635 -0.004,-1.379 -0.638,-1.659 -0.166,-0.075 -0.339,-0.109 -0.51,-0.109"
                   inkscape:connector-curvature="0" />
              </g>
              <g
                 style="fill:#808080"
                 transform="translate(1034.3042,1141.0991)"
                 id="g1156">
                <path
                   id="path1158"
                   style="fill:#808080;fill-opacity:1;fill-rule:nonzero;stroke:none"
                   d="m 0,0 c -0.353,0 -0.703,0.147 -0.952,0.435 -0.454,0.525 -0.396,1.319 0.129,1.773 l 0.382,0.329 C 0.085,2.989 0.879,2.929 1.332,2.402 1.784,1.876 1.724,1.082 1.197,0.63 L 0.821,0.306 C 0.584,0.101 0.292,0 0,0 m -7.708,-7.127 c -0.324,0 -0.648,0.124 -0.894,0.373 -0.488,0.494 -0.483,1.29 0.01,1.778 l 0.36,0.353 c 0.495,0.487 1.291,0.48 1.777,-0.016 0.487,-0.495 0.479,-1.292 -0.017,-1.778 l -0.352,-0.347 c -0.245,-0.242 -0.565,-0.363 -0.884,-0.363 m -7.212,-7.63 c -0.296,0 -0.594,0.104 -0.832,0.316 -0.52,0.46 -0.569,1.253 -0.11,1.774 l 0.335,0.378 c 0.461,0.518 1.256,0.565 1.775,0.104 0.519,-0.461 0.565,-1.257 0.104,-1.775 l -0.33,-0.372 c -0.248,-0.281 -0.594,-0.425 -0.942,-0.425 m -6.684,-8.095 c -0.268,0 -0.538,0.085 -0.767,0.262 -0.549,0.423 -0.652,1.213 -0.228,1.763 l 0.308,0.399 c 0.425,0.549 1.215,0.647 1.764,0.222 0.549,-0.425 0.649,-1.215 0.223,-1.764 l -0.303,-0.392 c -0.248,-0.321 -0.621,-0.49 -0.997,-0.49 m -6.125,-8.527 c -0.24,0 -0.482,0.068 -0.697,0.212 -0.577,0.386 -0.733,1.166 -0.347,1.744 l 0.28,0.418 c 0.388,0.577 1.169,0.73 1.745,0.342 0.577,-0.387 0.729,-1.169 0.342,-1.745 l -0.276,-0.413 c -0.243,-0.362 -0.641,-0.558 -1.047,-0.558 m -5.536,-8.92 c -0.212,0 -0.427,0.053 -0.625,0.166 -0.602,0.347 -0.81,1.115 -0.464,1.717 l 0.252,0.437 c 0.348,0.601 1.117,0.806 1.718,0.458 0.601,-0.347 0.806,-1.117 0.459,-1.717 l -0.248,-0.431 c -0.233,-0.404 -0.657,-0.63 -1.092,-0.63 m -4.92,-9.275 c -0.185,0 -0.373,0.041 -0.55,0.128 -0.624,0.304 -0.884,1.057 -0.579,1.681 l 0.222,0.453 c 0.306,0.623 1.06,0.88 1.683,0.573 0.623,-0.307 0.88,-1.06 0.573,-1.683 l -0.218,-0.446 c -0.218,-0.445 -0.666,-0.706 -1.131,-0.706"
                   inkscape:connector-curvature="0" />
              </g>
            </g>
          </g>
        </g>
      </g>
    </g>
  </g>
</svg>
