<?xml version="1.0" encoding="UTF-8" standalone="no"?>
<svg
   xmlns:dc="http://purl.org/dc/elements/1.1/"
   xmlns:cc="http://creativecommons.org/ns#"
   xmlns:rdf="http://www.w3.org/1999/02/22-rdf-syntax-ns#"
   xmlns:svg="http://www.w3.org/2000/svg"
   xmlns="http://www.w3.org/2000/svg"
   xmlns:xlink="http://www.w3.org/1999/xlink"
   xml:space="preserve"
   style="enable-background:new 0 0 30 30;"
   viewBox="0 0 30 30"
   y="0px"
   x="0px"
   id="Layer_1"
   version="1.1"><metadata
     id="metadata13"><rdf:RDF><cc:Work
         rdf:about=""><dc:format>image/svg+xml</dc:format><dc:type
           rdf:resource="http://purl.org/dc/dcmitype/StillImage" /><dc:title></dc:title></cc:Work></rdf:RDF></metadata><defs
     id="defs11"><linearGradient
       id="linearGradient4761"><stop
         style="stop-color:#2e3192;stop-opacity:1"
         offset="0"
         id="stop4757" /><stop
         style="stop-color:#29abe2;stop-opacity:1"
         offset="1"
         id="stop4759" /></linearGradient><linearGradient
       id="linearGradient4751"><stop
         id="stop4747"
         offset="0"
         style="stop-color:#6699ff;stop-opacity:1;" /><stop
         id="stop4749"
         offset="1"
         style="stop-color:#6699ff;stop-opacity:0;" /></linearGradient><linearGradient
       gradientUnits="userSpaceOnUse"
       y2="18.083252"
       x2="24.873058"
       y1="17.94438"
       x1="4.8639536"
       id="linearGradient4753"
       xlink:href="#linearGradient4761" /><linearGradient
       gradientUnits="userSpaceOnUse"
       y2="27.943064"
       x2="36.468754"
       y1="5.0013165"
       x1="1.1109649"
       id="linearGradient4755"
       xlink:href="#linearGradient4751" /><linearGradient
       gradientUnits="userSpaceOnUse"
       y2="15"
       x2="30"
       y1="15"
       x1="0"
       id="linearGradient4802"
       xlink:href="#linearGradient4761" /></defs><g
     style="fill:url(#linearGradient4755);fill-opacity:1"
     id="g3"><path
       d="m 8.34,18.939 1.792,-0.448 c 0.156,-0.039 0.283,-0.15 0.343,-0.299 0.06,-0.149 0.044,-0.318 -0.042,-0.453 C 10.079,17.178 9.809,16.572 9.632,15.939 9.601,15.828 9.532,15.731 9.438,15.664 8.9,15.287 8.545,14.698 8.464,14.05 L 8.257,12.397 C 8.174,11.735 8.38,11.069 8.878,10.507 8.976,10.403 9.025,10.261 9.012,10.119 8.98,9.776 8.955,9.443 8.955,9.218 8.955,8.685 9.026,8.178 9.173,7.67 9.207,7.551 9.196,7.424 9.142,7.313 L 8.78,6.569 C 8.688,6.38 8.493,6.271 8.277,6.291 7.638,6.36 7.093,6.544 6.617,6.852 3.933,6.928 3.585,8.271 3.585,9.442 c 0,0.245 0.05,0.74 0.092,1.108 -0.126,0.063 -0.241,0.149 -0.336,0.257 -0.208,0.236 -0.305,0.551 -0.266,0.862 l 0.149,1.195 c 0.051,0.412 0.328,0.749 0.739,0.89 0.142,0.785 0.519,1.549 1.057,2.138 L 4.868,16.501 2.695,17.044 C 1.109,17.441 0,18.862 0,20.5 0,20.776 0.224,21 0.5,21 h 4.468 c 0.148,0 0.288,-0.065 0.383,-0.179 0.788,-0.939 1.822,-1.59 2.989,-1.882 z m 13.077,0.971 -3.114,-0.778 -0.245,-0.979 c 0.828,-0.835 1.398,-1.967 1.58,-3.131 0.477,-0.156 0.839,-0.576 0.904,-1.096 l 0.207,-1.652 C 20.796,11.9 20.681,11.524 20.434,11.24 20.303,11.09 20.141,10.973 19.962,10.895 L 20.033,9.435 20.32,9.148 C 20.807,8.63 21.212,7.745 20.374,6.466 19.738,5.493 18.661,5 17.173,5 c -0.58,0 -1.91,0 -3.158,0.829 -3.571,0.083 -4.058,1.756 -4.058,3.389 0,0.358 0.083,1.141 0.142,1.651 -0.2,0.076 -0.381,0.199 -0.526,0.363 -0.251,0.285 -0.369,0.665 -0.322,1.042 l 0.207,1.652 c 0.069,0.556 0.479,0.997 1.003,1.124 0.181,1.117 0.721,2.209 1.5,3.028 L 11.698,19.132 8.584,19.91 C 6.473,20.437 5,22.324 5,24.5 5,24.776 5.224,25 5.5,25 h 19 c 0.276,0 0.5,-0.226 0.5,-0.502 0,-2.174 -1.473,-4.061 -3.583,-4.588 z m 5.778,-2.921 -2.284,-0.556 -0.146,-0.568 c 0.598,-0.611 1.014,-1.416 1.165,-2.249 0.369,-0.146 0.645,-0.481 0.698,-0.89 l 0.156,-1.217 c 0.04,-0.31 -0.056,-0.623 -0.261,-0.859 -0.093,-0.107 -0.205,-0.195 -0.329,-0.259 L 26.241,9.46 26.424,9.282 C 26.754,8.94 27.2,8.207 26.479,7.135 25.973,6.382 25.125,6 23.958,6 23.356,6 22.828,6.079 22.341,6.242 22.212,6.285 22.106,6.38 22.048,6.503 L 21.823,6.98 C 21.777,7.077 21.764,7.187 21.785,7.292 21.967,8.201 21.74,9.05 21.128,9.746 21.053,9.831 21.009,9.94 21.004,10.053 L 21,10.158 c -0.006,0.128 0.104,0.328 0.188,0.425 0.434,0.498 0.636,1.16 0.554,1.816 l -0.207,1.651 c -0.077,0.614 -0.389,1.163 -0.879,1.545 -0.085,0.066 -0.147,0.159 -0.175,0.264 -0.181,0.669 -0.462,1.308 -0.838,1.898 -0.086,0.136 -0.102,0.305 -0.042,0.454 0.06,0.149 0.187,0.261 0.343,0.3 l 1.716,0.429 c 1.167,0.292 2.201,0.943 2.99,1.883 C 24.745,20.935 24.885,21 25.033,21 H 29.5 c 0.276,0 0.5,-0.225 0.5,-0.501 0,-1.665 -1.153,-3.108 -2.805,-3.51 z"
       id="path7"
       style="fill:url(#linearGradient4802);fill-opacity:1.0" /></g><path
     id="path13793"
     d="M 5.1827502,24.874896 C 5.0035345,24.72074 4.9918629,24.677817 5.0081073,24.232619 c 0.044268,-1.213222 0.6332532,-2.430738 1.5901765,-3.287123 0.6794754,-0.608087 1.4111421,-0.912584 3.3503021,-1.39429 0.9349801,-0.232257 1.7107071,-0.43303 1.7238381,-0.44616 0.01313,-0.01313 0.08135,-0.247315 0.151595,-0.52041 L 11.951739,18.0881 11.761264,17.866666 C 11.163806,17.172097 10.688142,16.198485 10.476519,15.236982 10.453652,15.133083 10.372134,15.030547 10.29224,15.00519 10.091736,14.941553 9.6837222,14.571043 9.5682544,14.347753 9.4573015,14.133194 9.2554339,12.700061 9.2554339,12.126925 c 0,-0.481356 0.1609855,-0.800326 0.5440954,-1.078048 C 10.033003,10.879629 10.080825,10.808023 10.05458,10.666983 10.036814,10.57151 10.00129,10.098123 9.9756375,9.6150122 9.9026398,8.2402347 10.089681,7.5489292 10.712942,6.8899219 11.27882,6.2915896 12.150588,5.960904 13.490987,5.8361331 13.879045,5.8000108 14.133212,5.7268889 14.48838,5.54919 c 0.785628,-0.3930673 1.395098,-0.5223971 2.50909,-0.5324294 1.078092,-0.00971 1.482678,0.062264 2.173751,0.3866971 0.893142,0.4192965 1.610487,1.4195491 1.668213,2.3261256 0.03604,0.5660474 -0.116668,0.9831317 -0.516458,1.4105392 l -0.296597,0.3170862 -0.01329,0.7155973 c -0.01296,0.6975 -0.0088,0.718543 0.164256,0.832069 0.267342,0.175374 0.452154,0.44259 0.540319,0.781238 0.06458,0.248045 0.05269,0.500849 -0.06432,1.367613 -0.16226,1.201993 -0.25225,1.413512 -0.745856,1.753122 -0.204349,0.140595 -0.306502,0.26152 -0.307122,0.36356 -0.0016,0.269706 -0.390762,1.283279 -0.678371,1.766995 -0.153359,0.257926 -0.407201,0.614633 -0.564093,0.792681 l -0.285257,0.323724 0.114621,0.477591 0.114623,0.477592 1.762118,0.44178 c 1.926133,0.4829 2.547673,0.73025 3.205773,1.275778 0.719977,0.596821 1.263392,1.408896 1.531249,2.288288 0.164148,0.538909 0.254979,1.275322 0.189487,1.536264 -0.102826,0.409692 0.431212,0.38899 -10.034067,0.38899 l -9.5816471,0 -0.1920507,-0.165195 z"
     style="opacity:1;fill:url(#linearGradient4753);fill-opacity:1;fill-rule:nonzero;stroke:none;stroke-width:0.16088159;stroke-linecap:round;stroke-linejoin:round;stroke-miterlimit:4;stroke-dasharray:none;stroke-opacity:1" /></svg>