<?xml version="1.0" encoding="UTF-8" standalone="no"?>
<!-- Generator: Adobe Illustrator 19.0.0, SVG Export Plug-In . SVG Version: 6.00 Build 0)  -->

<svg
   xmlns:dc="http://purl.org/dc/elements/1.1/"
   xmlns:cc="http://creativecommons.org/ns#"
   xmlns:rdf="http://www.w3.org/1999/02/22-rdf-syntax-ns#"
   xmlns:svg="http://www.w3.org/2000/svg"
   xmlns="http://www.w3.org/2000/svg"
   xmlns:sodipodi="http://sodipodi.sourceforge.net/DTD/sodipodi-0.dtd"
   xmlns:inkscape="http://www.inkscape.org/namespaces/inkscape"
   version="1.1"
   id="Layer_1"
   x="0px"
   y="0px"
   viewBox="0 0 24 24"
   style="enable-background:new 0 0 24 24;"
   xml:space="preserve"
   inkscape:version="0.91 r13725"
   sodipodi:docname="Landing Page Icon.svg"><metadata
     id="metadata29"><rdf:RDF><cc:Work
         rdf:about=""><dc:format>image/svg+xml</dc:format><dc:type
           rdf:resource="http://purl.org/dc/dcmitype/StillImage" /><dc:title /></cc:Work></rdf:RDF></metadata><defs
     id="defs27" /><sodipodi:namedview
     pagecolor="#ffffff"
     bordercolor="#666666"
     borderopacity="1"
     objecttolerance="10"
     gridtolerance="10"
     guidetolerance="10"
     inkscape:pageopacity="0"
     inkscape:pageshadow="2"
     inkscape:window-width="1920"
     inkscape:window-height="1057"
     id="namedview25"
     showgrid="false"
     inkscape:zoom="17.315752"
     inkscape:cx="0.63344983"
     inkscape:cy="11.74344"
     inkscape:window-x="-8"
     inkscape:window-y="1493"
     inkscape:window-maximized="1"
     inkscape:current-layer="Layer_1" /><g
     id="g13798"
     transform="matrix(1.5510636,0,0,1.5476854,-1.4763318,-11.685765)"><path
       d="m 7.6522449,9.2104206 -4.42061,0 c -0.3050221,0 -0.5525762,0.2469339 -0.5525762,0.5511917 l 0,4.4095327 c 0,0.304258 0.2475541,0.551192 0.5525762,0.551192 l 4.42061,0 c 0.3050221,0 0.5525762,-0.246934 0.5525762,-0.551192 l 0,-4.4095327 c 0,-0.3042578 -0.2475541,-0.5511917 -0.5525762,-0.5511917 z m -0.5525763,4.4095334 -3.3154575,0 0,-3.30715 3.3154575,0 0,3.30715 z"
       id="path13"
       inkscape:connector-curvature="0" /><path
       d="m 7.6522449,15.82472 -4.42061,0 c -0.3050221,0 -0.5525762,0.246934 -0.5525762,0.551192 l 0,4.409533 c 0,0.304258 0.2475541,0.551192 0.5525762,0.551192 l 4.42061,0 c 0.3050221,0 0.5525762,-0.246934 0.5525762,-0.551192 l 0,-4.409533 c 0,-0.304258 -0.2475541,-0.551192 -0.5525762,-0.551192 z m -0.5525763,4.409534 -3.3154575,0 0,-3.30715 3.3154575,0 0,3.30715 z"
       id="path15"
       inkscape:connector-curvature="0" /><path
       d="m 14.28316,9.2104206 -4.4206101,0 c -0.3050221,0 -0.5525762,0.2469339 -0.5525762,0.5511917 l 0,4.4095327 c 0,0.304258 0.2475541,0.551192 0.5525762,0.551192 l 4.4206101,0 c 0.305022,0 0.552576,-0.246934 0.552576,-0.551192 l 0,-4.4095327 c 0,-0.3042578 -0.247554,-0.5511917 -0.552576,-0.5511917 z m -0.552576,4.4095334 -3.315458,0 0,-3.30715 3.315458,0 0,3.30715 z"
       id="path17"
       inkscape:connector-curvature="0" /><path
       d="m 14.28316,15.82472 -4.4206101,0 c -0.3050221,0 -0.5525762,0.246934 -0.5525762,0.551192 l 0,4.409533 c 0,0.304258 0.2475541,0.551192 0.5525762,0.551192 l 4.4206101,0 c 0.305022,0 0.552576,-0.246934 0.552576,-0.551192 l 0,-4.409533 c 0,-0.304258 -0.247554,-0.551192 -0.552576,-0.551192 z m -0.552576,4.409534 -3.315458,0 0,-3.30715 3.315458,0 0,3.30715 z"
       id="path19"
       inkscape:connector-curvature="0" /></g></svg>