<?xml version="1.0" encoding="UTF-8" standalone="no"?>
<!-- Generator: Adobe Illustrator 19.0.0, SVG Export Plug-In . SVG Version: 6.00 Build 0)  -->

<svg
   xmlns:dc="http://purl.org/dc/elements/1.1/"
   xmlns:cc="http://creativecommons.org/ns#"
   xmlns:rdf="http://www.w3.org/1999/02/22-rdf-syntax-ns#"
   xmlns:svg="http://www.w3.org/2000/svg"
   xmlns="http://www.w3.org/2000/svg"
   xmlns:sodipodi="http://sodipodi.sourceforge.net/DTD/sodipodi-0.dtd"
   xmlns:inkscape="http://www.inkscape.org/namespaces/inkscape"
   version="1.1"
   id="Layer_1"
   x="0px"
   y="0px"
   viewBox="0 0 15 24"
   xml:space="preserve"
   inkscape:version="0.91 r13725"
   sodipodi:docname="Mobile JL.svg"
   width="15"
   height="24"><metadata
     id="metadata13"><rdf:RDF><cc:Work
         rdf:about=""><dc:format>image/svg+xml</dc:format><dc:type
           rdf:resource="http://purl.org/dc/dcmitype/StillImage" /><dc:title></dc:title></cc:Work></rdf:RDF></metadata><defs
     id="defs11" /><sodipodi:namedview
     pagecolor="#ffffff"
     bordercolor="#666666"
     borderopacity="1"
     objecttolerance="10"
     gridtolerance="10"
     guidetolerance="10"
     inkscape:pageopacity="0"
     inkscape:pageshadow="2"
     inkscape:window-width="1920"
     inkscape:window-height="1057"
     id="namedview9"
     showgrid="false"
     fit-margin-top="0"
     fit-margin-left="0"
     fit-margin-right="0"
     fit-margin-bottom="0"
     inkscape:zoom="22.325041"
     inkscape:cx="-4.3651332"
     inkscape:cy="10.969975"
     inkscape:window-x="1912"
     inkscape:window-y="1764"
     inkscape:window-maximized="1"
     inkscape:current-layer="Layer_1" /><path
     d="m 11.52,2 -0.01,0 c -0.276,0 -0.495,0.224 -0.495,0.5 0,0.276 0.23,0.5 0.505,0.5 0.276,0 0.5,-0.224 0.5,-0.5 C 12.02,2.224 11.796,2 11.52,2 Z M 8.5,2 6.5,2 C 6.224,2 6,2.224 6,2.5 6,2.776 6.224,3 6.5,3 l 2,0 C 8.776,3 9,2.776 9,2.5 9,2.224 8.776,2 8.5,2 Z m 6,16 L 1,18 1,5 14.5,5 C 14.776,5 15,4.776 15,4.5 l 0,-1 C 15,1.57 13.43,0 11.5,0 l -8,0 C 1.57,0 0,1.57 0,3.5 l 0,17 C 0,22.43 1.57,24 3.5,24 l 8,0 c 1.93,0 3.5,-1.57 3.5,-3.5 l 0,-2 C 15,18.224 14.776,18 14.5,18 Z M 1,3.5 C 1,2.122 2.121,1 3.5,1 l 8,0 C 12.879,1 14,2.122 14,3.5 L 14,4 1,4 Z m 13,17 c 0,1.378 -1.121,2.5 -2.5,2.5 l -8,0 C 2.121,23 1,21.878 1,20.5 L 1,19 14,19 Z M 7.5,22 c 0.552,0 1,-0.448 1,-1 0,-0.552 -0.448,-1 -1,-1 -0.552,0 -1,0.448 -1,1 0,0.552 0.448,1 1,1 z"
     id="path7"
     inkscape:connector-curvature="0"
     sodipodi:nodetypes="ssssssssssssssccssssssssssssssssccsssssccssssss" /><path
     style="color:#000000;font-style:normal;font-variant:normal;font-weight:normal;font-stretch:normal;font-size:medium;line-height:normal;font-family:sans-serif;text-indent:0;text-align:start;text-decoration:none;text-decoration-line:none;text-decoration-style:solid;text-decoration-color:#000000;letter-spacing:normal;word-spacing:normal;text-transform:none;direction:ltr;block-progression:tb;writing-mode:lr-tb;baseline-shift:baseline;text-anchor:start;white-space:normal;clip-rule:nonzero;display:inline;overflow:visible;visibility:visible;opacity:1;isolation:auto;mix-blend-mode:normal;color-interpolation:sRGB;color-interpolation-filters:linearRGB;solid-color:#000000;solid-opacity:1;fill:#000000;fill-opacity:1;fill-rule:evenodd;stroke:none;stroke-width:0.74199998;stroke-linecap:round;stroke-linejoin:round;stroke-miterlimit:4;stroke-dasharray:none;stroke-dashoffset:0;stroke-opacity:1;color-rendering:auto;image-rendering:auto;shape-rendering:auto;text-rendering:auto;enable-background:accumulate"
     d="m 6.9735439,10.000904 a 0.37103709,0.37103709 0 0 0 -0.046875,0.01172 c -0.013285,0.0035 -0.040066,5.61e-4 -0.052734,0.0039 -0.050674,0.01338 -0.097298,0.03143 -0.1464844,0.05078 -0.098373,0.0387 -0.2077402,0.08978 -0.3300781,0.150391 C 6.1526967,10.338914 5.8599818,10.49685 5.5751068,10.657148 5.0053567,10.977744 4.469638,11.301679 4.469638,11.301679 a 0.37103709,0.37103709 0 0 0 -0.089844,0.560547 c 0.2136728,0.24714 0.5755681,0.64831 0.9648437,1.019531 0.3892756,0.371222 0.7636976,0.716511 1.1894531,0.855469 a 0.37103709,0.37103709 0 0 0 0.1210938,0.01758 l 5.8261724,-0.07422 c 0.165365,-0.0021 0.313586,-0.08159 0.410156,-0.171875 0.09657,-0.09029 0.158251,-0.190481 0.205078,-0.292969 0.09365,-0.204976 0.132961,-0.42235 0.134766,-0.632813 l 0.01172,-1.277343 c 0.0018,-0.202716 -0.03076,-0.40503 -0.167969,-0.574219 -0.13721,-0.16919 -0.348456,-0.239313 -0.525391,-0.253906 -1.907806,-0.157363 -3.193652,-0.16664 -5.4492184,-0.47461 a 0.37103709,0.37103709 0 0 0 -0.01563,-0.002 c -0.06008,-0.0082 -0.078192,0.0025 -0.1113276,0.0078 l 0,-0.0078 z m 0.074219,0.740235 c 2.2548211,0.305049 3.5746041,0.322581 5.4414061,0.476562 0.0641,0.0053 0.03026,0.0057 0.0098,-0.01953 -0.0205,-0.02527 0.003,-0.01048 0.002,0.101562 l -0.01172,1.275391 a 0.37103709,0.37103709 0 0 0 0,0.002 c -8.94e-4,0.1043 -0.03152,0.249456 -0.06836,0.330078 -0.0097,0.02121 -0.01253,0.02099 -0.01953,0.03125 l -5.6640629,0.07227 C 6.5923872,12.953837 6.2094144,12.679475 5.8583095,12.344654 5.6192315,12.116665 5.442931,11.914772 5.2528407,11.705982 c 0.2036174,-0.120687 0.3350356,-0.20206 0.6875,-0.40039 0.2787829,-0.15687 0.5640727,-0.31333 0.7871094,-0.423829 0.1115184,-0.05525 0.2091626,-0.09971 0.2734375,-0.125 0.024026,-0.0095 0.035527,-0.01206 0.046875,-0.01562 z"
     id="rect4157-3"
     inkscape:connector-curvature="0" /><path
     style="color:#000000;font-style:normal;font-variant:normal;font-weight:normal;font-stretch:normal;font-size:medium;line-height:normal;font-family:sans-serif;text-indent:0;text-align:start;text-decoration:none;text-decoration-line:none;text-decoration-style:solid;text-decoration-color:#000000;letter-spacing:normal;word-spacing:normal;text-transform:none;direction:ltr;block-progression:tb;writing-mode:lr-tb;baseline-shift:baseline;text-anchor:start;white-space:normal;clip-rule:nonzero;display:inline;overflow:visible;visibility:visible;opacity:1;isolation:auto;mix-blend-mode:normal;color-interpolation:sRGB;color-interpolation-filters:linearRGB;solid-color:#000000;solid-opacity:1;fill:#000000;fill-opacity:1;fill-rule:evenodd;stroke:none;stroke-width:0.74199998;stroke-linecap:butt;stroke-linejoin:round;stroke-miterlimit:4;stroke-dasharray:none;stroke-dashoffset:0;stroke-opacity:1;color-rendering:auto;image-rendering:auto;shape-rendering:auto;text-rendering:auto;enable-background:accumulate"
     d="m 8.455965,13.288013 a 0.37103709,0.37103709 0 0 0 -0.375,0.339844 l -0.002,0.01758 c -0.0053,0.03601 -0.06945,0.471401 -0.1152335,1.011719 -0.02382,0.281088 -0.04263,0.580837 -0.04102,0.855469 0.0016,0.274632 0.01054,0.510578 0.0957,0.740234 a 0.37103709,0.37103709 0 0 0 0.341797,0.242188 c 0,0 0.554492,0.0088 1.1875,-0.0039 0.6330085,-0.01269 1.2994305,-0.02533 1.7207035,-0.144532 a 0.37103709,0.37103709 0 0 0 0.259766,-0.443359 C 11.405214,15.393691 11.173438,14.44504 10.983309,13.610279 A 0.37103709,0.37103709 0 0 0 10.62784,13.321217 l -2.171875,-0.0332 z m 0.324219,0.748047 1.548828,0.02344 c 0.138688,0.598415 0.269593,1.147744 0.378906,1.599609 -0.30896,0.03831 -0.701149,0.08232 -1.173828,0.0918 -0.448241,0.009 -0.652863,0.0038 -0.84375,0.002 -0.01016,-0.08719 -0.02468,-0.125736 -0.02539,-0.246094 -0.0014,-0.238728 0.01447,-0.519858 0.03711,-0.787109 0.03078,-0.363242 0.05421,-0.507011 0.07813,-0.683594 z"
     id="rect4160-9"
     inkscape:connector-curvature="0" /><path
     style="color:#000000;font-style:normal;font-variant:normal;font-weight:normal;font-stretch:normal;font-size:medium;line-height:normal;font-family:sans-serif;text-indent:0;text-align:start;text-decoration:none;text-decoration-line:none;text-decoration-style:solid;text-decoration-color:#000000;letter-spacing:normal;word-spacing:normal;text-transform:none;direction:ltr;block-progression:tb;writing-mode:lr-tb;baseline-shift:baseline;text-anchor:start;white-space:normal;clip-rule:nonzero;display:inline;overflow:visible;visibility:visible;opacity:1;isolation:auto;mix-blend-mode:normal;color-interpolation:sRGB;color-interpolation-filters:linearRGB;solid-color:#000000;solid-opacity:1;fill:#000000;fill-opacity:1;fill-rule:nonzero;stroke:none;stroke-width:0.74199998;stroke-linecap:butt;stroke-linejoin:miter;stroke-miterlimit:4;stroke-dasharray:none;stroke-dashoffset:0;stroke-opacity:1;color-rendering:auto;image-rendering:auto;shape-rendering:auto;text-rendering:auto;enable-background:accumulate"
     d="m 8.555575,9.1727788 -0.06836,0.5039063 c -0.01673,0.1226876 -0.03741,0.2348016 -0.03906,0.3632819 -0.0017,0.128479 0.02186,0.306955 0.15039,0.451172 l 0.09766,0.109374 2.472656,0.212891 -0.01367,-0.417969 c 0,0 -0.0038,-0.120525 -0.02148,-0.269531 -0.01771,-0.1490053 -0.0392,-0.3250663 -0.123047,-0.5097658 L 10.912994,9.4052007 8.944244,9.3583257 8.555572,9.1727788 Z"
     id="rect4165-9"
     inkscape:connector-curvature="0" /><path
     style="color:#000000;font-style:normal;font-variant:normal;font-weight:normal;font-stretch:normal;font-size:medium;line-height:normal;font-family:sans-serif;text-indent:0;text-align:start;text-decoration:none;text-decoration-line:none;text-decoration-style:solid;text-decoration-color:#000000;letter-spacing:normal;word-spacing:normal;text-transform:none;direction:ltr;block-progression:tb;writing-mode:lr-tb;baseline-shift:baseline;text-anchor:start;white-space:normal;clip-rule:nonzero;display:inline;overflow:visible;visibility:visible;opacity:1;isolation:auto;mix-blend-mode:normal;color-interpolation:sRGB;color-interpolation-filters:linearRGB;solid-color:#000000;solid-opacity:1;fill:#000000;fill-opacity:1;fill-rule:evenodd;stroke:none;stroke-width:0.74199998;stroke-linecap:round;stroke-linejoin:round;stroke-miterlimit:4;stroke-dasharray:none;stroke-dashoffset:0;stroke-opacity:1;color-rendering:auto;image-rendering:auto;shape-rendering:auto;text-rendering:auto;enable-background:accumulate"
     d="m 12.194247,6.8387945 0,0.00977 c -0.02104,5.448e-4 -0.01271,-0.010588 -0.03906,-0.00781 L 7.7958095,7.2997319 c -0.389722,0.041083 -0.666319,0.3781023 -0.666016,0.7617188 l 0.002,0.9570312 c 1.16e-4,0.14775 0.01963,0.3015879 0.0957,0.4628907 0.07607,0.1613028 0.276508,0.3701641 0.544921,0.3632811 l 4.4316405,-0.113281 a 0.37103709,0.37103709 0 0 0 0.09961,-0.01563 C 12.640827,9.6127455 12.942911,9.3779791 13.256791,9.1278519 13.57067,8.8777248 13.86386,8.611533 14.038041,8.4462113 a 0.37103709,0.37103709 0 0 0 -0.04102,-0.5742187 c 0,0 -0.355183,-0.2477186 -0.736328,-0.4960938 -0.190613,-0.1241825 -0.387016,-0.2492087 -0.556681,-0.3456981 -0.08483,-0.048245 -0.163524,-0.08959 -0.238281,-0.1230469 -0.02209,-0.00989 -0.07211,-0.00844 -0.0918,-0.019531 a 0.37103709,0.37103709 0 0 0 -0.179687,-0.048828 z m -0.0293,0.7480468 c 0.03754,0.016919 0.100021,0.047027 0.171875,0.087891 0.145667,0.082842 0.33378,0.202493 0.517578,0.3222657 0.165555,0.1078847 0.194739,0.1298631 0.322265,0.2167969 -0.131161,0.1163715 -0.232697,0.2143592 -0.382812,0.3339843 -0.278339,0.221805 -0.576904,0.4043673 -0.683594,0.4433594 l -4.2226555,0.109375 c -0.0064,-0.029991 -0.01365,-0.052387 -0.01367,-0.082031 l -0.00195,-0.9570319 a 0.37103709,0.37103709 0 0 0 0,-0.00195 c -1.4e-5,-0.01787 0.02114,-0.023713 0,-0.021484 L 12.16495,7.5868448 Z"
     id="rect4157-9-3"
     inkscape:connector-curvature="0" /><path
     style="color:#000000;font-style:normal;font-variant:normal;font-weight:normal;font-stretch:normal;font-size:medium;line-height:normal;font-family:sans-serif;text-indent:0;text-align:start;text-decoration:none;text-decoration-line:none;text-decoration-style:solid;text-decoration-color:#000000;letter-spacing:normal;word-spacing:normal;text-transform:none;direction:ltr;block-progression:tb;writing-mode:lr-tb;baseline-shift:baseline;text-anchor:start;white-space:normal;clip-rule:nonzero;display:inline;overflow:visible;visibility:visible;opacity:1;isolation:auto;mix-blend-mode:normal;color-interpolation:sRGB;color-interpolation-filters:linearRGB;solid-color:#000000;solid-opacity:1;fill:#000000;fill-opacity:1;fill-rule:nonzero;stroke:none;stroke-width:0.74199998;stroke-linecap:butt;stroke-linejoin:round;stroke-miterlimit:4;stroke-dasharray:none;stroke-dashoffset:0;stroke-opacity:1;color-rendering:auto;image-rendering:auto;shape-rendering:auto;text-rendering:auto;enable-background:accumulate"
     d="M 10.135653,6.3466069 C 9.890835,6.2846989 9.711825,6.3837159 9.711825,6.3837159 l 0.130859,-0.03125 -0.794922,0.039063 A 0.37103709,0.37103709 0 0 0 8.694247,6.7626227 l 0,0.4023437 A 0.37103709,0.37103709 0 0 0 9.09659,7.5360602 l 1.173828,-0.095703 a 0.37103709,0.37103709 0 0 0 0.339844,-0.3828127 c -0.0056,-0.1713552 -0.03946,-0.3250191 -0.125,-0.4570313 C 10.399725,6.468501 10.258061,6.3775611 10.135653,6.3466069 Z"
     id="rect4165-7-7"
     inkscape:connector-curvature="0" /></svg>