<svg id="Layer_1" data-name="Layer 1" xmlns="http://www.w3.org/2000/svg" width="28.77" height="30" viewBox="0 0 28.77 30">
  <title>Group</title>
  <path d="M22.5,7a3,3,0,1,0-3-3A3,3,0,0,0,22.5,7Zm0-5a2,2,0,1,1-2,2A2,2,0,0,1,22.5,2Zm-8,4a3,3,0,1,0-3-3A3,3,0,0,0,14.5,6Zm0-5a2,2,0,1,1-2,2A2,2,0,0,1,14.5,1Zm4.66,9.9A3.17,3.17,0,0,0,16.1,8H12.9a3.17,3.17,0,0,0-3.06,2.9L9,18.07a2,2,0,0,0,.48,1.54,1.73,1.73,0,0,0,1.3.59l.71,9.34A.5.5,0,0,0,12,30h5a.5.5,0,0,0,.5-.46l.7-9.34h0a1.73,1.73,0,0,0,1.3-.59A2,2,0,0,0,20,18.07Zm-.4,8a.74.74,0,0,1-.56.26h-.48a.5.5,0,0,0-.5.46L16.54,29H12.46l-.7-9.34a.5.5,0,0,0-.5-.46h-.48a.74.74,0,0,1-.56-.26,1,1,0,0,1-.23-.76L10.84,11A2.17,2.17,0,0,1,12.9,9H16.1a2.17,2.17,0,0,1,2.07,2L19,18.18A1,1,0,0,1,18.76,18.94Zm10-.79L28,11.66A3,3,0,0,0,25,9H22a3.2,3.2,0,0,0-1,.18.5.5,0,0,0,.34.94A2.21,2.21,0,0,1,22,10h3a2,2,0,0,1,2,1.78l.8,6.49a.57.57,0,0,1-.14.47A.87.87,0,0,1,27,19h-.46a.5.5,0,0,0-.5.47L25.53,28H21.45L21,21.5a.5.5,0,1,0-1,.07l.49,7A.5.5,0,0,0,21,29h5a.5.5,0,0,0,.5-.47L27,20a1.85,1.85,0,0,0,1.38-.6A1.57,1.57,0,0,0,28.76,18.15ZM8.54,21a.49.49,0,0,0-.53.46L7.54,28H3.46l-.71-8.41a.5.5,0,0,0-.5-.46H1.78a.79.79,0,0,1-.59-.26.75.75,0,0,1-.18-.6l.82-6.49a2.05,2.05,0,0,1,2-1.78H7a2,2,0,0,1,.52.08.5.5,0,1,0,.25-1A3,3,0,0,0,7,9H3.87a3.06,3.06,0,0,0-3,2.66L0,18.15a1.76,1.76,0,0,0,.43,1.38,1.78,1.78,0,0,0,1.34.6l.72,8.41A.5.5,0,0,0,3,29H8a.5.5,0,0,0,.5-.47l.49-7A.5.5,0,0,0,8.54,21ZM6.5,7a3,3,0,1,0-3-3A3,3,0,0,0,6.5,7Zm0-5a2,2,0,1,1-2,2A2,2,0,0,1,6.5,2Z"/>
</svg>
