<svg id="Layer_1" data-name="Layer 1" xmlns="http://www.w3.org/2000/svg" width="24.01" height="23.84" viewBox="0 0 24.01 23.84">
  <title>my-groups-filled</title>
  <ellipse id="path13835" cx="12" cy="11.92" rx="11.22" ry="11.13" fill="none" stroke="#000" stroke-width="1.57"/>
  <path id="path13820" d="M11.06,22.2a10.37,10.37,0,0,1-6.5-3.09,9.73,9.73,0,0,1-1.92-2.72A10.22,10.22,0,0,1,3.85,5.5,13.18,13.18,0,0,1,5.57,3.79a10.61,10.61,0,0,1,9.86-1.66A10.4,10.4,0,0,1,22,8.56a10.24,10.24,0,0,1-4.59,12.21,10.94,10.94,0,0,1-4.32,1.41A15.6,15.6,0,0,1,11.06,22.2Z" fill="#9c3"/>
  <ellipse id="path13835-2" cx="12.09" cy="11.89" rx="9.81" ry="9.64" fill="none" stroke="#fff" stroke-width="1.37"/>
  <path id="path13851" d="M6.66,17A2.76,2.76,0,0,1,7.79,15.3a11.32,11.32,0,0,1,1.51-.52,4,4,0,0,0,1.32-.48,5.35,5.35,0,0,0,.33-1.41.52.52,0,0,0-.14-.34A4,4,0,0,1,10,10.65a.52.52,0,0,0-.39-.53c-.22-.05-.25-.13-.31-1l0-.5.21,0c.32-.07.39-.24.32-.83a7,7,0,0,1,0-1.82c.16-.49.67-.78,1.45-.84A1.35,1.35,0,0,0,12,4.88a2.58,2.58,0,0,1,1.46-.38c.87,0,1.33.25,1.58.87a.74.74,0,0,1-.19.95l-.2.24,0,.81c0,1,0,1.1.25,1.19a.4.4,0,0,1,.21.14A8,8,0,0,1,14.9,10a.16.16,0,0,1-.13.07c-.22,0-.33.18-.4.65a3.9,3.9,0,0,1-.73,1.7,1.55,1.55,0,0,0-.28.48,6.81,6.81,0,0,0,.35,1.41,7.49,7.49,0,0,0,1.22.41c1.34.38,1.83.62,2.18,1.07A3.27,3.27,0,0,1,17.64,17l0,.18H6.62Z" fill="#fff"/>
  <path id="path7-5" d="M5.33,14.53H3.46a1.64,1.64,0,0,1,1.11-1.23l1.56-.44a.42.42,0,0,0,.29-.32l.18-.83a.48.48,0,0,0-.11-.43,2.36,2.36,0,0,1-.61-1.42.44.44,0,0,0-.44-.39l-.07-.83a.38.38,0,0,0,.3-.15.48.48,0,0,0,.1-.35c0-.3-.09-.83-.09-1,0-.5,0-1,1.31-1A.36.36,0,0,0,7.21,6,1.5,1.5,0,0,1,8,5.68a.43.43,0,0,0,.35-.49.41.41,0,0,0-.43-.39,2.25,2.25,0,0,0-1.06.4c-1.76.06-2,1.13-2,1.93,0,.16,0,.48.05.74A.81.81,0,0,0,4.75,8a.94.94,0,0,0-.19.68l.09.85a.84.84,0,0,0,.48.69,3.37,3.37,0,0,0,.65,1.48l-.07.34-1.33.37A2.58,2.58,0,0,0,2.62,15a.42.42,0,0,0,.39.44H5.33a.45.45,0,0,0,0-.89ZM19.8,12.43l-1.33-.37-.07-.29a3.34,3.34,0,0,0,.69-1.53.87.87,0,0,0,.43-.67l.09-.85A.94.94,0,0,0,19.44,8a.8.8,0,0,0-.17-.16l0-.56.09-.1a1.31,1.31,0,0,0,0-1.61,1.72,1.72,0,0,0-1.6-.84,2.75,2.75,0,0,0-1,.17.46.46,0,0,0-.24.56.39.39,0,0,0,.5.28,2.06,2.06,0,0,1,.75-.13,1,1,0,0,1,.94.44c.19.33.11.44.05.5l-.19.21a.47.47,0,0,0-.12.29l0,1.06a.44.44,0,0,0,.1.31.35.35,0,0,0,.27.13l-.1.83a.42.42,0,0,0-.39.41,2.38,2.38,0,0,1-.64,1.45.48.48,0,0,0-.12.44l.18.8a.42.42,0,0,0,.29.32l1.56.44a1.64,1.64,0,0,1,1.11,1.24H18.85v.89h2.32a.42.42,0,0,0,.39-.44A2.58,2.58,0,0,0,19.8,12.43Zm-3.69,1.89-1.89-.53-.13-.58a4.36,4.36,0,0,0,1-2.15,1,1,0,0,0,.57-.83l.13-1.16a1.11,1.11,0,0,0-.22-.8A.92.92,0,0,0,15.27,8l0-.92.16-.18a1.63,1.63,0,0,0,0-2,2.21,2.21,0,0,0-2.06-1.07,3.23,3.23,0,0,0-2,.58c-2.29.07-2.59,1.35-2.59,2.47,0,.24,0,.74.08,1.1a.92.92,0,0,0-.3.25,1.11,1.11,0,0,0-.22.8l.13,1.16a1,1,0,0,0,.63.85,4.41,4.41,0,0,0,.92,2.07l-.14.63-1.89.53a3.35,3.35,0,0,0-2.3,3.31.47.47,0,0,0,.12.31.38.38,0,0,0,.28.13H18a.42.42,0,0,0,.39-.44A3.35,3.35,0,0,0,16.11,14.33ZM6.6,17.19a2.42,2.42,0,0,1,1.66-2l2.12-.6a.42.42,0,0,0,.29-.32l.25-1.13a.48.48,0,0,0-.11-.43,3.41,3.41,0,0,1-.88-2,.42.42,0,0,0-.39-.41H9.46a.13.13,0,0,1-.12-.12L9.21,9a.15.15,0,0,1,0-.11s0,0,.14,0a.38.38,0,0,0,.3-.15.48.48,0,0,0,.1-.35c0-.29-.12-1.12-.12-1.39,0-.69,0-1.56,1.93-1.58a.36.36,0,0,0,.23-.08,2.49,2.49,0,0,1,1.64-.5,1.47,1.47,0,0,1,1.4.67c.33.56.14.78.05.89l-.26.29a.47.47,0,0,0-.12.29l-.06,1.45a.48.48,0,0,0,.11.33.37.37,0,0,0,.28.14.11.11,0,0,1,.09,0A.14.14,0,0,1,15,9l-.13,1.16a.13.13,0,0,1-.14.12.42.42,0,0,0-.39.41,3.43,3.43,0,0,1-.92,2.09.48.48,0,0,0-.12.44l.24,1.09a.42.42,0,0,0,.29.32l2.12.6a2.42,2.42,0,0,1,1.66,2Z"/>
</svg>
