<svg id="Layer_1" data-name="Layer 1" xmlns="http://www.w3.org/2000/svg" width="24" height="24" viewBox="0 0 24 24">
  <title>my-properties</title>
  <g id="g3">
    <path id="path5" d="M15.5,14.5A.5.5,0,0,0,16,14V12.5a.5.5,0,0,0-.5-.5h-7a.5.5,0,0,0-.5.5v7a.5.5,0,0,0,.5.5H15a.5.5,0,0,0,0-1H9V13h6v1A.5.5,0,0,0,15.5,14.5Z"/>
    <path id="path7" d="M17.5,23H4V11.5a.5.5,0,0,0-.5-.5H1.71L11.5,1.21a.73.73,0,0,1,1,0l3.65,3.65A.5.5,0,0,0,17,4.5V1h3V8.5a.5.5,0,0,0,.15.35L22.29,11H20.5a.5.5,0,0,0-.5.5V12a.5.5,0,0,0,1,0h2.5a.5.5,0,0,0,.35-.85L21,8.29V.5a.5.5,0,0,0-.5-.5h-4a.5.5,0,0,0-.5.5V3.29L13.2.5a1.76,1.76,0,0,0-2.41,0L.15,11.15A.5.5,0,0,0,.5,12H3V23.5a.5.5,0,0,0,.5.5h14a.5.5,0,0,0,0-1Z"/>
    <path id="path9" d="M20,13a4,4,0,0,0-4,4c0,2,3.23,6.32,3.6,6.8a.5.5,0,0,0,.79,0C20.77,23.32,24,19,24,17A4,4,0,0,0,20,13Zm0,9.66c-1.1-1.51-3-4.39-3-5.66a3,3,0,0,1,6,0C23,18.27,21.1,21.15,20,22.66Z"/>
    <path id="path11" d="M20,15a2,2,0,1,0,2,2A2,2,0,0,0,20,15Zm0,3a1,1,0,1,1,1-1A1,1,0,0,1,20,18Z"/>
  </g>
</svg>
