<?xml version="1.0" encoding="UTF-8" standalone="no"?>
<!-- Generator: Adobe Illustrator 19.0.0, SVG Export Plug-In . SVG Version: 6.00 Build 0)  -->

<svg
   xmlns:dc="http://purl.org/dc/elements/1.1/"
   xmlns:cc="http://creativecommons.org/ns#"
   xmlns:rdf="http://www.w3.org/1999/02/22-rdf-syntax-ns#"
   xmlns:svg="http://www.w3.org/2000/svg"
   xmlns="http://www.w3.org/2000/svg"
   xmlns:sodipodi="http://sodipodi.sourceforge.net/DTD/sodipodi-0.dtd"
   xmlns:inkscape="http://www.inkscape.org/namespaces/inkscape"
   version="1.1"
   id="Layer_1"
   x="0px"
   y="0px"
   viewBox="0 0 25 25"
   xml:space="preserve"
   inkscape:version="0.91 r13725"
   sodipodi:docname="Properties Landing.svg"
   width="25"
   height="25"
   inkscape:export-filename="C:\Users\jeffs_d1mxxsu\OneDrive\Sojoorn Media\Journey Lane\Artwork\Elements\Icons\Icons for JL 2.0\Landing Page Icons\properties.png"
   inkscape:export-xdpi="594.78595"
   inkscape:export-ydpi="594.78595"><metadata
     id="metadata57"><rdf:RDF><cc:Work
         rdf:about=""><dc:format>image/svg+xml</dc:format><dc:type
           rdf:resource="http://purl.org/dc/dcmitype/StillImage" /><dc:title /></cc:Work></rdf:RDF></metadata><defs
     id="defs55" /><sodipodi:namedview
     pagecolor="#c3c3c3"
     bordercolor="#666666"
     borderopacity="1"
     objecttolerance="10"
     gridtolerance="10"
     guidetolerance="10"
     inkscape:pageopacity="0"
     inkscape:pageshadow="2"
     inkscape:window-width="1920"
     inkscape:window-height="1057"
     id="namedview53"
     showgrid="false"
     inkscape:zoom="21.566152"
     inkscape:cx="2.1102721"
     inkscape:cy="17.811018"
     inkscape:window-x="-8"
     inkscape:window-y="1493"
     inkscape:window-maximized="1"
     inkscape:current-layer="Layer_1"
     fit-margin-top="0"
     fit-margin-left="0"
     fit-margin-right="0"
     fit-margin-bottom="0"
     inkscape:snap-others="false" /><g
     id="g23"
     transform="translate(-0.02223277,0.84346051)" /><g
     id="g25"
     transform="translate(-0.02223277,0.84346051)" /><g
     id="g27"
     transform="translate(-0.02223277,0.84346051)" /><g
     id="g29"
     transform="translate(-0.02223277,0.84346051)" /><g
     id="g31"
     transform="translate(-0.02223277,0.84346051)" /><g
     id="g33"
     transform="translate(-0.02223277,0.84346051)" /><g
     id="g35"
     transform="translate(-0.02223277,0.84346051)" /><g
     id="g37"
     transform="translate(-0.02223277,0.84346051)" /><g
     id="g39"
     transform="translate(-0.02223277,0.84346051)" /><g
     id="g41"
     transform="translate(-0.02223277,0.84346051)" /><g
     id="g43"
     transform="translate(-0.02223277,0.84346051)" /><g
     id="g45"
     transform="translate(-0.02223277,0.84346051)" /><g
     id="g47"
     transform="translate(-0.02223277,0.84346051)" /><g
     id="g49"
     transform="translate(-0.02223277,0.84346051)" /><g
     id="g51"
     transform="translate(-0.02223277,0.84346051)" /><path
     style="opacity:1;fill:none;fill-opacity:1;fill-rule:nonzero;stroke:#000000;stroke-width:1.64432931;stroke-miterlimit:4;stroke-dasharray:none;stroke-opacity:1"
     d="M 24.222633,12.530318 A 11.700234,11.647516 0 0 1 12.522399,24.177835 11.700234,11.647516 0 0 1 0.82216454,12.530318 11.700234,11.647516 0 0 1 12.522399,0.88280201 11.700234,11.647516 0 0 1 24.222633,12.530318 Z"
     id="path13835" /><path
     style="opacity:1;fill:#ffffff;fill-opacity:1;fill-rule:nonzero;stroke:none;stroke-width:0.80000001;stroke-miterlimit:4;stroke-dasharray:none;stroke-opacity:0.83529412"
     d="M 11.223053,23.259398 C 9.59781,23.050226 7.8381696,22.406699 6.5597969,21.55398 3.911287,19.787334 2.2374012,17.152115 1.7660677,14.007177 1.6505662,13.236508 1.6505734,11.807756 1.7660828,11.037161 2.3106646,7.404113 4.5366703,4.3825182 7.8428091,2.78857 8.8695368,2.2935649 10.091496,1.9419844 11.262985,1.8045214 16.674587,1.169521 21.768636,4.6857126 23.06099,9.9481556 c 0.409736,1.6684374 0.404884,3.5757974 -0.01331,5.2309454 -0.538454,2.131141 -1.806399,4.161363 -3.474569,5.563441 -1.607607,1.351179 -3.586558,2.227328 -5.628188,2.491805 -0.652241,0.08445 -2.152761,0.09826 -2.721874,0.02501 z"
     id="path13832"
     inkscape:connector-curvature="0" /><path
     style="opacity:1;fill:#66c1ff;fill-opacity:0.40143371;fill-rule:nonzero;stroke:none;stroke-width:0.80000001;stroke-miterlimit:4;stroke-dasharray:none;stroke-opacity:0.83529412"
     d="M 11.352154,21.830846 C 9.5688038,21.590521 7.9105036,20.888593 6.5664973,19.805165 6.1546176,19.473141 5.3810296,18.697889 5.0706371,18.306093 4.0551182,17.024251 3.3895047,15.478863 3.1396017,13.822732 3.0575863,13.279213 3.0462958,11.910181 3.1194588,11.378927 3.3588919,9.6401371 4.0536702,8.01587 5.123676,6.6934468 5.4338041,6.3101582 6.338744,5.4290485 6.7152121,5.1438214 8.0399403,4.1401532 9.5430535,3.5088519 11.223314,3.2504251 c 0.501843,-0.077185 2.308279,-0.064879 2.80982,0.01915 2.072278,0.3471614 3.867347,1.2495242 5.272814,2.650587 0.264439,0.2636077 0.586357,0.6098525 0.715372,0.7694236 0.83585,1.0338265 1.506298,2.3853615 1.815898,3.6606105 0.194804,0.802408 0.227574,1.119666 0.225823,2.18633 -0.0017,1.109955 -0.05006,1.501667 -0.294639,2.392508 -1.043585,3.801138 -4.442885,6.580702 -8.465167,6.921851 -0.591803,0.05023 -1.499008,0.04092 -1.951076,-0.01999 z"
     id="path13859-9"
     inkscape:connector-curvature="0"
     inkscape:export-xdpi="594.78595"
     inkscape:export-ydpi="594.78595" /><path
     style="opacity:1;fill:#ffffff;fill-opacity:1;fill-rule:nonzero;stroke:none;stroke-width:0.26499999;stroke-linecap:round;stroke-linejoin:round;stroke-miterlimit:4;stroke-dasharray:none;stroke-opacity:1"
     d="m 11.824084,4.4121831 c 1.064511,-1.0769273 3.504545,3.3792744 3.570409,1.8779428 l 0.09119,-2.0785467 2.551841,0.015128 0.231845,5.7497486 1.970682,1.8779422 -2.098195,-0.127515 -0.10433,8.589849 -11.7712578,-0.0081 0.015926,-7.704636 c 0.00331,-1.602101 -2.7746764,0.42763 -1.6916655,-1.09741"
     id="rect13809"
     inkscape:connector-curvature="0"
     sodipodi:nodetypes="cscccccccsc" /><path
     style="opacity:1;fill:#c2e6ff;fill-opacity:1;fill-rule:nonzero;stroke:none;stroke-width:0.26499999;stroke-linecap:round;stroke-linejoin:round;stroke-miterlimit:4;stroke-dasharray:none;stroke-opacity:1"
     d="m 10.525752,12.619488 3.524041,0 c 0.436703,0 0.788273,0.351569 0.788273,0.788272 l 0,3.384934 c 0,0.436703 -0.35157,0.788272 -0.788273,0.788272 l -3.524041,0 c -0.436702,0 -0.7882718,-0.351569 -0.7882718,-0.788272 l 0,-3.384934 c 0,-0.436703 0.3515698,-0.788272 0.7882718,-0.788272 z"
     id="rect13814" /><g
     transform="matrix(0.69277643,0,0,0.68631143,3.9883726,3.9968146)"
     id="g3"
     style="fill:#000000"><path
       inkscape:connector-curvature="0"
       d="m 15.5,14.5 c 0.276,0 0.5,-0.224 0.5,-0.5 l 0,-1.5 C 16,12.224 15.776,12 15.5,12 l -7,0 C 8.224,12 8,12.224 8,12.5 l 0,7 C 8,19.776 8.224,20 8.5,20 l 6.5,0 c 0.276,0 0.5,-0.224 0.5,-0.5 C 15.5,19.224 15.276,19 15,19 l -6,0 0,-6 6,0 0,1 c 0,0.276 0.224,0.5 0.5,0.5 z"
       id="path5"
       style="fill:#000000" /><path
       inkscape:connector-curvature="0"
       d="M 17.5,23 4,23 4,11.5 C 4,11.224 3.776,11 3.5,11 l -1.793,0 9.795,-9.793 c 0.264,-0.263 0.733,-0.265 0.998,0 l 3.647,3.647 c 0.144,0.143 0.36,0.187 0.545,0.108 0.187,-0.077 0.309,-0.26 0.309,-0.462 l 0,-3.5 3,0 0,7.5 c 0,0.133 0.052,0.26 0.146,0.354 L 22.293,11 20.5,11 C 20.224,11 20,11.224 20,11.5 l 0,0.5 c 0,0.276 0.224,0.5 0.5,0.5 0.276,0 0.5,-0.224 0.5,-0.5 l 2.5,0 c 0.202,0 0.383,-0.122 0.461,-0.309 0.078,-0.187 0.035,-0.402 -0.108,-0.545 l -2.854,-2.854 0,-7.792 c 0,-0.276 -0.224,-0.5 -0.5,-0.5 l -4,0 c -0.276,0 -0.5,0.224 -0.5,0.5 l 0,2.793 L 13.205,0.5 c -0.638,-0.639 -1.774,-0.641 -2.412,0 L 0.146,11.146 C 0.004,11.289 -0.039,11.504 0.038,11.691 0.115,11.878 0.298,12 0.5,12 L 3,12 3,23.5 C 3,23.776 3.224,24 3.5,24 l 14,0 C 17.776,24 18,23.776 18,23.5 18,23.224 17.776,23 17.5,23 Z"
       id="path7"
       style="fill:#000000" /><path
       inkscape:connector-curvature="0"
       d="m 20,13 c -2.206,0 -4,1.794 -4,4 0,2.043 3.234,6.323 3.604,6.804 C 19.698,23.928 19.845,24 20,24 20.155,24 20.302,23.928 20.396,23.804 20.766,23.323 24,19.043 24,17 24,14.794 22.206,13 20,13 Z m 0,9.664 c -1.1,-1.512 -3,-4.39 -3,-5.663 0,-1.654 1.346,-3 3,-3 1.654,0 3,1.346 3,3 0,1.272 -1.9,4.15 -3,5.663 z"
       id="path9"
       style="fill:#000000" /><path
       inkscape:connector-curvature="0"
       d="m 20,15 c -1.103,0 -2,0.897 -2,2 0,1.103 0.897,2 2,2 1.103,0 2,-0.897 2,-2 0,-1.103 -0.897,-2 -2,-2 z m 0,3 c -0.552,0 -1,-0.449 -1,-1 0,-0.551 0.448,-1 1,-1 0.552,0 1,0.449 1,1 0,0.551 -0.448,1 -1,1 z"
       id="path11"
       style="fill:#000000" /></g><path
     style="opacity:1;fill:#ffffff;fill-opacity:1;fill-rule:nonzero;stroke:none;stroke-width:0.26499999;stroke-linecap:round;stroke-linejoin:round;stroke-miterlimit:4;stroke-dasharray:none;stroke-opacity:1"
     d="m 17.693722,16.339709 c -0.234467,-0.04967 -0.384627,-0.173265 -0.48433,-0.39866 -0.128717,-0.290985 -0.08314,-0.527928 0.145546,-0.756611 0.297252,-0.297252 0.679741,-0.296903 0.977536,8.93e-4 0.227745,0.227745 0.273186,0.465147 0.144653,0.755718 -0.138106,0.312212 -0.447717,0.469767 -0.783405,0.39866 z"
     id="path13807"
     inkscape:connector-curvature="0" /><path
     style="opacity:1;fill:#c2e6ff;fill-opacity:1;fill-rule:nonzero;stroke:none;stroke-width:0.26499999;stroke-linecap:round;stroke-linejoin:round;stroke-miterlimit:4;stroke-dasharray:none;stroke-opacity:1"
     d="m 17.671863,19.327747 c -0.971716,-1.331147 -1.789074,-2.824107 -1.8877,-3.448012 -0.180321,-1.140701 0.835358,-2.276593 2.031689,-2.272156 0.599233,0.0022 1.073967,0.193913 1.490056,0.601663 0.452024,0.442964 0.698974,1.142258 0.596702,1.689693 -0.06276,0.335921 -0.326223,0.943967 -0.666939,1.53921 -0.299092,0.522525 -1.075289,1.714654 -1.290702,1.98234 l -0.107707,0.133841 -0.165399,-0.226579 z m 0.784136,-2.455969 c 0.615535,-0.299001 0.902711,-1.00649 0.677435,-1.668935 -0.112791,-0.331676 -0.521888,-0.729673 -0.850254,-0.827187 -0.545546,-0.16201 -0.998736,-0.05079 -1.394652,0.342265 -0.322097,0.319771 -0.436152,0.614936 -0.402004,1.04035 0.07851,0.978111 1.081181,1.545002 1.969475,1.113507 z"
     id="path13812"
     inkscape:connector-curvature="0" /></svg>