<svg id="Layer_1" data-name="Layer 1" xmlns="http://www.w3.org/2000/svg" width="25.04" height="24.94" viewBox="0 0 25.04 24.94">
  <title>notifications-filled</title>
  <ellipse id="path13835" cx="12.52" cy="12.47" rx="11.7" ry="11.65" fill="none" stroke="#000" stroke-width="1.64"/>
  <path id="path13832" d="M11.22,23.2a11.49,11.49,0,0,1-4.66-1.71,10.82,10.82,0,0,1-4.79-7.55,12.77,12.77,0,0,1,0-3A10.84,10.84,0,0,1,7.84,2.73a11.08,11.08,0,0,1,3.42-1,10.87,10.87,0,0,1,11.8,8.14,11.17,11.17,0,0,1,0,5.23,10.92,10.92,0,0,1-3.47,5.56,11,11,0,0,1-5.63,2.49,15.76,15.76,0,0,1-2.72,0Z" fill="#fff"/>
  <path id="path13859-9" d="M11.35,21.77a9.68,9.68,0,0,1-4.79-2,13.13,13.13,0,0,1-1.5-1.5,9.49,9.49,0,0,1-1.93-4.48,12.87,12.87,0,0,1,0-2.44,9.51,9.51,0,0,1,2-4.69A14.13,14.13,0,0,1,6.72,5.08a9.82,9.82,0,0,1,4.51-1.89,16.36,16.36,0,0,1,2.81,0,9.58,9.58,0,0,1,5.27,2.65c.26.26.59.61.72.77a9.73,9.73,0,0,1,1.82,3.66,7.22,7.22,0,0,1,.23,2.19,7.26,7.26,0,0,1-.29,2.39,9.59,9.59,0,0,1-8.47,6.92,11.26,11.26,0,0,1-2,0Z" fill="#690"/>
  <g id="g3">
    <path id="path5" d="M16.57,21.78H8.64a.44.44,0,0,1-.31-.11.26.26,0,0,1-.08-.26l4-14.11a.43.43,0,0,1,.77,0l3.93,14a.25.25,0,0,1,0,.15A.36.36,0,0,1,16.57,21.78Zm-7.44-.61h6.93L12.6,8.81Z"/>
    <path id="path7" d="M8.64,21.78a.45.45,0,0,1-.31-.11.26.26,0,0,1,.05-.43l5.88-3.75H9.83a.42.42,0,0,1-.35-.17.25.25,0,0,1,0-.32L13,13.19H11.41a.32.32,0,1,1,0-.61h2.37a.42.42,0,0,1,.35.17.25.25,0,0,1,0,.32L10.6,16.87h4.77a.41.41,0,0,1,.37.2.27.27,0,0,1-.12.34L8.9,21.71A.47.47,0,0,1,8.64,21.78Z"/>
  </g>
  <path id="path13833" d="M9.5,10.76A3.2,3.2,0,0,1,9.84,6a4.44,4.44,0,0,1,5.39,0A3.26,3.26,0,0,1,16,10.73" fill="none" stroke="#000" stroke-linecap="round" stroke-width="0.67"/>
  <path id="path13833-3" d="M7.42,12.36a5.15,5.15,0,0,1,.44-8,7.93,7.93,0,0,1,9.6.27,5.18,5.18,0,0,1,.34,8.06" fill="none" stroke="#000" stroke-linecap="round" stroke-width="0.73"/>
  <ellipse id="path13850" cx="12.6" cy="8.59" rx="1.84" ry="1.68"/>
  <path id="path13803" d="M9.77,21.16s5.23-3.37,5.31-3.39a13.12,13.12,0,0,1,.51,1.65c.25.91.46,1.69.46,1.72a19.49,19.49,0,0,1-3.14.05C11.18,21.19,9.77,21.18,9.77,21.16Z" fill="#fff"/>
  <path id="path13805" d="M9.29,20.62c0-.07.85-3.09.87-3.12s.95,0,2.07,0h2l-2.46,1.57L9.32,20.65s0,0,0,0Z" fill="#fff"/>
  <path id="path13807" d="M10.89,16.55c1.59-1.73,3-3.22,3-3.22s.23.77.49,1.7l.49,1.77c0,.06-.1.06-2.12.06H10.6Z" fill="#fff"/>
  <path id="path13809" d="M10.65,15.76c0-.05.71-2.54.72-2.55H13l-1.16,1.26a14.22,14.22,0,0,1-1.22,1.29Z" fill="#fff"/>
  <path id="path13811" d="M11.56,12.54s.47-1.74.6-2.18l0-.13H13l.31,1.13c.17.62.32,1.15.33,1.17s-.21,0-1,0A5.86,5.86,0,0,1,11.56,12.54Z" fill="#fff"/>
  <ellipse id="path13813" cx="12.6" cy="8.53" rx="0.87" ry="0.82" fill="#fff"/>
</svg>
