<svg id="Layer_1" data-name="Layer 1" xmlns="http://www.w3.org/2000/svg" width="18" height="24" viewBox="0 0 18 24">
  <title>Acrobat-File</title>
  <g>
    <g>
      <path d="M17.5,24H.5a.5.5,0,0,1-.5-.5V6.5a.5.5,0,0,1,.15-.35l6-6A.5.5,0,0,1,6.5,0h11a.5.5,0,0,1,.5.5v23A.5.5,0,0,1,17.5,24ZM1,23H17V1H6.71L1,6.71Z"/>
      <path d="M6.5,7H.5a.5.5,0,0,1,0-1H6V.5a.5.5,0,0,1,1,0v6A.5.5,0,0,1,6.5,7Z"/>
    </g>
    <path d="M3.45,22.07A2.13,2.13,0,0,1,2.86,22c-.7-.2-.84-.63-.85-.86-.06-.83,1.45-2,4.5-3.51.35-.71.64-1.39.85-1.89l.18-.42a15.81,15.81,0,0,0,.6-1.67A5.38,5.38,0,0,1,7.22,9,1.39,1.39,0,0,1,8.5,8h0a1.17,1.17,0,0,1,1,.56c.61,1,.24,3.12-.26,4.89a7.14,7.14,0,0,0,.61.7,14.08,14.08,0,0,0,1.82,1.54,5.77,5.77,0,0,1,3.73.25A1.25,1.25,0,0,1,16,17a1,1,0,0,1-.64,1c-.84.35-2.39-.25-3.9-1.25a11.49,11.49,0,0,0-2.27.72c-.7.31-1.35.61-1.95.9C6.31,20.21,5,22.07,3.45,22.07ZM3,21l.09,0c.87.25,1.74-.64,2.49-1.82A9,9,0,0,0,3,21Zm10-4.46c1,.52,1.76.68,1.95.53a.28.28,0,0,0-.15-.29A3.39,3.39,0,0,0,13.05,16.53ZM8.88,14.58c-.16.46-.31.85-.43,1.12l-.18.41-.36.82.87-.39A12.05,12.05,0,0,1,10.41,16a14.67,14.67,0,0,1-1.26-1.12ZM8.5,9c-.14,0-.26.12-.35.35a4,4,0,0,0,.37,2.91c.32-1.38.45-2.69.15-3.16A.17.17,0,0,0,8.5,9Z"/>
  </g>
</svg>
