<svg id="Layer_1" data-name="Layer 1" xmlns="http://www.w3.org/2000/svg" width="24.21" height="24.31" viewBox="0 0 24.21 24.31"><defs><style>.cls-1{fill:none;stroke:#000;stroke-linecap:round;stroke-linejoin:round;stroke-width:2.71px;}</style></defs><title>pencil</title><g id="g5"><g id="g13801"><path id="path13799" d="M11,12.82a5.72,5.72,0,0,1,2,3.13l8.42-8.59L17.08,3,8.69,11.61A5.79,5.79,0,0,1,11,12.82Z"/><path id="path13797" d="M23.29,5.34a3.07,3.07,0,0,0,.88-2.16,3,3,0,0,0-3-3.06,3,3,0,0,0-2.12.9L17.89,2.21l4.23,4.32Z"/><path id="path13795" d="M10.22,13.72a4.72,4.72,0,0,0-2.13-1.07l-1,4.24a.58.58,0,0,0,.14.55.58.58,0,0,0,.41.17.34.34,0,0,0,.14,0l4.15-1.06a.5.5,0,0,1-.09-.24A4.49,4.49,0,0,0,10.22,13.72Z"/></g></g><path id="rect13806" class="cls-1" d="M22.8,11l.06,9a3,3,0,0,1-3,3H4.33a3,3,0,0,1-3-3V4.35a3,3,0,0,1,3-3L13,1.42"/></svg>