<svg id="Layer_1" data-name="Layer 1" xmlns="http://www.w3.org/2000/svg" width="9" height="24" viewBox="0 0 9 24">
  <title>Person</title>
  <path d="M9,14.24,8.33,8.43A2.65,2.65,0,0,0,5.78,6H3.22A2.65,2.65,0,0,0,.67,8.43L0,14.24a1.7,1.7,0,0,0,.41,1.32,1.48,1.48,0,0,0,1,.51L2,23.54a.5.5,0,0,0,.5.46h4a.5.5,0,0,0,.5-.46l.55-7.47a1.48,1.48,0,0,0,1-.51A1.71,1.71,0,0,0,9,14.24Zm-1.16.66a.5.5,0,0,1-.37.17H7.09a.5.5,0,0,0-.5.46L6,23H3l-.55-7.47a.5.5,0,0,0-.5-.46H1.53a.5.5,0,0,1-.37-.17A.7.7,0,0,1,1,14.35l.66-5.81A1.65,1.65,0,0,1,3.22,7H5.78A1.65,1.65,0,0,1,7.33,8.54L8,14.35A.69.69,0,0,1,7.83,14.89ZM4.5,5A2.5,2.5,0,1,0,2,2.5,2.5,2.5,0,0,0,4.5,5Zm0-4A1.5,1.5,0,1,1,3,2.5,1.5,1.5,0,0,1,4.5,1Z"/>
</svg>
