<svg id="Layer_1" data-name="Layer 1" xmlns="http://www.w3.org/2000/svg" width="22" height="24" viewBox="0 0 22 24">
  <title>Photo</title>
  <g id="g3">
    <g id="g5">
      <g id="g7">
        <g id="g9">
          <path id="path11" d="M21.5,24H.5a.5.5,0,0,1-.5-.5V.5A.5.5,0,0,1,.5,0h21a.5.5,0,0,1,.5.5v23A.5.5,0,0,1,21.5,24ZM1,23H21V1H1Z"/>
        </g>
        <g id="g13">
          <path id="path15" d="M19.5,18H2.5a.5.5,0,0,1-.5-.5V2.5A.5.5,0,0,1,2.5,2h17a.5.5,0,0,1,.5.5v15A.5.5,0,0,1,19.5,18ZM3,17H19V3H3Z"/>
        </g>
      </g>
      <g id="g17">
        <g id="g19">
          <path id="path21" d="M7.53,16H5.47a.5.5,0,0,1-.5-.47l-.23-3.24A1,1,0,0,1,4,11.18l.34-1.86A1.53,1.53,0,0,1,5.86,8H7.14A1.54,1.54,0,0,1,8.66,9.36L9,11.15a1,1,0,0,1-.25.84,1,1,0,0,1-.48.3L8,15.53A.5.5,0,0,1,7.53,16Zm-1.6-1H7.07l.23-3.2a.5.5,0,0,1,.5-.47H8L7.67,9.51A.55.55,0,0,0,7.14,9H5.86a.54.54,0,0,0-.53.48L5,11.33h.21a.5.5,0,0,1,.5.47Z"/>
        </g>
        <g id="g23">
          <path id="path25" d="M6.5,8A1.5,1.5,0,1,1,8,6.5,1.5,1.5,0,0,1,6.5,8Zm0-2a.5.5,0,1,0,.5.5A.5.5,0,0,0,6.5,6Z"/>
        </g>
      </g>
    </g>
    <g id="g27">
      <path id="path29" d="M14.5,11A3.5,3.5,0,1,1,18,7.5,3.5,3.5,0,0,1,14.5,11Zm0-6A2.5,2.5,0,1,0,17,7.5,2.5,2.5,0,0,0,14.5,5Z"/>
    </g>
    <g id="g31">
      <path id="path33" d="M14.5,16a.5.5,0,0,1-.5-.5v-5a.5.5,0,0,1,1,0v5A.5.5,0,0,1,14.5,16Z"/>
    </g>
  </g>
</svg>
