<?xml version="1.0" encoding="UTF-8" standalone="no"?>
<!-- Generator: Adobe Illustrator 19.0.0, SVG Export Plug-In . SVG Version: 6.00 Build 0)  -->

<svg
   xmlns:dc="http://purl.org/dc/elements/1.1/"
   xmlns:cc="http://creativecommons.org/ns#"
   xmlns:rdf="http://www.w3.org/1999/02/22-rdf-syntax-ns#"
   xmlns:svg="http://www.w3.org/2000/svg"
   xmlns="http://www.w3.org/2000/svg"
   xmlns:sodipodi="http://sodipodi.sourceforge.net/DTD/sodipodi-0.dtd"
   xmlns:inkscape="http://www.inkscape.org/namespaces/inkscape"
   version="1.1"
   id="Layer_1"
   x="0px"
   y="0px"
   viewBox="0 0 24.005503 23.835112"
   xml:space="preserve"
   inkscape:version="0.91 r13725"
   sodipodi:docname="Add Journal Entry.svg"
   width="24.005503"
   height="23.835112"><metadata
     id="metadata57"><rdf:RDF><cc:Work
         rdf:about=""><dc:format>image/svg+xml</dc:format><dc:type
           rdf:resource="http://purl.org/dc/dcmitype/StillImage" /><dc:title /></cc:Work></rdf:RDF></metadata><defs
     id="defs55" /><sodipodi:namedview
     pagecolor="#ffffff"
     bordercolor="#666666"
     borderopacity="1"
     objecttolerance="10"
     gridtolerance="10"
     guidetolerance="10"
     inkscape:pageopacity="0"
     inkscape:pageshadow="2"
     inkscape:window-width="1920"
     inkscape:window-height="1057"
     id="namedview53"
     showgrid="false"
     inkscape:zoom="69.563047"
     inkscape:cx="6.4707764"
     inkscape:cy="12.075225"
     inkscape:window-x="3832"
     inkscape:window-y="-8"
     inkscape:window-maximized="1"
     inkscape:current-layer="Layer_1"
     fit-margin-top="0"
     fit-margin-left="0"
     fit-margin-right="0"
     fit-margin-bottom="0" /><g
     id="g3"
     transform="matrix(0.53367153,0,0,0.55035118,5.784865,5.3828623)"><g
       id="g5"><g
         id="g7"><path
           d="M 21,24 5.221,24 C 3.644,24 2.5,22.738 2.5,21 L 2.5,4 C 2.5,3.724 2.724,3.5 3,3.5 3.276,3.5 3.5,3.724 3.5,4 l 0,17 c 0,0.996 0.532,2 1.721,2 L 20.5,23 20.5,6.5 C 20.5,6.224 20.724,6 21,6 c 0.276,0 0.5,0.224 0.5,0.5 l 0,17 c 0,0.276 -0.224,0.5 -0.5,0.5 z"
           id="path9"
           inkscape:connector-curvature="0" /></g><g
         id="g11"><path
           d="M 21,7 14,7 C 13.724,7 13.5,6.776 13.5,6.5 13.5,6.224 13.724,6 14,6 l 6.049,0 c -0.708,-1.431 -0.708,-3.569 0,-5 L 5.721,1 C 4.559,1 3.5,1.953 3.5,3 l 0,1 c 0,1.047 1.059,2 2.221,2 L 8,6 C 8.276,6 8.5,6.224 8.5,6.5 8.5,6.776 8.276,7 8,7 L 5.721,7 C 4.005,7 2.5,5.598 2.5,4 l 0,-1 C 2.5,1.402 4.005,0 5.721,0 L 21,0 c 0.202,0 0.385,0.122 0.462,0.309 0.078,0.187 0.035,0.402 -0.108,0.545 -1.113,1.113 -1.113,4.18 0,5.293 0.143,0.143 0.186,0.358 0.108,0.545 C 21.385,6.878 21.202,7 21,7 Z"
           id="path13"
           inkscape:connector-curvature="0" /></g><g
         id="g15"><path
           d="M 20,4 5.5,4 C 5.224,4 5,3.776 5,3.5 5,3.224 5.224,3 5.5,3 L 20,3 c 0.276,0 0.5,0.224 0.5,0.5 C 20.5,3.776 20.276,4 20,4 Z"
           id="path17"
           inkscape:connector-curvature="0" /></g></g><g
       id="g19"><path
         d="m 14,16 c -0.13,0 -0.258,-0.051 -0.354,-0.146 L 11,13.207 8.354,15.853 C 8.211,15.996 7.996,16.039 7.809,15.961 7.622,15.885 7.5,15.702 7.5,15.5 l 0,-12 C 7.5,3.224 7.724,3 8,3 8.276,3 8.5,3.224 8.5,3.5 l 0,10.793 2.146,-2.146 c 0.195,-0.195 0.512,-0.195 0.707,0 l 2.146,2.146 0,-10.793 C 13.5,3.224 13.724,3 14,3 c 0.276,0 0.5,0.224 0.5,0.5 l 0,12 c 0,0.202 -0.122,0.385 -0.309,0.462 C 14.129,15.988 14.064,16 14,16 Z"
         id="path21"
         inkscape:connector-curvature="0" /></g></g><g
     id="g23"
     transform="translate(0.01842654,-0.24011457)" /><g
     id="g25"
     transform="translate(0.01842654,-0.24011457)" /><g
     id="g27"
     transform="translate(0.01842654,-0.24011457)" /><g
     id="g29"
     transform="translate(0.01842654,-0.24011457)" /><g
     id="g31"
     transform="translate(0.01842654,-0.24011457)" /><g
     id="g33"
     transform="translate(0.01842654,-0.24011457)" /><g
     id="g35"
     transform="translate(0.01842654,-0.24011457)" /><g
     id="g37"
     transform="translate(0.01842654,-0.24011457)" /><g
     id="g39"
     transform="translate(0.01842654,-0.24011457)" /><g
     id="g41"
     transform="translate(0.01842654,-0.24011457)" /><g
     id="g43"
     transform="translate(0.01842654,-0.24011457)" /><g
     id="g45"
     transform="translate(0.01842654,-0.24011457)" /><g
     id="g47"
     transform="translate(0.01842654,-0.24011457)" /><g
     id="g49"
     transform="translate(0.01842654,-0.24011457)" /><g
     id="g51"
     transform="translate(0.01842654,-0.24011457)" /><ellipse
     style="opacity:1;fill:none;fill-opacity:1;fill-rule:nonzero;stroke:#000000;stroke-width:1.57380605;stroke-miterlimit:4;stroke-dasharray:none;stroke-opacity:1"
     id="path13835"
     cx="12.002751"
     cy="11.917556"
     rx="11.215848"
     ry="11.130652" /><path
     style="opacity:1;fill:#908470;fill-opacity:1;fill-rule:nonzero;stroke:#000000;stroke-width:0.67549706;stroke-miterlimit:4;stroke-dasharray:none;stroke-opacity:1"
     d="M 10.764291,21.980406 C 6.5065871,21.459621 2.9775274,18.413321 1.9217927,14.347524 1.5438918,12.89217 1.5137273,11.229804 1.837168,9.6838611 2.4469015,6.7695321 4.5391684,4.1008535 7.2921339,2.7260727 10.678994,1.034737 14.817281,1.286989 17.940141,3.3751289 c 1.624568,1.0862881 2.984914,2.7006427 3.732265,4.4291631 1.444915,3.341894 1.000086,7.15191 -1.17523,10.066007 -2.226465,2.982618 -5.982651,4.568821 -9.732885,4.110107 z m 6.337985,-3.614256 c 0.09853,-0.08892 0.103329,-0.31208 0.103329,-4.811462 l 0,-4.7182186 L 17.01293,8.5509773 C 16.782139,8.2090065 16.69708,7.8524295 16.69708,7.2268907 c 0,-0.545534 0.102422,-0.9340588 0.337386,-1.2798295 0.197101,-0.2900505 0.210185,-0.3933132 0.06629,-0.5231593 -0.09657,-0.087139 -0.445733,-0.09339 -4.421341,-0.079158 L 8.3629237,5.3601972 8.08041,5.4900246 C 7.9250274,5.5614296 7.678798,5.746342 7.5332339,5.9009407 7.060889,6.4026029 7.0873768,6.0214552 7.1046157,12.068552 l 0.015247,5.348539 0.1221448,0.225363 c 0.1657209,0.305762 0.4528458,0.587398 0.7253965,0.71153 0.2126323,0.09684 0.4866283,0.103008 4.628777,0.104172 4.018605,0.0011 4.411782,-0.0069 4.506095,-0.092 z"
     id="path13837"
     inkscape:connector-curvature="0" /><ellipse
     style="opacity:1;fill:none;fill-opacity:1;fill-rule:nonzero;stroke:#ffffff;stroke-width:1.37010336;stroke-miterlimit:4;stroke-dasharray:none;stroke-opacity:1"
     id="path13835-2"
     cx="12.087948"
     cy="11.889156"
     rx="9.8125591"
     ry="9.6421661" /><path
     style="opacity:1;fill:#ffffff;fill-opacity:1;fill-rule:nonzero;stroke:none;stroke-width:18;stroke-miterlimit:4;stroke-dasharray:none;stroke-opacity:1"
     d="m 8.1724072,17.920981 c -0.22703,-0.114064 -0.389871,-0.356812 -0.4606029,-0.686624 -0.036855,-0.171847 -0.055357,-1.628188 -0.055357,-4.357282 0,-3.900553 0.00437,-4.0952324 0.090113,-4.0180108 0.049562,0.044635 0.2175592,0.1456926 0.3733265,0.2245735 0.2580439,0.130674 0.343848,0.1452941 0.9654995,0.1645114 l 0.6822863,0.021092 0,2.3804932 c 0,2.240788 0.00553,2.385495 0.094168,2.465714 0.051792,0.04687 0.1384068,0.08522 0.1924768,0.08522 0.05791,0 0.410221,-0.311393 0.857326,-0.757752 l 0.759017,-0.757752 0.726442,0.757752 c 0.751319,0.783702 0.867081,0.858417 1.048663,0.676834 0.07124,-0.07124 0.08092,-0.366917 0.08092,-2.471678 l 0,-2.390761 1.596292,0 1.596293,0 0,4.376931 0,4.376931 -4.183832,-1.03e-4 c -3.8804326,-5.2e-5 -4.1968257,-0.0066 -4.3630308,-0.09011 l 0,2.3e-5 z"
     id="path13810"
     inkscape:connector-curvature="0" /><path
     style="opacity:1;fill:#ffffff;fill-opacity:1;fill-rule:nonzero;stroke:none;stroke-width:18;stroke-miterlimit:4;stroke-dasharray:none;stroke-opacity:1"
     d="m 10.3341,10.402233 0,-2.7927068 1.313079,0 1.313079,0 -0.0019,2.7935118 -0.0019,2.793512 -0.580121,-0.605046 c -0.429196,-0.447636 -0.612714,-0.605047 -0.705399,-0.605047 -0.09117,0 -0.290207,0.1645 -0.731097,0.604242 l -0.605819,0.604241 0,-2.792707 z"
     id="path13812"
     inkscape:connector-curvature="0" /><path
     style="opacity:1;fill:#ffffff;fill-opacity:1;fill-rule:nonzero;stroke:none;stroke-width:18;stroke-miterlimit:4;stroke-dasharray:none;stroke-opacity:1"
     d="M 8.3220842,8.5375666 C 8.0673786,8.4029155 7.7769794,8.0672649 7.7116549,7.8320174 7.6411227,7.578016 7.6415676,7.0215195 7.7125071,6.766029 7.7862999,6.5002621 8.1830172,6.1071054 8.4605682,6.0246818 8.6194021,5.9775134 9.6478464,5.9617404 12.564532,5.9617404 l 3.892016,0 -0.07178,0.1717961 c -0.03948,0.094488 -0.100152,0.3257739 -0.134829,0.513969 l -0.06305,0.3421729 -3.805946,0.013837 c -3.6996368,0.013451 -3.8079867,0.016629 -3.8790216,0.1137925 -0.1012778,0.1385302 -0.091329,0.2679913 0.02991,0.3892313 0.090503,0.090503 0.1716444,0.1029866 0.669413,0.1029866 l 0.5664264,0 0,0.514933 0,0.5149331 -0.630793,-0.00228 C 8.620721,8.6352543 8.4726484,8.6171631 8.3220842,8.5375666 Z"
     id="path13814"
     inkscape:connector-curvature="0" /><path
     style="opacity:1;fill:#ffffff;fill-opacity:1;fill-rule:nonzero;stroke:none;stroke-width:18;stroke-miterlimit:4;stroke-dasharray:none;stroke-opacity:1"
     d="m 13.526685,8.1502059 0,-0.5406797 1.338826,0 1.338825,0 0.003,0.1158599 c 0.0031,0.1206023 0.157535,0.7185105 0.22612,0.8753862 0.037,0.08464 -0.05007,0.090113 -1.433672,0.090113 l -1.473068,0 0,-0.5406797 z"
     id="path13816"
     inkscape:connector-curvature="0" /></svg>