<svg xmlns="http://www.w3.org/2000/svg" data-name="Layer 1" height="38" viewBox="0 0 27 38.000001" width="27" version="1.1"><title>accommodation-pin</title><g transform="translate(0 -.120)"><path d="m13.5 38.1a0.79 0.788 0 0 1 -0.5 -0.2c-0.6-0.4-13-11.3-13-24.3a13.5 13.5 0 0 1 27 0c0 13-12.4 23.9-13 24.3a0.79 0.788 0 0 1 -0.5 0.2z" stroke-width=".998"/><path d="m13.5 1.59a11.9 11.9 0 0 0 -11.9 11.9c-0.01 10.9 9.5 20.5 11.9 22.7 2.4-2.2 11.9-11.8 11.9-22.7a11.9 11.9 0 0 0 -11.9 -11.9z" fill="#fff"/><path d="m13.5 3.31a10 10.6 0 0 0 -10 10.6c0 9.64 8.03 18.2 10 20.2 1.99-1.99 10-10.5 10-20.2a10 10.6 0 0 0 -10 -10.6z" fill="#fc0"/></g><path d="m6.7 5.59c-0.471 0-0.471 0.811 0 0.811h0.432v7.29h-3c-0.233-0.0065-0.426 0.177-0.432 0.41v5.68c0.00536 0.233 0.199 0.417 0.432 0.41h6.27l-1.46 3.49c-0.0662 0.118-0.0662 0.263 0 0.381 0.0818 0.112 0.211 0.178 0.35 0.18h8.56c0.169 0.031 0.341-0.0391 0.439-0.18 0.0662-0.118 0.0662-0.263 0-0.381l-1.4-3.5h6.2c0.228 0.00002 0.415-0.182 0.42-0.41v-5.67c-0.0054-0.232-0.198-0.416-0.43-0.41h-3v-7.3h0.391c0.471 0 0.471-0.811 0-0.811z"/><g fill="#fff"><path d="m7.99 6.4h11.1v7.7a0.42 0.42 0 0 0 0.43 0.41h3v4.87h-5.98v-3.7a0.42 0.42 0 0 0 -0.43 -0.41h-5.13a0.42 0.42 0 0 0 -0.43 0.41v3.7h-6.04v-4.87h3a0.42 0.42 0 0 0 0.43 -0.41z"/><path d="m11.4 16.1h1.71v3.25h-1.71z"/><path d="m14 16.1h1.74v3.25h-1.74z"/><path d="m11.3 20.2h4.53l1.37 3.24h-7.3z"/></g><path d="m9.26 11.3c-0.232-0.0054-0.424 0.178-0.43 0.41v2.43c0.00537 0.232 0.198 0.416 0.43 0.41h3.43c0.228 0.00002 0.415-0.182 0.42-0.41v-2.43c-0.0054-0.232-0.198-0.416-0.43-0.41zm0.43 0.811h0.881v1.63h-0.91zm1.74 0h0.83v1.63h-0.83z"/><path d="m14.4 11.3c-0.232-0.0054-0.424 0.178-0.43 0.41v2.43c0.0054 0.232 0.198 0.416 0.43 0.41h3.42c0.232 0.0054 0.424-0.178 0.43-0.41v-2.43c-0.0054-0.232-0.198-0.416-0.43-0.41zm0.42 0.811h0.859v1.63h-0.859zm1.72 0h0.852v1.63h-0.852z"/><path d="m9.26 7.2c-0.23-0.01-0.42 0.18-0.43 0.41v2.43c0.00537 0.232 0.198 0.416 0.43 0.41h3.43c0.228 0.00002 0.415-0.182 0.42-0.41v-2.38c0-0.23-0.2-0.42-0.4-0.41zm0.43 0.82h0.91v1.62h-0.91zm1.74 0h0.83v1.62h-0.83z"/><path d="m14.4 7.2c-0.232-0.00541-0.424 0.178-0.43 0.41v2.43c0.0054 0.232 0.198 0.416 0.43 0.41h3.42c0.232 0.0054 0.424-0.178 0.43-0.41v-2.38c0-0.23-0.1-0.42-0.4-0.41zm0.42 0.82h0.859v1.62h-0.859zm1.72 0h0.852v1.62h-0.852z"/><path d="m5.84 15.3c-0.232-0.0054-0.424 0.178-0.43 0.41v2.43c0.00537 0.232 0.198 0.416 0.43 0.41h3.42c0.232 0.0054 0.424-0.178 0.43-0.41v-2.4c-0.01-0.2-0.2-0.4-0.43-0.4zm0.43 0.82h0.85v1.7h-0.859zm1.71 0h0.859v1.7h-0.859z"/><path d="m17.8 15.3c-0.232-0.0054-0.424 0.178-0.43 0.41v2.43c0.0054 0.232 0.198 0.416 0.43 0.41h3.42c0.232 0.0054 0.424-0.178 0.43-0.41v-2.43c-0.0054-0.232-0.198-0.416-0.43-0.41zm0.4 0.8h0.85v1.7h-0.859zm1.71 0h0.85v1.7h-0.85z"/></svg>
