<svg xmlns="http://www.w3.org/2000/svg" data-name="Layer 1" height="38" viewBox="0 0 27 38.000001" width="27" version="1.1"><title>cruise-pin</title><path d="m13.5 38a0.79 0.78751 0 0 1 -0.52 -0.189c-0.53-0.459-12.98-11.345-12.98-24.354a13.5 13.457 0 0 1 27 0c0 13.009-12.45 23.925-13 24.344a0.79 0.78751 0 0 1 -0.5 0.19937z" stroke-width=".99842"/><path d="m13.5 1.47a11.92 11.92 0 0 0 -11.91 11.91c0 10.87 9.55 20.5 11.91 22.75 2.36-2.25 11.91-11.9 11.91-22.75a11.92 11.92 0 0 0 -11.91 -11.91z" fill="#fff"/><path d="m13.5 3.1934c-5.5309 0.005-10.013 4.7294-10.018 10.559 0 4.135 1.4824 8.0632 3.3281 11.363 1.094-0.6885 1.9496-1.9998 3.1442-1.8024 1.7289 0.28571 1.9002 1.9008 3.5785 1.7907 1.0601-0.0696 1.9668-1.6231 3.2598-1.7344 1.1752-0.10111 2.4238 1.1445 3.5547 1.4434 1.7701-3.2402 3.1699-7.0538 3.1699-11.061-0.005-5.8282-4.487-10.553-10.018-10.558zm-3.6348 22.209c-0.95107-0.0074-1.4609 0.80521-2.0293 1.4355 2.2328 3.5159 4.6846 6.0979 5.6641 7.082 0.97386-0.97852 3.4026-3.542 5.625-7.0293-0.60092-0.55841-1.6612-1.3346-2.4062-1.3867-1.4441-0.10103-2.0057 1.9391-3.2207 1.7695-1.462-0.204-2.268-1.86-3.6328-1.871z" fill="#039"/><g fill="#fff"><path d="m11.48 6.5605h1.4805v2.2695h1v-2.2695h1.5195c0.66776 0 0.71448-0.91016 0-0.91016h-4c-0.62219 0-0.62121 0.91016 0 0.91016z"/><path d="m20.992 12.999v-2.4689c0-0.43893 1-0.44117 1 0v2.4689z"/><path d="m4.9166 13.13v-2.6097c0-0.51074 1-0.50746 1 0v2.6097z"/><path d="m8.93 9.1651v-2.2851c0-0.66579 1-0.69059 1 0v2.2951z"/><path d="m16.99 9.2551v-2.3751c0-0.68895 1-0.6711 1 0v2.3751z"/></g><path d="m18.07 26.67a1.67 1.67 0 0 0 -1.32 -0.79c-0.63 0-0.93 0.35-1.32 0.79a2.5 2.5 0 0 1 -2 1.1 2.5 2.5 0 0 1 -2 -1.1c-0.39-0.44-0.69-0.79-1.32-0.79a1.66 1.66 0 0 0 -1.32 0.79 2.5 2.5 0 0 1 -2 1.1c-0.52-0.22 0-0.94 0-0.94 0.63 0 0.93-0.35 1.32-0.79a2.51 2.51 0 0 1 2 -1.1 2.5 2.5 0 0 1 2 1.1c0.39 0.44 0.69 0.79 1.32 0.79s0.93-0.35 1.32-0.79a2.51 2.51 0 0 1 2 -1.1 2.51 2.51 0 0 1 2 1.1c3.06-0.11 2.01 2.19-0.68 0.63z"/><path d="m13.35 8.3702-6.0004 0.9102c-0.2321 0.0247-0.4109 0.216-0.4199 0.4492v2.2695c0.010814 0.05281 0.029932 0.10357 0.056641 0.15039l-1.666 0.28125c-0.22825 0.02915-0.40184 0.21926-0.41016 0.44922v2.6465l-0.5703 0.114c-0.1428 0.027-0.2668 0.114-0.3398 0.24-0.0642 0.122-0.0642 0.268 0 0.391l3.8086 7.339c-0.111 0.099-0.2142 0.206-0.3086 0.321-0.35028 0.46243-0.89086 0.7417-1.4707 0.75977 0 0-0.58 0.70016 0 0.91016 0.85874-0.0067 1.671-0.39101 2.2207-1.0508 0.39616-0.47766 0.89408-0.69755 1.4707-0.75976 0.57578-0.06213 1.118 0.29898 1.4688 0.75977 1.1446 1.4103 3.2968 1.4103 4.4414 0 0.53898-0.78428 1.6089-1.0502 2.4141-0.54297 0.23454 0.14774 0.34422 0.41551 0.58594 0.543 2.9707 1.5669 4.1783-0.66914 0.73828-0.61914-0.06899-0.08356-0.14268-0.16312-0.2207-0.23832l3.852-7.422c0.06424-0.12229 0.06424-0.26834 0-0.39062-0.06418-0.11701-0.17248-0.20351-0.30078-0.24023l-0.699-0.139v-2.6211c-0.0046-0.21702-0.15712-0.40269-0.36914-0.44922l-1.7207-0.29102c0.01676-0.04514 0.02664-0.09255 0.0293-0.14062v-2.2694c-0.009-0.2332-0.187-0.4245-0.419-0.4492l-6-0.91016z"/><g fill="#fff"><path d="m13.471 9.2902 5.5391 0.83008v1.8672l-5.4395-0.91797a0.53 0.53 0 0 0 -0.18945 0l-5.4512 0.91992v-1.8691z"/><path d="m13.461 11.999 7.5586 1.2812v2.0234l-7.389-1.474a0.55 0.55 0 0 0 -0.2207 0l-7.5 1.498v-2.0469z"/><path d="m13.471 14.771 8.3398 1.6699-3.4922 6.6875a2.86 2.86 0 0 0 -3.3887 0.80273 1.81 1.81 0 0 1 -0.96875 0.71484v-8.567a0.51 0.51 0 0 0 -0.53711 -0.4082 0.51 0.51 0 0 0 -0.46289 0.4082v8.584a1.81 1.81 0 0 1 -1.0312 -0.73242 2.86 2.86 0 0 0 -3.3105 -0.83008l-3.5-6.7012z"/></g><path d="m8.43 14.27a0.49 0.49 0 0 1 -0.5 -0.39 0.46 0.46 0 0 1 0.39 -0.53l2.53-0.47a0.51 0.51 0 0 1 0.59 0.36 0.46 0.46 0 0 1 -0.4 0.53l-2.52 0.45z"/><path d="m18.5 14.27h-0.1l-2.52-0.45a0.46 0.46 0 0 1 -0.4 -0.53 0.51 0.51 0 0 1 0.59 -0.36l2.52 0.45a0.46 0.46 0 0 1 0.41 0.5 0.49 0.49 0 0 1 -0.5 0.39z"/></svg>
