<svg id="Layer_1" data-name="Layer 1" xmlns="http://www.w3.org/2000/svg" width="24.01" height="23.84" viewBox="0 0 24.01 23.84">
  <title>document-pin</title>
  <ellipse id="path13835" cx="12" cy="11.92" rx="11.22" ry="11.13" fill="none" stroke="#000" stroke-width="1.57"/>
  <ellipse id="path13835-2" cx="12.09" cy="11.89" rx="9.81" ry="9.64" fill="#c00" stroke="#fff" stroke-width="1.37"/>
  <g id="g3">
    <g id="g5">
      <g id="g7">
        <g id="g9">
          <path id="path11" d="M16.94,18.68H7a.29.29,0,0,1-.29-.29V8.6a.29.29,0,0,1,.09-.2l3.52-3.46a.3.3,0,0,1,.21-.08h6.45a.29.29,0,0,1,.29.29V18.39A.29.29,0,0,1,16.94,18.68Zm-9.68-.58h9.39V5.43h-6L7.26,8.71Z"/>
        </g>
        <g id="g13">
          <path id="path15" d="M10.49,8.88H7a.29.29,0,1,1,0-.58H10.2V5.14a.29.29,0,0,1,.59,0V8.6A.29.29,0,0,1,10.49,8.88Z"/>
        </g>
      </g>
    </g>
    <g id="g17">
      <path id="path19" d="M8.7,17.57a1.27,1.27,0,0,1-.35,0c-.41-.12-.49-.36-.5-.5,0-.48.85-1.16,2.64-2,.21-.41.38-.8.5-1.09l.11-.24a9,9,0,0,0,.35-1A3.06,3.06,0,0,1,10.91,10a.82.82,0,0,1,.75-.56h0a.69.69,0,0,1,.58.32c.36.55.14,1.8-.15,2.82a4.14,4.14,0,0,0,.36.4,8.22,8.22,0,0,0,1.07.89,3.44,3.44,0,0,1,2.19.15.72.72,0,0,1,.35.61.59.59,0,0,1-.37.57,3.09,3.09,0,0,1-2.29-.72,6.83,6.83,0,0,0-1.33.41l-1.14.52C10.38,16.5,9.63,17.57,8.7,17.57Zm-.24-.62.05,0c.51.15,1-.37,1.46-1A5.26,5.26,0,0,0,8.46,16.95Zm5.87-2.57c.59.3,1,.39,1.14.31a.16.16,0,0,0-.09-.17A2,2,0,0,0,14.33,14.38Zm-2.45-1.12c-.09.26-.18.49-.25.65l-.1.24-.21.47.51-.23a7.16,7.16,0,0,1,.94-.33,8.56,8.56,0,0,1-.74-.65ZM11.66,10c-.08,0-.15.07-.21.2a2.26,2.26,0,0,0,.22,1.68,3.18,3.18,0,0,0,.09-1.82A.1.1,0,0,0,11.66,10Z"/>
    </g>
  </g>
  <path id="path13948" d="M7.25,13.49V8.89H8.92c1.44,0,1.68,0,1.76-.09s.09-.31.09-1.73V5.42h5.85V18.09H7.25Zm2.09,3.9A4.08,4.08,0,0,0,10.63,16l.32-.53.62-.29a12.14,12.14,0,0,1,1.2-.47l.58-.18.55.29a3.17,3.17,0,0,0,1.46.49c.48,0,.7-.21.7-.67a.57.57,0,0,0-.17-.39A2.19,2.19,0,0,0,14,13.82c-.51.06-.51.06-.74-.1a8.48,8.48,0,0,1-.71-.62l-.48-.46.07-.33a4.1,4.1,0,0,0,.11-2.41c-.36-.71-1.19-.53-1.44.32a3,3,0,0,0,.41,2.17l.19.35-.15.39c-.08.21-.29.71-.47,1.11l-.32.72-.6.32c-1.35.72-2,1.29-2,1.69C7.87,17.51,8.65,17.73,9.34,17.38Z" fill="#fff" stroke="#fff" stroke-width="0.04"/>
  <path id="path13950" d="M8.57,17c-.06,0,0-.1.15-.24A5.91,5.91,0,0,1,9.89,16s-.49.68-.7.81S8.68,17,8.57,17Z" fill="#fff" stroke="#fff" stroke-width="0.04"/>
  <path id="path13954" d="M11.54,11.6c-.21-.5-.17-1.46.06-1.54s.3.43.2,1.17S11.67,11.91,11.54,11.6Z" fill="#fff" stroke="#fff" stroke-width="0.04"/>
  <path id="path13956" d="M11.6,14a5.31,5.31,0,0,0,.25-.66,4.34,4.34,0,0,1,.87.7,1.71,1.71,0,0,1-.44.19,6.84,6.84,0,0,0-.64.25.92.92,0,0,1-.24.09A1.83,1.83,0,0,1,11.6,14Z" fill="#fff" stroke="#fff" stroke-width="0.04"/>
  <path id="path13958" d="M15,14.64a2.54,2.54,0,0,1-.45-.16c-.15-.08-.15-.08.17-.09s.72.12.72.22S15.35,14.72,15,14.64Z" fill="#fff" stroke="#fff" stroke-width="0.04"/>
  <path id="path13960" d="M8.44,7.55c.42-.42,1-1,1.26-1.23l.5-.46V8.32H7.68Z" fill="#fff" stroke="#fff" stroke-width="0.04"/>
</svg>
