<svg xmlns="http://www.w3.org/2000/svg" data-name="Layer 1" height="38" viewBox="0 0 27 38.000001" width="27" version="1.1"><title>pin-activity</title><g transform="translate(0 -.120)"><path d="m13.5 38.1a0.79 0.788 0 0 1 -0.5 -0.2c-0.6-0.4-13-11.3-13-24.3a13.5 13.5 0 0 1 27 0c0 13-12.4 23.9-13 24.3a0.79 0.788 0 0 1 -0.5 0.2z" stroke-width=".998"/><path d="m13.5 1.59a11.9 11.9 0 0 0 -11.9 11.9c-0.01 10.9 9.5 20.5 11.9 22.7 2.4-2.2 11.9-11.8 11.9-22.7a11.9 11.9 0 0 0 -11.9 -11.9z" fill="#fff"/><path d="m13.5 3.31a10 10.6 0 0 0 -10 10.6c0 9.64 8.03 18.2 10 20.2 1.99-1.99 10-10.5 10-20.2a10 10.6 0 0 0 -10 -10.6z" fill="#ba00ff"/></g><path d="m13.5 5.23c-9.22 0.1-13.7 11.3-7.19 17.7 6.49 6.5 17.6 1.9 17.6-7.3 0-5.77-4.7-10.4-10.4-10.4z"/><path fill="#fff" d="m13.9 25v-0.88c0-0.607-0.91-0.607-0.91 0v0.88c-4.89-0.21-8.82-4.11-9.07-9h0.89c0.6 0 0.6-0.9 0-0.9h-0.88c0.45-4.9 4.57-8.68 9.46-8.68 4.93 0 9.05 3.76 9.5 8.67h-0.8c-0.6 0-0.6 0.9 0 0.9h0.9c-0.249 4.89-4.18 8.79-9.08 9z"/><path d="m15.9 8.31c-0.237-0.0728-0.489 0.0555-0.57 0.29-0.0786 0.238 0.0516 0.494 0.29 0.57 5.17 1.82 6.14 8.71 1.68 11.9-4.4 3.1-10.6 0-10.7-5.5 0.00442-2.92 1.9-5.51 4.68-6.4 0.238-0.0763 0.369-0.332 0.29-0.57-0.1-0.29-0.4-0.42-0.6-0.32-5.89 1.99-7.04 9.89-1.98 13.5 5.08 3.6 12.1 0 12.1-6.2 0-3.3-2.1-6.26-5.2-7.29z"/><path d="m12.6 9.72c0.245-0.00544 0.44-0.205 0.44-0.45v-0.71l1 1c0.0857 0.0833 0.2 0.13 0.32 0.13 0.249 0 0.45-0.201 0.45-0.45v-1.77c0-0.607-0.91-0.607-0.91 0v0.71l-1-1c-0.131-0.131-0.328-0.171-0.5-0.1-0.17 0.0695-0.281 0.236-0.28 0.42v1.8c0.016 0.249 0.231 0.437 0.48 0.42z"/><path d="m12.2 15 1.75 1.78-3.3 1.48zm3.94-2.12-1.5 3.26-1.8-1.78zm-6.12 6.73 5-2.25 0.15-0.15 2.27-4.95c0.223-0.487-0.121-0.805-0.6-0.59l-5 2.25-0.15 0.15-2.32 4.91c-0.269 0.569 0.244 0.813 0.65 0.63z"/></svg>
