<svg xmlns="http://www.w3.org/2000/svg" data-name="Layer 1" height="38" viewBox="0 0 27 38.000001" width="27" version="1.1"><title>meal-pin</title><g transform="translate(0 -.120)"><path d="m13.5 38.1a0.79 0.788 0 0 1 -0.5 -0.2c-0.6-0.4-13-11.3-13-24.3a13.5 13.5 0 0 1 27 0c0 13-12.4 23.9-13 24.3a0.79 0.788 0 0 1 -0.5 0.2z" stroke-width=".998"/><path d="m13.5 1.59a11.9 11.9 0 0 0 -11.9 11.9c-0.01 10.9 9.5 20.5 11.9 22.7 2.4-2.2 11.9-11.8 11.9-22.7a11.9 11.9 0 0 0 -11.9 -11.9z" fill="#fff"/><path d="m13.5 3.31a10 10.6 0 0 0 -10 10.6c0 9.64 8.03 18.2 10 20.2 1.99-1.99 10-10.5 10-20.2a10 10.6 0 0 0 -10 -10.6z" fill="#9c3"/></g><path d="m8.75 27.3a2.64 2.64 0 0 1 -1.81 -0.69 2 2 0 0 1 -0.66 -1.63l0.81-9.95a3.54 3.54 0 0 1 -2.42 -3.84l0.95-5.55a0.51 0.51 0 0 1 0.52 -0.39 0.5 0.5 0 0 1 0.5 0.42l0.46 4.82c0 0.3 0.63 0.3 0.66 0l0.47-4.82a0.53 0.53 0 0 1 1 0l0.46 4.83c0 0.3 0.63 0.3 0.66 0l0.46-4.83a0.5 0.5 0 0 1 0.5 -0.42 0.5 0.5 0 0 1 0.52 0.39l0.95 5.56a3.54 3.54 0 0 1 -2.42 3.84l0.81 9.95a2 2 0 0 1 -0.66 1.63 2.65 2.65 0 0 1 -1.76 0.69z"/><path fill="#fff" d="m6 9.69-0.28 1.71a2.69 2.69 0 0 0 2.1 3 0.47 0.47 0 0 1 0.36 0.47l-0.85 10.2a1.15 1.15 0 0 0 0.38 0.94 1.6 1.6 0 0 0 2.09 0 1.15 1.15 0 0 0 0.38 -0.94l-0.84-10.3a0.47 0.47 0 0 1 0.36 -0.47 2.69 2.69 0 0 0 2.1 -3l-0.3-1.65-0.1 0.95a1.33 1.33 0 0 1 -1.37 1.11 1.38 1.38 0 0 1 -1.32 -0.78 1.38 1.38 0 0 1 -1.31 0.83 1.33 1.33 0 0 1 -1.37 -1.11z"/><path d="m18.3 27.3a2.68 2.68 0 0 1 -1.86 -0.73 2 2 0 0 1 -0.63 -1.7l0.83-7.27a0.44 0.44 0 0 1 0.15 -0.28l0.67-0.59c-0.67-0.66-1.87-2.29-1.87-5.52 0-4.49 4.48-5.94 4.53-5.95a0.59 0.59 0 0 1 0.48 0.06 0.45 0.45 0 0 1 0.22 0.38v19.5a2.38 2.38 0 0 1 -2.52 2.2z"/><path fill="#fff" d="m17.6 17.9-0.81 7.11a1.18 1.18 0 0 0 0.37 1 1.54 1.54 0 0 0 1.09 0.42 1.39 1.39 0 0 0 1.46 -1.29v-18.6a5.29 5.29 0 0 0 -3.14 4.79c0 3.88 1.86 5.13 1.87 5.14a0.46 0.46 0 0 1 0.21 0.34 0.43 0.43 0 0 1 -0.15 0.36z"/></svg>
