<svg id="Layer_1" data-name="Layer 1" xmlns="http://www.w3.org/2000/svg" width="24.01" height="23.84" viewBox="0 0 24.01 23.84">
  <title>album-pin</title>
  <ellipse id="path13835" cx="12" cy="11.92" rx="11.22" ry="11.13" fill="none" stroke="#000" stroke-width="1.57"/>
  <ellipse id="path13835-2" cx="12.09" cy="11.89" rx="9.81" ry="9.64" fill="#9c3" stroke="#fff" stroke-width="1.37"/>
  <g id="g3">
    <g id="g5">
      <path id="path7" d="M16.46,15.92H5.53a.31.31,0,0,1-.32-.31V6.37a.31.31,0,0,1,.32-.31H16.46a.31.31,0,0,1,.32.31v9.24A.31.31,0,0,1,16.46,15.92ZM5.85,15.3H16.13V6.68H5.85Z"/>
    </g>
    <g id="g9">
      <path id="path11" d="M16.46,15.92a.32.32,0,0,1-.29-.17L12.9,9.49,10.63,13.3a.32.32,0,0,1-.24.15.33.33,0,0,1-.27-.09L8.48,11.79l-2.68,4a.33.33,0,0,1-.44.09.3.3,0,0,1-.1-.43l2.89-4.31A.33.33,0,0,1,8.39,11a.33.33,0,0,1,.26.09l1.63,1.56,2.36-4a.32.32,0,0,1,.29-.16.32.32,0,0,1,.28.17l3.53,6.78a.3.3,0,0,1-.14.41A.33.33,0,0,1,16.46,15.92Z"/>
    </g>
    <g id="g13">
      <path id="path15" d="M8.74,10.38a1.54,1.54,0,1,1,1.61-1.54A1.58,1.58,0,0,1,8.74,10.38Zm0-2.46a.92.92,0,1,0,1,.92A.95.95,0,0,0,8.74,7.91Z"/>
    </g>
    <g id="g17">
      <path id="path19" d="M15.81,19a.33.33,0,0,1-.16,0L9.87,15.88a.3.3,0,0,1-.12-.42.33.33,0,0,1,.44-.12l5.51,2.93,4.19-6.88-3.6-2.3a.3.3,0,0,1-.09-.43.33.33,0,0,1,.45-.09L20.49,11a.3.3,0,0,1,.1.41l-4.5,7.39A.32.32,0,0,1,15.81,19Z"/>
    </g>
  </g>
  <path id="path13920" d="M6.24,15.15c.66-1,2.22-3.31,2.25-3.29s.42.38.89.82a8.19,8.19,0,0,0,.93.81c.19,0,.4-.3,1.44-2,.61-1,1.13-1.87,1.15-1.87s.5.9,1.07,2l1.49,2.87.45.87H6.14Z" fill="#fff" stroke="#fff" stroke-width="0.04"/>
  <path id="path13922" d="M8.36,9.66A1.36,1.36,0,0,1,8,9.4a.66.66,0,0,1-.19-.5A.79.79,0,0,1,8.33,8a.84.84,0,0,1,.83,0,.8.8,0,0,1,.51.81.8.8,0,0,1-.38.75A1.17,1.17,0,0,1,8.36,9.66Z" fill="#fff" stroke="#fff" stroke-width="0.04"/>
  <path id="path13924" d="M13.53,17.1,11.37,16H14c2.44,0,2.62,0,2.71-.12s.09-.43.11-3.24V9.45l1.52,1c.84.53,1.51,1,1.5,1s-4.09,6.75-4.12,6.78S14.71,17.74,13.53,17.1Z" fill="#fff" stroke="#fff" stroke-width="0.04"/>
</svg>
