<svg xmlns="http://www.w3.org/2000/svg" data-name="Layer 1" height="38" viewBox="0 0 27 38.000001" width="27" version="1.1"><title>transport-pin</title><g transform="translate(0 -.120)"><path d="m13.5 38.1a0.79 0.788 0 0 1 -0.5 -0.2c-0.6-0.4-13-11.3-13-24.3a13.5 13.5 0 0 1 27 0c0 13-12.4 23.9-13 24.3a0.79 0.788 0 0 1 -0.5 0.2z" stroke-width=".998"/><path d="m13.5 1.59a11.9 11.9 0 0 0 -11.9 11.9c-0.01 10.9 9.5 20.5 11.9 22.7 2.4-2.2 11.9-11.8 11.9-22.7a11.9 11.9 0 0 0 -11.9 -11.9z" fill="#fff"/><path d="m13.5 3.31a10 10.6 0 0 0 -10 10.6c0 9.64 8.03 18.2 10 20.2 1.99-1.99 10-10.5 10-20.2a10 10.6 0 0 0 -10 -10.6z" fill="#f60"/></g><path d="m11.8 4.98c-0.5-0.01-0.9 0.26-1.2 0.69l-0.6 1.21c-0.01 0.02-0.02 0.04-0.04 0.06-0.37 0.05-0.74 0.12-1.11 0.2-0.91 0.43-2.2 2.15-2.96 3.86l-0.42-0.7c-0.06-0.1-0.16-0.2-0.27-0.2-0.57-0.21-1.19-0.14-1.7 0.2-0.45 0.3-0.69 0.8-0.64 1.4 0 0.727 1.15 1.06 1.96 1.2-1.23 2.2-1.53 5.12-0.17 7.66 0.00551 0.0214 0.0127 0.0423 0.0215 0.0625v1.48c0.0218 0.713 0.617 1.27 1.33 1.25h0.84c0.713 0.0225 1.31-0.537 1.33-1.25v-0.779c1.76 0.212 3.54 0.332 5.31 0.359 1.77-0.0275 3.55-0.147 5.31-0.359v0.779c0.0218 0.713 0.617 1.27 1.33 1.25h0.9c0.709 0.017 1.3-0.541 1.32-1.25v-1.51c1.21-2.45 1.18-5.43-0.162-7.67 0.805-0.143 1.93-0.48 1.93-1.2 0.0467-0.558-0.195-1.1-0.641-1.44-0.5-0.41-1.1-0.49-1.6-0.3-0.114 0.0306-0.211 0.106-0.27 0.209l-0.414 0.785c-0.8-1.76-2.1-3.53-3-3.96-0.4-0.08-0.7-0.16-1.1-0.22v-0.04l-0.7-1.21c-0.2-0.43-0.6-0.7-1.1-0.69z"/><g fill="#fff"><path d="m15.2 5.88c0.15 0.00358 0.287 0.0831 0.365 0.211l0.369 0.697c-0.9-0.09-1.7-0.13-2.5-0.11-0.8-0.02-1.6 0.01-2.4 0.1l0.3-0.67c0.0797-0.146 0.235-0.234 0.4-0.229h3.33c0.0078-0.00086 0.0156-0.00151 0.0234-0.00195z"/><path d="m14.1 7.51c1.21 0.00604 2.41 0.133 3.6 0.379 0.635 0.303 1.99 2.02 2.69 3.85-0.933 0.0715-5.24 0.379-6.9 0.379-1.67 0-6.04-0.32-6.94-0.383 0.71-1.8 2.06-3.52 2.7-3.82 1.39-0.285 2.8-0.406 4.22-0.361 0.211-0.00629 0.422-0.00889 0.633-0.00781z"/><path d="m4.77 10.8 0.59 1.1-0.38 0.2c-0.44-0.1-0.86-0.3-1.26-0.4-0.04-0.3 0.07-0.6 0.28-0.8 0.166-0.0858 0.354-0.118 0.539-0.0918z"/><path d="m22.4 10.8c0.186 0.001 0.369 0.0487 0.531 0.139 0.203 0.179 0.314 0.441 0.301 0.711-0.388 0.247-0.825 0.403-1.28 0.459l-0.359-0.17 0.59-1.12c0.0721-0.0137 0.145-0.0203 0.219-0.0195z"/><path d="m6.14 12.5c0.577 0.045 5.52 0.404 7.33 0.404s6.75-0.358 7.35-0.395c0.616 0.719 1.06 1.57 1.3 2.48h-2.01c-1.18-0.0331-2.17 0.897-2.21 2.08 0.0055 0.237 0.202 0.425 0.439 0.42h3.95c-0.08 1.17-0.313 2.11-0.643 2.52l-2.51 0.398c-0.0441 0.0062-0.087 0.0194-0.127 0.0391-1.84 0.227-3.7 0.358-5.55 0.393-1.9-0.0357-3.8-0.173-5.69-0.41-0.0181-0.0024-0.0364-0.0037-0.0547-0.0039l-2.37-0.375c-0.24-0.3-0.49-1.3-0.57-2.5h3.95c0.22 0 0.39-0.2 0.39-0.4-0.05-1.1-1-2.1-2.16-2h-2.02c0.24-1 0.69-1.8 1.32-2.6z"/><path d="m20.1 15.9h2.17c0.036 0.275 0.0536 0.553 0.0527 0.83h-3.47c0.206-0.508 0.702-0.837 1.25-0.83z"/><path d="m4.67 15.9h2.17c0.545-0.0091 1.04 0.315 1.25 0.818h-3.47c-0.0000104-0.0068 0-0.0127 0-0.0195-0.000834-0.267 0.0155-0.534 0.0488-0.799z"/></g><path d="m10.9 15.9h5.1l-0.25 1.65h-4.56zm-0.543-0.861c-0.122 0.0048-0.237 0.0591-0.318 0.15-0.0843 0.0916-0.121 0.217-0.0996 0.34l0.441 2.5c0.0434 0.207 0.228 0.354 0.439 0.35h5.31c0.211 0.0042 0.396-0.143 0.439-0.35l0.439-2.5c0.0215-0.123-0.0153-0.248-0.0996-0.34-0.0863-0.0968-0.21-0.152-0.34-0.15h-6.19c-0.0078-0.000203-0.0156-0.000203-0.0234 0z"/><path fill="#fff" d="m5.51 21 1.76 0.266v0.887c-0.0055 0.237-0.202 0.425-0.439 0.42h-0.88c-0.237 0.0053-0.434-0.183-0.439-0.42z"/><path fill="#fff" d="m21.4 21v1.13c0 0.2-0.2 0.4-0.4 0.4h-0.891c-0.237 0.0053-0.434-0.183-0.439-0.42v-0.9z"/></svg>
