<?xml version="1.0" encoding="UTF-8" standalone="no"?>
<!-- Generator: Adobe Illustrator 19.0.0, SVG Export Plug-In . SVG Version: 6.00 Build 0)  -->

<svg
   xmlns:dc="http://purl.org/dc/elements/1.1/"
   xmlns:cc="http://creativecommons.org/ns#"
   xmlns:rdf="http://www.w3.org/1999/02/22-rdf-syntax-ns#"
   xmlns:svg="http://www.w3.org/2000/svg"
   xmlns="http://www.w3.org/2000/svg"
   xmlns:sodipodi="http://sodipodi.sourceforge.net/DTD/sodipodi-0.dtd"
   xmlns:inkscape="http://www.inkscape.org/namespaces/inkscape"
   version="1.1"
   id="Layer_1"
   x="0px"
   y="0px"
   viewBox="0 0 24.005503 23.835112"
   xml:space="preserve"
   inkscape:version="0.91 r13725"
   sodipodi:docname="Add Event Icon3.svg"
   width="24.005503"
   height="23.835112"
   inkscape:export-filename="C:\Users\jeffs_d1mxxsu\OneDrive\Sojoorn Media\Journey Lane\Artwork\Elements\Icons\Icons for JL 1.0\Journal Entry.png"
   inkscape:export-xdpi="753.57721"
   inkscape:export-ydpi="753.57721"><metadata
     id="metadata57"><rdf:RDF><cc:Work
         rdf:about=""><dc:format>image/svg+xml</dc:format><dc:type
           rdf:resource="http://purl.org/dc/dcmitype/StillImage" /><dc:title></dc:title></cc:Work></rdf:RDF></metadata><defs
     id="defs55" /><sodipodi:namedview
     pagecolor="#ffffff"
     bordercolor="#666666"
     borderopacity="1"
     objecttolerance="10"
     gridtolerance="10"
     guidetolerance="10"
     inkscape:pageopacity="0"
     inkscape:pageshadow="2"
     inkscape:window-width="1920"
     inkscape:window-height="1057"
     id="namedview53"
     showgrid="false"
     inkscape:zoom="19.69"
     inkscape:cx="13.082864"
     inkscape:cy="14.074807"
     inkscape:window-x="3832"
     inkscape:window-y="-8"
     inkscape:window-maximized="1"
     inkscape:current-layer="Layer_1"
     fit-margin-top="0"
     fit-margin-left="0"
     fit-margin-right="0"
     fit-margin-bottom="0" /><g
     id="g23"
     transform="translate(0.01842654,-0.24011457)" /><g
     id="g25"
     transform="translate(0.01842654,-0.24011457)" /><g
     id="g27"
     transform="translate(0.01842654,-0.24011457)" /><g
     id="g29"
     transform="translate(0.01842654,-0.24011457)" /><g
     id="g31"
     transform="translate(0.01842654,-0.24011457)" /><g
     id="g33"
     transform="translate(0.01842654,-0.24011457)" /><g
     id="g35"
     transform="translate(0.01842654,-0.24011457)" /><g
     id="g37"
     transform="translate(0.01842654,-0.24011457)" /><g
     id="g39"
     transform="translate(0.01842654,-0.24011457)" /><g
     id="g41"
     transform="translate(0.01842654,-0.24011457)" /><g
     id="g43"
     transform="translate(0.01842654,-0.24011457)" /><g
     id="g45"
     transform="translate(0.01842654,-0.24011457)" /><g
     id="g47"
     transform="translate(0.01842654,-0.24011457)" /><g
     id="g49"
     transform="translate(0.01842654,-0.24011457)" /><g
     id="g51"
     transform="translate(0.01842654,-0.24011457)" /><path
     style="opacity:1;fill:none;fill-opacity:1;fill-rule:nonzero;stroke:#000000;stroke-width:1.57380605;stroke-miterlimit:4;stroke-dasharray:none;stroke-opacity:1"
     d="M 23.218599,11.917556 A 11.215848,11.130652 0 0 1 12.002751,23.048208 11.215848,11.130652 0 0 1 0.78690338,11.917556 11.215848,11.130652 0 0 1 12.002751,0.78690338 11.215848,11.130652 0 0 1 23.218599,11.917556 Z"
     id="path13835" /><path
     style="opacity:1;fill:#ff9900;fill-opacity:1;fill-rule:nonzero;stroke:none;stroke-width:18;stroke-miterlimit:4;stroke-dasharray:none;stroke-opacity:1"
     d="M 11.055006,22.19867 C 8.5042963,21.937219 6.3088778,20.894142 4.5561933,19.110984 3.719091,18.259328 3.163033,17.472886 2.6316948,16.389135 0.89169576,12.840121 1.3627907,8.6188871 3.8471255,5.4983006 4.2410389,5.003504 5.1082884,4.1449897 5.5709688,3.7918205 8.4176007,1.6189543 12.053608,1.0063531 15.431937,2.1304268 c 3.094631,1.0296789 5.523438,3.4063535 6.572806,6.4317255 0.624459,1.8003437 0.716821,3.9336027 0.250815,5.7929967 -0.669739,2.672299 -2.416201,4.98509 -4.84285,6.413249 -1.281467,0.754184 -2.778631,1.243613 -4.323717,1.413443 -0.435429,0.04786 -1.634458,0.05778 -2.033985,0.01683 z"
     id="path13820"
     inkscape:connector-curvature="0" /><path
     style="opacity:1;fill:none;fill-opacity:1;fill-rule:nonzero;stroke:#ffffff;stroke-width:1.37010336;stroke-miterlimit:4;stroke-dasharray:none;stroke-opacity:1"
     d="M 21.900507,11.889156 A 9.8125591,9.6421661 0 0 1 12.087948,21.531322 9.8125591,9.6421661 0 0 1 2.2753887,11.889156 9.8125591,9.6421661 0 0 1 12.087948,2.2469902 9.8125591,9.6421661 0 0 1 21.900507,11.889156 Z"
     id="path13835-2" /><g
     transform="matrix(0.52472378,0,0,0.52725153,6.2405259,5.1754418)"
     id="g3"
     style="stroke:#000000;stroke-opacity:1;stroke-width:0.6197882;stroke-miterlimit:4;stroke-dasharray:none"><g
       id="g5"
       style="stroke:#000000;stroke-opacity:1;stroke-width:0.6197882;stroke-miterlimit:4;stroke-dasharray:none"><path
         inkscape:connector-curvature="0"
         d="m 21.463,15.984 c -2.226,0 -5.544,-1.796 -8.592,-4.844 C 8.768,7.038 6.933,2.446 8.693,0.686 c 1.76,-1.761 6.352,0.075 10.454,4.177 4.102,4.102 5.937,8.693 4.177,10.454 -0.452,0.452 -1.092,0.667 -1.861,0.667 z M 10.567,1.008 c -0.509,0 -0.909,0.128 -1.167,0.385 -1.149,1.15 0.283,5.146 4.177,9.04 3.894,3.894 7.891,5.329 9.04,4.177 C 23.766,13.46 22.334,9.464 18.44,5.57 15.417,2.548 12.333,1.008 10.567,1.008 Z"
         id="path7"
         style="stroke:#000000;stroke-opacity:1;stroke-width:0.6197882;stroke-miterlimit:4;stroke-dasharray:none" /></g><g
       id="g9"
       style="stroke:#000000;stroke-opacity:1;stroke-width:0.6197882;stroke-miterlimit:4;stroke-dasharray:none"><path
         inkscape:connector-curvature="0"
         d="M 3.956,24.001 C 3.726,24.001 3.443,23.946 3.1,23.799 2.552,23.564 1.953,23.138 1.413,22.598 0.873,22.058 0.447,21.459 0.212,20.911 -0.188,19.978 0.095,19.496 0.299,19.292 0.477,19.113 0.856,18.885 1.553,19.08 L 8.046,3.311 C 8.152,3.056 8.442,2.936 8.699,3.039 8.954,3.144 9.076,3.436 8.971,3.692 L 2.293,19.91 C 2.241,20.037 2.139,20.137 2.011,20.186 1.883,20.234 1.739,20.23 1.616,20.171 1.23,19.987 1.028,19.994 0.988,20.012 0.947,20.143 1.173,20.944 2.12,21.891 3.067,22.838 3.87,23.065 4.027,22.994 4.016,22.982 4.022,22.774 3.833,22.381 3.773,22.257 3.768,22.114 3.817,21.985 3.866,21.857 3.966,21.754 4.094,21.702 L 20.32,15.04 c 0.253,-0.106 0.548,0.017 0.652,0.272 0.105,0.255 -0.017,0.547 -0.272,0.652 L 4.925,22.44 c 0.203,0.707 -0.027,1.092 -0.207,1.271 -0.129,0.129 -0.368,0.29 -0.762,0.29 z"
         id="path11"
         style="stroke:#000000;stroke-opacity:1;stroke-width:0.6197882;stroke-miterlimit:4;stroke-dasharray:none" /></g><g
       id="g13"
       style="stroke:#000000;stroke-opacity:1;stroke-width:0.6197882;stroke-miterlimit:4;stroke-dasharray:none"><path
         inkscape:connector-curvature="0"
         d="m 10.982,23.711 c -0.552,0 -1.081,-0.306 -1.342,-0.828 L 8.561,20.724 C 8.437,20.477 8.538,20.177 8.785,20.053 9.032,19.93 9.333,20.03 9.456,20.277 l 1.079,2.159 c 0.118,0.236 0.402,0.339 0.642,0.235 l 5.163,-2.212 c 0.127,-0.055 0.224,-0.156 0.271,-0.287 0.047,-0.13 0.04,-0.27 -0.022,-0.394 l -1.027,-2.054 c -0.124,-0.247 -0.023,-0.547 0.224,-0.671 0.247,-0.122 0.547,-0.024 0.671,0.224 l 1.027,2.054 c 0.184,0.367 0.208,0.799 0.067,1.185 -0.142,0.386 -0.439,0.7 -0.817,0.862 L 11.57,23.59 c -0.191,0.082 -0.391,0.121 -0.588,0.121 z"
         id="path15"
         style="stroke:#000000;stroke-opacity:1;stroke-width:0.6197882;stroke-miterlimit:4;stroke-dasharray:none" /></g></g><path
     style="opacity:1;fill:#ffffff;fill-opacity:1;fill-rule:nonzero;stroke:#000000;stroke-width:0.01655663;stroke-miterlimit:4;stroke-dasharray:none;stroke-opacity:1"
     d="M 7.8365456,16.900767 C 7.3922884,16.572101 6.8579095,15.89233 7.1240938,15.994475 c 0.146688,0.05629 0.3731736,-0.07151 0.4677694,-0.263953 0.050777,-0.103297 0.7665209,-1.838013 1.5905433,-3.854924 0.8240225,-2.0169111 1.5096495,-3.667246 1.5236165,-3.6674109 0.01397,-1.651e-4 0.09396,0.1404386 0.177755,0.3124523 0.794899,1.6316876 2.811999,3.6720826 4.560784,4.6134546 0.217928,0.117311 0.389335,0.219406 0.380904,0.226876 -0.0084,0.0075 -1.717971,0.714551 -3.798976,1.571288 -2.0810058,0.856737 -3.8162813,1.589932 -3.856168,1.629323 -0.039887,0.03939 -0.085595,0.165637 -0.1015744,0.280549 l -0.029053,0.208929 -0.2031488,-0.150292 z"
     id="path15257"
     inkscape:connector-curvature="0" /><path
     style="opacity:1;fill:#ffffff;fill-opacity:1;fill-rule:nonzero;stroke:#000000;stroke-width:0.01655663;stroke-miterlimit:4;stroke-dasharray:none;stroke-opacity:1"
     d="M 17.159557,12.871804 C 15.701388,12.62991 13.412911,10.824082 12.118896,8.8942404 11.335658,7.7261502 10.983836,6.6179316 11.239369,6.1237835 11.314343,5.9788004 11.555494,5.8697411 11.797947,5.87117 c 0.480878,0.00283 1.501384,0.4186986 2.244702,0.9147342 2.15423,1.4375743 4.078305,4.0118088 4.078305,5.4563948 0,0.380068 -0.108941,0.554606 -0.395911,0.634307 -0.209299,0.05813 -0.18488,0.05834 -0.565486,-0.0048 l 0,-3e-6 z"
     id="path15259"
     inkscape:connector-curvature="0" /></svg>