<?xml version="1.0" encoding="UTF-8" standalone="no"?>
<!-- Generator: Adobe Illustrator 19.0.0, SVG Export Plug-In . SVG Version: 6.00 Build 0)  -->

<svg
   xmlns:dc="http://purl.org/dc/elements/1.1/"
   xmlns:cc="http://creativecommons.org/ns#"
   xmlns:rdf="http://www.w3.org/1999/02/22-rdf-syntax-ns#"
   xmlns:svg="http://www.w3.org/2000/svg"
   xmlns="http://www.w3.org/2000/svg"
   xmlns:sodipodi="http://sodipodi.sourceforge.net/DTD/sodipodi-0.dtd"
   xmlns:inkscape="http://www.inkscape.org/namespaces/inkscape"
   version="1.1"
   id="Layer_1"
   x="0px"
   y="0px"
   viewBox="0 0 24.005503 23.835112"
   xml:space="preserve"
   inkscape:version="0.91 r13725"
   sodipodi:docname="Journey Icon.svg"
   width="24.005503"
   height="23.835112"
   inkscape:export-filename="C:\Users\jeffs_d1mxxsu\OneDrive\Sojoorn Media\Journey Lane\Artwork\Elements\Icons\Icons for JL 1.0\Journal Entry.png"
   inkscape:export-xdpi="753.57721"
   inkscape:export-ydpi="753.57721"><metadata
     id="metadata57"><rdf:RDF><cc:Work
         rdf:about=""><dc:format>image/svg+xml</dc:format><dc:type
           rdf:resource="http://purl.org/dc/dcmitype/StillImage" /><dc:title></dc:title></cc:Work></rdf:RDF></metadata><defs
     id="defs55" /><sodipodi:namedview
     pagecolor="#ffffff"
     bordercolor="#666666"
     borderopacity="1"
     objecttolerance="10"
     gridtolerance="10"
     guidetolerance="10"
     inkscape:pageopacity="0"
     inkscape:pageshadow="2"
     inkscape:window-width="1920"
     inkscape:window-height="1057"
     id="namedview53"
     showgrid="false"
     inkscape:zoom="8.32"
     inkscape:cx="32.782497"
     inkscape:cy="0.085607443"
     inkscape:window-x="3832"
     inkscape:window-y="-8"
     inkscape:window-maximized="1"
     inkscape:current-layer="Layer_1"
     fit-margin-top="0"
     fit-margin-left="0"
     fit-margin-right="0"
     fit-margin-bottom="0" /><g
     id="g23"
     transform="translate(0.01842654,-0.24011457)" /><g
     id="g25"
     transform="translate(0.01842654,-0.24011457)" /><g
     id="g27"
     transform="translate(0.01842654,-0.24011457)" /><g
     id="g29"
     transform="translate(0.01842654,-0.24011457)" /><g
     id="g31"
     transform="translate(0.01842654,-0.24011457)" /><g
     id="g33"
     transform="translate(0.01842654,-0.24011457)" /><g
     id="g35"
     transform="translate(0.01842654,-0.24011457)" /><g
     id="g37"
     transform="translate(0.01842654,-0.24011457)" /><g
     id="g39"
     transform="translate(0.01842654,-0.24011457)" /><g
     id="g41"
     transform="translate(0.01842654,-0.24011457)" /><g
     id="g43"
     transform="translate(0.01842654,-0.24011457)" /><g
     id="g45"
     transform="translate(0.01842654,-0.24011457)" /><g
     id="g47"
     transform="translate(0.01842654,-0.24011457)" /><g
     id="g49"
     transform="translate(0.01842654,-0.24011457)" /><g
     id="g51"
     transform="translate(0.01842654,-0.24011457)" /><path
     style="opacity:1;fill:none;fill-opacity:1;fill-rule:nonzero;stroke:#000000;stroke-width:1.57380605;stroke-miterlimit:4;stroke-dasharray:none;stroke-opacity:1"
     d="M 23.218599,11.917556 A 11.215848,11.130652 0 0 1 12.002751,23.048208 11.215848,11.130652 0 0 1 0.78690338,11.917556 11.215848,11.130652 0 0 1 12.002751,0.78690338 11.215848,11.130652 0 0 1 23.218599,11.917556 Z"
     id="path13835" /><path
     style="opacity:1;fill:#6699ff;fill-opacity:1;fill-rule:nonzero;stroke:none;stroke-width:18;stroke-miterlimit:4;stroke-dasharray:none;stroke-opacity:1"
     d="M 11.055006,22.19867 C 8.5042963,21.937219 6.3088778,20.894142 4.5561933,19.110984 3.719091,18.259328 3.163033,17.472886 2.6316948,16.389135 0.89169576,12.840121 1.3627907,8.6188871 3.8471255,5.4983006 4.2410389,5.003504 5.1082884,4.1449897 5.5709688,3.7918205 8.4176007,1.6189543 12.053608,1.0063531 15.431937,2.1304268 c 3.094631,1.0296789 5.523438,3.4063535 6.572806,6.4317255 0.624459,1.8003437 0.716821,3.9336027 0.250815,5.7929967 -0.669739,2.672299 -2.416201,4.98509 -4.84285,6.413249 -1.281467,0.754184 -2.778631,1.243613 -4.323717,1.413443 -0.435429,0.04786 -1.634458,0.05778 -2.033985,0.01683 z"
     id="path13820"
     inkscape:connector-curvature="0" /><path
     style="opacity:1;fill:none;fill-opacity:1;fill-rule:nonzero;stroke:#ffffff;stroke-width:1.37010336;stroke-miterlimit:4;stroke-dasharray:none;stroke-opacity:1"
     d="M 21.900507,11.889156 A 9.8125591,9.6421661 0 0 1 12.087948,21.531322 9.8125591,9.6421661 0 0 1 2.2753887,11.889156 9.8125591,9.6421661 0 0 1 12.087948,2.2469902 9.8125591,9.6421661 0 0 1 21.900507,11.889156 Z"
     id="path13835-2" /><path
     style="fill:none;fill-opacity:1;fill-rule:evenodd;stroke:#000000;stroke-width:0.67493677;stroke-linecap:round;stroke-linejoin:round;stroke-miterlimit:4;stroke-dasharray:none;stroke-opacity:1"
     d="m 7.8881291,10.450175 c 3.5317179,0.463233 5.5376389,0.477838 8.4750289,0.709874 0.372492,0.02943 0.54916,0.207774 0.544798,0.673619 l -0.0177,1.889897 c -0.0044,0.465839 -0.218458,1.075983 -0.592364,1.080571 L 7.2932811,14.91471 C 6.4304776,14.645023 4.8601125,13.014074 4.218599,12.303468 c 0,0 3.2989025,-1.901907 3.6695359,-1.853293 z"
     id="rect4157"
     inkscape:connector-curvature="0"
     sodipodi:nodetypes="sssssccs"
     inkscape:export-xdpi="90"
     inkscape:export-ydpi="90" /><path
     style="fill:none;fill-opacity:1;fill-rule:evenodd;stroke:#000000;stroke-width:0.6135534;stroke-linecap:butt;stroke-linejoin:round;stroke-miterlimit:4;stroke-dasharray:none;stroke-opacity:1"
     d="m 9.9940662,15.756896 3.3454158,0.04001 c 0.294428,1.029074 0.651524,2.194716 0.840675,2.818474 -0.927307,0.208876 -4.3168631,0.16593 -4.3168631,0.16593 -0.3111456,-0.667975 0.1307723,-3.024417 0.1307723,-3.024417 z"
     id="rect4160"
     inkscape:connector-curvature="0"
     sodipodi:nodetypes="ccccc"
     inkscape:transform-center-x="0.57293529"
     inkscape:transform-center-y="-0.060507696"
     inkscape:export-xdpi="90"
     inkscape:export-ydpi="90" /><path
     style="fill:#000000;fill-opacity:1;stroke:none;stroke-width:10.37070847;stroke-miterlimit:4;stroke-dasharray:none;stroke-opacity:1"
     d="m 11.199017,9.6061822 2.452497,0.05117 c 0.13196,0.254427 0.150972,0.7530198 0.150972,0.7530198 l -2.574511,-0.193401 c -0.116283,-0.114208 -0.07541,-0.3127918 -0.02896,-0.6107848 z"
     id="rect4165"
     inkscape:connector-curvature="0"
     sodipodi:nodetypes="ccccc"
     inkscape:export-xdpi="90"
     inkscape:export-ydpi="90" /><path
     style="fill:none;fill-opacity:1;fill-rule:evenodd;stroke:#000000;stroke-width:0.67493677;stroke-linecap:round;stroke-linejoin:round;stroke-miterlimit:4;stroke-dasharray:none;stroke-opacity:1"
     d="M 15.86024,5.777242 9.122704,6.4568385 C 8.8379072,6.4855578 8.6087504,6.7390483 8.6089901,7.0361421 l 0.00115,1.4165205 c 2.487e-4,0.2970937 0.1194128,0.6830486 0.403807,0.6760606 l 6.8488819,-0.168263 c 0.668456,-0.195562 1.934738,-1.2813954 2.453963,-1.7533605 0,0 -2.171756,-1.4585842 -2.45655,-1.4298577 z"
     id="rect4157-9"
     inkscape:connector-curvature="0"
     sodipodi:nodetypes="sssssccs"
     inkscape:export-xdpi="90"
     inkscape:export-ydpi="90" /><path
     style="fill:#000000;fill-opacity:1;stroke:none;stroke-width:12.08143234;stroke-linejoin:round;stroke-miterlimit:4;stroke-dasharray:none;stroke-opacity:1"
     d="m 11.778982,4.9909967 -1.373437,0.06359 -5.71e-4,0.6528981 2.030925,-0.1558162 C 12.40737,4.7344354 11.778862,4.9909969 11.778862,4.9909969 Z"
     id="rect4165-7"
     inkscape:connector-curvature="0"
     sodipodi:nodetypes="ccccc"
     inkscape:export-xdpi="90"
     inkscape:export-ydpi="90" /><path
     style="opacity:1;fill:#ffffff;fill-opacity:1;fill-rule:nonzero;stroke:none;stroke-width:2;stroke-linecap:round;stroke-miterlimit:4;stroke-dasharray:none;stroke-opacity:1"
     d="M 6.4844205,14.020283 C 5.7338999,13.418141 4.730234,12.408802 4.8092244,12.335618 c 0.02893,-0.0268 0.6921725,-0.386443 1.4738723,-0.799199 L 7.704369,10.785955 9.6484813,10.9784 c 1.0692617,0.105845 2.8906267,0.249541 4.0474777,0.319324 1.156851,0.06978 2.279147,0.154837 2.49399,0.189007 l 0.390625,0.06213 0,1.233601 c 0,0.875238 -0.04953,1.301377 -0.170488,1.466909 -0.162776,0.222754 -0.376212,0.234847 -4.717549,0.267294 l -4.5470588,0.03399 -0.6610577,-0.530365 z"
     id="path13888"
     inkscape:connector-curvature="0" /><path
     style="opacity:1;fill:#ffffff;fill-opacity:1;fill-rule:nonzero;stroke:none;stroke-width:2;stroke-linecap:round;stroke-miterlimit:4;stroke-dasharray:none;stroke-opacity:1"
     d="M 8.966888,8.5981892 C 8.8282144,8.2368115 8.8795294,7.0069749 9.0385071,6.8817352 9.1211393,6.816639 10.68857,6.6154552 12.521687,6.4346602 l 3.332939,-0.3287183 0.753599,0.4240864 C 17.90542,7.260022 17.878681,7.1995076 17.1536,7.7643071 16.028225,8.6409139 16.143061,8.6178401 12.422417,8.7149419 9.3031075,8.7963501 9.0395119,8.787444 8.966888,8.5981892 Z"
     id="path13890"
     inkscape:connector-curvature="0" /><path
     style="opacity:1;fill:#ffffff;fill-opacity:1;fill-rule:nonzero;stroke:none;stroke-width:2;stroke-linecap:round;stroke-miterlimit:4;stroke-dasharray:none;stroke-opacity:1"
     d="m 10.091513,17.757918 c 7.27e-4,-0.413161 0.03511,-0.955633 0.0764,-1.205492 l 0.07508,-0.45429 1.449582,0.03362 1.449583,0.03362 0.320903,1.08173 0.320902,1.081731 -0.675012,0.0771 c -0.371256,0.0424 -1.202355,0.08297 -1.846886,0.09014 l -1.171875,0.01304 0.0013,-0.751202 z"
     id="path13892"
     inkscape:connector-curvature="0" /></svg>