<svg id="Layer_1" data-name="Layer 1" xmlns="http://www.w3.org/2000/svg" width="24.01" height="23.83" viewBox="0 0 24.01 23.83">
  <title>mamber-pin</title>
  <ellipse id="path13835" cx="12.01" cy="11.91" rx="11.22" ry="11.13" fill="none" stroke="#000" stroke-width="1.57"/>
  <path id="path13820" d="M11.07,22.2a10.37,10.37,0,0,1-6.5-3.09,9.73,9.73,0,0,1-1.92-2.72A10.22,10.22,0,0,1,3.86,5.5,13.18,13.18,0,0,1,5.58,3.79a10.61,10.61,0,0,1,9.86-1.66A10.4,10.4,0,0,1,22,8.56a10.24,10.24,0,0,1-4.59,12.21,10.94,10.94,0,0,1-4.32,1.41A15.6,15.6,0,0,1,11.07,22.2Z" fill="#9c3"/>
  <ellipse id="path13835-2" cx="12.1" cy="11.89" rx="9.81" ry="9.64" fill="none" stroke="#fff" stroke-width="1.37"/>
  <g id="g3">
    <g id="g5">
      <path id="path7" d="M13.89,13.54l-1.64-.41-.12-.48A3.09,3.09,0,0,0,13,11a.74.74,0,0,0,.49-.6l.11-.88a.73.73,0,0,0-.42-.75V8l.14-.14a1.08,1.08,0,0,0,0-1.46,1.93,1.93,0,0,0-1.73-.79,3,3,0,0,0-1.69.44c-1.93,0-2.18,1-2.18,1.83a3.83,3.83,0,0,0,.07.85.74.74,0,0,0-.27.19.73.73,0,0,0-.18.58l.11.88A.74.74,0,0,0,8,11a3.11,3.11,0,0,0,.79,1.59l-.13.52L7,13.54A2.54,2.54,0,0,0,5.1,16a.29.29,0,0,0,.09.21.3.3,0,0,0,.21.09H15.53a.3.3,0,0,0,.3-.3h0A2.54,2.54,0,0,0,13.89,13.54ZM5.72,15.69A2,2,0,0,1,7.18,14.1L9,13.65a.3.3,0,0,0,.22-.22l.22-.86a.29.29,0,0,0-.09-.29,2.48,2.48,0,0,1-.76-1.58.3.3,0,0,0-.3-.27H8.21a.14.14,0,0,1-.14-.12L8,9.43a.14.14,0,0,1,0-.11H8.1a.3.3,0,0,0,.22-.1A.29.29,0,0,0,8.44,9c0-.22-.1-.85-.1-1.06,0-.54,0-1.22,1.69-1.24a.3.3,0,0,0,.17-.06,2.35,2.35,0,0,1,1.43-.38,1.37,1.37,0,0,1,1.23.52c.26.4.16.59,0,.72l-.22.22a.29.29,0,0,0-.09.19l0,1.09a.3.3,0,0,0,.29.31h0a.08.08,0,0,1,.11.11l-.11.88a.15.15,0,0,1-.16.12.3.3,0,0,0-.3.27,2.46,2.46,0,0,1-.8,1.61.29.29,0,0,0-.09.29l.21.82a.3.3,0,0,0,.22.22l1.81.45a2,2,0,0,1,1.46,1.59Zm11.75-2.17-1.64-.41-.07-.26a5.61,5.61,0,0,0,1.73-.55.29.29,0,0,0,0-.48s-.77-.64-.77-2.83c0-1.94-.47-2.92-1.4-2.92h-.1a1.46,1.46,0,0,0-1.16-.44h0a.32.32,0,0,0-.26.47.29.29,0,0,0,.28.12.9.9,0,0,1,.79.35.3.3,0,0,0,.21.09h.22c.51,0,.8.85.8,2.33a5.14,5.14,0,0,0,.69,3,6.68,6.68,0,0,1-1.51.38.3.3,0,0,0-.21.13.29.29,0,0,0,0,.24l.19.75a.3.3,0,0,0,.22.22l1.81.45a2,2,0,0,1,1.46,1.59H16.71v.59H19.1a.3.3,0,0,0,.3-.3,2.54,2.54,0,0,0-1.94-2.51Z"/>
    </g>
  </g>
  <path id="path13851" d="M5.76,15.54a2.08,2.08,0,0,1,1-1.23A10.69,10.69,0,0,1,8,13.92a3.7,3.7,0,0,0,1.13-.36,3.56,3.56,0,0,0,.28-1.05.37.37,0,0,0-.12-.25,2.76,2.76,0,0,1-.69-1.42.4.4,0,0,0-.34-.39c-.19,0-.21-.1-.27-.74V9.34h.18c.28-.05.33-.18.27-.62a4.55,4.55,0,0,1,0-1.35C8.56,7,9,6.75,9.65,6.71a1.28,1.28,0,0,0,.65-.16,2.46,2.46,0,0,1,1.25-.28c.75,0,1.14.19,1.35.65.14.3.11.43-.16.7l-.17.18v.6c0,.71,0,.82.21.89a.35.35,0,0,1,.18.11,5.19,5.19,0,0,1-.13,1,.15.15,0,0,1-.11.05c-.19,0-.29.13-.34.48a2.72,2.72,0,0,1-.62,1.26,1.13,1.13,0,0,0-.24.36,4.55,4.55,0,0,0,.3,1,7.08,7.08,0,0,0,1,.31c1.15.28,1.57.46,1.87.8a2.31,2.31,0,0,1,.46.84v.13H5.73Z" fill="#fff"/>
</svg>
