<svg id="Layer_1" data-name="Layer 1" xmlns="http://www.w3.org/2000/svg" width="24.01" height="23.83" viewBox="0 0 24.01 23.83">
  <title>viewer-pin</title>
  <ellipse id="path13835" cx="12.01" cy="11.91" rx="11.22" ry="11.13" fill="none" stroke="#000" stroke-width="1.57"/>
  <path id="path13886" d="M11.23,22.2A10.31,10.31,0,0,1,3.11,6.56,10.59,10.59,0,0,1,22,8.47a10.52,10.52,0,0,1,.27,5.95A10.57,10.57,0,0,1,11.23,22.2Z" fill="#fc0"/>
  <ellipse id="path13835-2" cx="12.1" cy="11.89" rx="9.81" ry="9.64" fill="none" stroke="#fff" stroke-width="1.37"/>
  <path id="path7" d="M10.82,5.44a5.14,5.14,0,0,0-5.29,5h0a5.15,5.15,0,0,0,5.29,5,5.46,5.46,0,0,0,3.54-1.29l3.41,3.21a.28.28,0,0,0,.38,0,.24.24,0,0,0,0-.34h0L14.73,13.8a4.79,4.79,0,0,0,1.38-3.33,5.15,5.15,0,0,0-5.27-5Zm0,.5a4.63,4.63,0,0,1,4.76,4.48,4.63,4.63,0,0,1-4.76,4.48,4.63,4.63,0,0,1-4.76-4.48A4.63,4.63,0,0,1,10.82,5.94Z" stroke="#000" stroke-width="0.4"/>
  <path id="path13946" d="M10,14.61a4.45,4.45,0,0,1-3.7-3.53,4.48,4.48,0,0,1,.14-1.9A4.49,4.49,0,0,1,9,6.51a4.73,4.73,0,0,1,5.47,1.42,3.64,3.64,0,0,1,.83,2.3,3.49,3.49,0,0,1-.4,2,4.53,4.53,0,0,1-3.32,2.41,6.36,6.36,0,0,1-1.58,0Z" fill="#fff" stroke="#000" stroke-width="0.02"/>
  <g id="g3">
    <g id="g5">
      <path id="path7-0" d="M11.73,11.06l-.88-.2-.07-.23a1.46,1.46,0,0,0,.45-.8.37.37,0,0,0,.26-.29l.06-.42a.33.33,0,0,0-.09-.28.39.39,0,0,0-.13-.09V8.4l.08-.07a.49.49,0,0,0,0-.69l0,0a1.08,1.08,0,0,0-.93-.38,1.75,1.75,0,0,0-.91.21c-1,0-1.17.48-1.17.89v.41a.4.4,0,0,0-.14.09.33.33,0,0,0-.1.28l.06.42a.37.37,0,0,0,.29.3,1.46,1.46,0,0,0,.43.77l-.07.25-.88.2a1.26,1.26,0,0,0-1,1.19.14.14,0,0,0,0,.1.17.17,0,0,0,.11,0h5.44a.15.15,0,0,0,.16-.14h0A1.26,1.26,0,0,0,11.73,11.06ZM7.35,12.11a1,1,0,0,1,.78-.77l1-.22a.15.15,0,0,0,.12-.1l.12-.42a.13.13,0,0,0,0-.14A1.16,1.16,0,0,1,9,9.7a.15.15,0,0,0-.16-.13h0a.07.07,0,0,1-.08-.06h0l-.06-.42a.06.06,0,0,1,0-.05h.08a.17.17,0,0,0,.12,0,.13.13,0,0,0,0-.11c0-.11-.05-.41-.05-.51,0-.26,0-.59.91-.6H9.8a1.36,1.36,0,0,1,.77-.19.77.77,0,0,1,.66.25c.14.19.09.29,0,.35l-.12.11a.14.14,0,0,0,0,.09V9A.14.14,0,0,0,11,9a.17.17,0,0,0,.11,0h.06a.06.06,0,0,1,0,.05l-.06.42a.08.08,0,0,1-.09.06.15.15,0,0,0-.16.13,1.16,1.16,0,0,1-.43.78.13.13,0,0,0,0,.14l.11.4a.15.15,0,0,0,.12.1l1,.22a1,1,0,0,1,.78.77Zm6.31-1.05-.88-.2v-.13a3.23,3.23,0,0,0,.93-.27.13.13,0,0,0,0-.23s-.41-.31-.41-1.37S13,7.44,12.53,7.44h-.05a.83.83,0,0,0-.62-.21h0a.16.16,0,0,0-.14.08.13.13,0,0,0,0,.15.16.16,0,0,0,.15.06.51.51,0,0,1,.42.17.17.17,0,0,0,.11,0h.12c.27,0,.43.41.43,1.13a2.31,2.31,0,0,0,.37,1.44,3.9,3.9,0,0,1-.81.18.16.16,0,0,0-.11.06.13.13,0,0,0,0,.12l.1.36a.15.15,0,0,0,.12.1l1,.22a1,1,0,0,1,.78.77H13.26v.29h1.28a.15.15,0,0,0,.16-.14h0A1.26,1.26,0,0,0,13.65,11.06Z"/>
    </g>
  </g>
</svg>
