<svg xmlns="http://www.w3.org/2000/svg" data-name="Layer 1" height="38" viewBox="0 0 27 38.000001" width="27" version="1.1"><title>airport-pin</title><g transform="translate(0 -.120)"><path d="m13.5 38.1a0.79 0.788 0 0 1 -0.5 -0.2c-0.6-0.4-13-11.3-13-24.3a13.5 13.5 0 0 1 27 0c0 13-12.4 23.9-13 24.3a0.79 0.788 0 0 1 -0.5 0.2z" stroke-width=".998"/><path d="m13.5 1.59a11.9 11.9 0 0 0 -11.9 11.9c-0.01 10.9 9.5 20.5 11.9 22.7 2.4-2.2 11.9-11.8 11.9-22.7a11.9 11.9 0 0 0 -11.9 -11.9z" fill="#fff"/><path d="m13.5 3.31a10 10.6 0 0 0 -10 10.6c0 9.64 8.03 18.2 10 20.2 1.99-1.99 10-10.5 10-20.2a10 10.6 0 0 0 -10 -10.6z" fill="#36c"/></g><g transform="translate(0 -.120)"><path d="m7.51 9.6c-0.12 0-0.23 0.05-0.31 0.15l-1.78 2.06c-0.102 0.119-0.149 0.274-0.131 0.43 0.0141 0.153 0.0949 0.291 0.221 0.379l4.69 3.1-1.8 1-3.4-1.9c-0.166-0.071-0.359-0.0222-0.471 0.119l-0.889 1c-0.155 0.183-0.179 0.442-0.0605 0.65l1.51 2.63c-1.58 1.02-1.58 1.53-1.58 1.73 0 0.9 1.14 1 3.56 1 0.998-0.000001 4.32-1.09 7.82-2.56l3.85 5.44c0.0754 0.115 0.202 0.186 0.34 0.189 0.0759-0.0063 0.148-0.034 0.209-0.0801l1.78-1c0.192-0.125 0.284-0.357 0.23-0.58l-1.34-6.16c-0.0094-0.056-0.0293-0.11-0.0586-0.158 2.81-1.51 4.95-3.09 4.95-4.27 0-0.61-0.38-2.05-4-2.05-1.93 0.144-3.81 0.683-5.52 1.58l-7.76-2.58c-0.04-0.01-0.08-0.02-0.13-0.02z"/><g fill="#fff"><path d="m7.64 10.7 7.72 2.66l-3.4 2.3-5.54-3.6z"/><path d="m20.8 11.7c0.162 0 0.302 0.0079 0.449 0.0137-0.271 0.163-0.522 0.356-0.748 0.576-0.17 0.209-0.17 0.509 0 0.719 0.0771 0.098 0.194 0.157 0.318 0.16 0.127-0.0053 0.245-0.0677 0.32-0.17 0.603-0.561 1.4-0.874 2.22-0.877 0.383 0.186 0.562 0.401 0.562 0.578 0 1.92-13.9 8.22-16.9 8.22-0.826 0.0194-1.65-0.0237-2.47-0.129 0.416-0.373 0.864-0.708 1.34-1 0.119-0.0738 0.202-0.193 0.23-0.33 0.031-0.14 0.00948-0.286-0.0605-0.41l-1.58-2.73 0.41-0.469 3.27 1.89c0.123 0.0737 0.277 0.0737 0.4 0l2.54-1.46 0.645 0.422c0.065 0.0447 0.142 0.0692 0.221 0.0703 0.07-0.0126 0.135-0.0436 0.189-0.0898l4.45-3.08c0.154-0.117 0.234-0.308 0.209-0.5-0.0095-0.14-0.0776-0.27-0.188-0.357 1.33-0.57 2.74-0.922 4.19-1.04z"/><path d="m19.1 17.4 1.25 5.74-1.14 0.66-3.44-4.85c1.14-0.496 2.26-1.01 3.33-1.56z"/></g></g></svg>
