<svg id="Layer_1" data-name="Layer 1" xmlns="http://www.w3.org/2000/svg" viewBox="0 0 17 24"><title>pin</title><path d="M8.5,14A5.5,5.5,0,1,1,14,8.5,5.51,5.51,0,0,1,8.5,14Zm0-10A4.5,4.5,0,1,0,13,8.5,4.51,4.51,0,0,0,8.5,4Z"/><path d="M8.5,14A5.5,5.5,0,1,1,14,8.5,5.51,5.51,0,0,1,8.5,14Zm0-10A4.5,4.5,0,1,0,13,8.5,4.51,4.51,0,0,0,8.5,4Z"/><path d="M8.5,24a.5.5,0,0,1-.33-.12C7.84,23.59,0,16.72,0,8.5a8.5,8.5,0,0,1,17,0c0,8.22-7.84,15.09-8.17,15.38A.5.5,0,0,1,8.5,24Zm0-23A7.51,7.51,0,0,0,1,8.5c0,6.84,6,12.93,7.5,14.32C10,21.42,16,15.33,16,8.5A7.51,7.51,0,0,0,8.5,1Z"/></svg>