<svg id="Layer_1" data-name="Layer 1" xmlns="http://www.w3.org/2000/svg" width="24" height="24" viewBox="0 0 24 24">
  <title>public</title>
  <g>
    <path d="M12,24A12,12,0,1,1,24,12,12,12,0,0,1,12,24ZM12,1A11,11,0,1,0,23,12,11,11,0,0,0,12,1Z"/>
    <path d="M13.53,23.9a.49.49,0,0,1-.32-.12.5.5,0,0,1-.06-.7A13.35,13.35,0,0,0,15,20.35a3.63,3.63,0,0,0,0-1.66,4.31,4.31,0,0,0-1.26-1.09C12.91,17,12,16.35,12,15.5c0-.45.4-.71.73-.92L13,14.4c-.11-1-1.86-2.32-3.28-3.35A12.53,12.53,0,0,1,7.1,8.79,8,8,0,0,1,6,6.61a4.27,4.27,0,0,1,.05-1.45,3.22,3.22,0,0,0,0-1.37s-.25,0-.41,0C5.24,3.74,4.5,3.66,4.5,3a.5.5,0,0,1,.93-.26l.36,0a1.47,1.47,0,0,1,1.12.42,3,3,0,0,1,.15,2.1A4.12,4.12,0,0,0,7,6.39a7.25,7.25,0,0,0,.92,1.82,12.19,12.19,0,0,0,2.4,2c1.82,1.33,3.7,2.7,3.7,4.26,0,.45-.4.71-.73.92l-.25.17c.13.33.85.84,1.34,1.18A4.35,4.35,0,0,1,16,18.31a4.42,4.42,0,0,1,0,2.34,14.27,14.27,0,0,1-2.06,3.08A.5.5,0,0,1,13.53,23.9Z"/>
    <path d="M21.5,19h-.09a.5.5,0,0,1-.4-.58c.26-1.44.36-3.24.09-3.62-.15-.21-.9-.35-1.4-.44a4.49,4.49,0,0,1-1.46-.43,2.48,2.48,0,0,1-.57-.57,2.41,2.41,0,0,0-.37-.4,3.65,3.65,0,0,0-1.24,0,3.68,3.68,0,0,1-1.75,0c-.9-.37-3.89-2.16-3.27-3.65.27-.64,1-.47,1.59-.35a2.56,2.56,0,0,0,.65.1,5.32,5.32,0,0,0,1-2.09,7.56,7.56,0,0,1,.78-1.76,2.28,2.28,0,0,1,.54-.47l.28-.2c-.18-.07-.53-.18-.74-.24a3.38,3.38,0,0,1-1-.39,2.33,2.33,0,0,1-.47-.53l-.21-.27-.11.17c-.21.32-.47.73-.92.73C11.81,4,11.18,3,11,2.69A3.93,3.93,0,0,1,11,1c0-.2,0-.39,0-.53a.5.5,0,0,1,1,0c0,.16,0,.38,0,.62a4,4,0,0,0,0,1.19,2.07,2.07,0,0,0,.48.63l.14-.21c.21-.32.47-.73.92-.73s.78.42,1,.79a2.48,2.48,0,0,0,.25.31,3.34,3.34,0,0,0,.66.24c.67.2,1.43.43,1.54,1.08s-.4.86-.78,1.14a2.54,2.54,0,0,0-.31.24,7.37,7.37,0,0,0-.65,1.51,5.1,5.1,0,0,1-1.49,2.63,1.85,1.85,0,0,1-1.35,0L12,9.85A6.27,6.27,0,0,0,14.69,12a3.62,3.62,0,0,0,1.25,0,3.68,3.68,0,0,1,1.75,0,2.19,2.19,0,0,1,.75.69,2.55,2.55,0,0,0,.32.35,4.31,4.31,0,0,0,1.11.29,3.17,3.17,0,0,1,2,.84c.66.91.23,3.59.09,4.38A.5.5,0,0,1,21.5,19Z"/>
  </g>
</svg>
