<svg id="svg2" xmlns="http://www.w3.org/2000/svg" width="272.06" height="265.04" viewBox="0 0 272.06 265.04">
  <title>info</title>
  <g id="layer1">
    <g id="path13786">
      <path d="M136,265C61,265,0,205.59,0,132.52S61,0,136,0s136,59.45,136,132.52S211,265,136,265Zm0-238C75.93,27,27,74.35,27,132.52S75.93,238,136,238s109-47.32,109-105.49S196.13,27,136,27Z"/>
    </g>
    <g id="text13788">
      <g id="path13787">
        <path d="M118.85,163a43.84,43.84,0,0,1,4.32-19.86q4.57-8.64,16.76-14.9,4.32-2.16,10.16-4.75A83.38,83.38,0,0,0,161.26,117a35.69,35.69,0,0,0,8.89-8.64A18.6,18.6,0,0,0,174,96.7a17.27,17.27,0,0,0-2.54-9.28,21.47,21.47,0,0,0-6.1-6.91,25.39,25.39,0,0,0-8.89-4.1A36.32,36.32,0,0,0,146,74.9a34.53,34.53,0,0,0-11.17,1.73,36,36,0,0,0-9.4,4.32,43,43,0,0,0-7.87,6A50,50,0,0,0,112,93.89L93.71,83.31Q100.56,69.93,115,62.81a69.18,69.18,0,0,1,31.75-7.34,67.69,67.69,0,0,1,18.54,2.59,50.21,50.21,0,0,1,16.76,7.56,36,36,0,0,1,11.68,13q4.57,8,4.57,19a34.78,34.78,0,0,1-2.29,13.17,35.63,35.63,0,0,1-6.35,9.93,41.52,41.52,0,0,1-9.4,7.77,113.32,113.32,0,0,1-11.43,6q-5.08,2.37-9.9,5a41.65,41.65,0,0,0-8.63,5.61,27.6,27.6,0,0,0-5.84,7.56A21.88,21.88,0,0,0,142.21,163H118.85Zm0,47.71v-27.2h23.36v27.2Z"/>
      </g>
    </g>
  </g>
</svg>
