<svg id="Layer_1" data-name="Layer 1" xmlns="http://www.w3.org/2000/svg" width="30" height="23" viewBox="0 0 30 23">
  <title>Recommendations</title>
  <path d="M30,12.48a.57.57,0,0,0,0-.08.47.47,0,0,0,0-.11h0l-1.5-3A.5.5,0,0,0,28,9H22V3.5a.54.54,0,0,0,0-.05.42.42,0,0,0,0-.08.43.43,0,0,0,0-.11v0l-2-3A.5.5,0,0,0,19.5,0h-9a.5.5,0,0,0-.42.22l-2,3,0,0,0,.08a.48.48,0,0,0,0,.12s0,0,0,0V8H1.5A.5.5,0,0,0,1,8.31l-1,2.5a.49.49,0,0,0,0,.44A.5.5,0,0,0,0,11.5v11a.5.5,0,0,0,.5.5h29a.5.5,0,0,0,.5-.5v-10ZM22,10h5.69l1,2H22ZM10.77,1h8.46l1.33,2H9.43ZM1.84,9H8v2H1ZM29,22H1V12H8.5a.5.5,0,0,0,.5-.5V4H21V9.49h0v3a.5.5,0,0,0,.5.5H29ZM15.69,6a.5.5,0,0,0-.55.11l-2,2a.5.5,0,0,0,.71.71L15,7.71V13.5a.5.5,0,0,0,1,0v-7A.5.5,0,0,0,15.69,6ZM6.5,20H4.57l1.9-2.28A2.37,2.37,0,0,0,7,16.19,2.07,2.07,0,0,0,5.09,14H4.91A2.07,2.07,0,0,0,3,16.19a.5.5,0,0,0,1,0A1.08,1.08,0,0,1,4.91,15h.18A1.08,1.08,0,0,1,6,16.2a1.38,1.38,0,0,1-.3.88l-2.59,3.1A.5.5,0,0,0,3.5,21h3a.5.5,0,0,0,0-1ZM25,20a1,1,0,0,1-1-1,.5.5,0,0,0-1,0,2,2,0,1,0,3.31-1.5A2,2,0,1,0,23,16a.5.5,0,0,0,1,0,1,1,0,1,1,1,1h-.5a.5.5,0,0,0,0,1H25a1,1,0,0,1,0,2Z"/>
</svg>
