<svg id="Layer_1" data-name="Layer 1" xmlns="http://www.w3.org/2000/svg" width="18.46" height="18.24" viewBox="0 0 18.46 18.24">
  <title>Restaurant</title>
  <g id="g3">
    <g id="g5">
      <path id="path7" d="M11.32,18H7c-.13,0-.24-.23-.24-.52,0-1.42.54-2.58,1.19-2.58h2.39c.66,0,1.19,1.16,1.19,2.58C11.55,17.73,11.45,18,11.32,18Zm-4-1H11c-.1-.6-.36-1-.68-1H8C7.66,15.9,7.4,16.33,7.3,16.93Z"/>
    </g>
    <g id="g9">
      <path id="path11" d="M14.94,8.66H3.49c-.21,0-.38-.23-.38-.52V6.08c0-.29.17-.52.38-.52H14.94c.21,0,.38.23.38.52V8.15C15.33,8.43,15.16,8.66,14.94,8.66Zm-11.07-1H14.56v-1H3.87Z"/>
    </g>
    <g id="g29">
      <path id="path31" d="M9.41,15.9H8.93c-.12,0-.22-.19-.24-.44L8.21,8.22c0-.28.07-.54.2-.58s.25.16.27.44l.45,6.79H9.2l.45-6.79c0-.28.14-.48.27-.44s.22.3.2.58l-.48,7.23C9.63,15.71,9.52,15.9,9.41,15.9Z"/>
    </g>
    <path id="path15-7" d="M17.94,18.24H18a.72.72,0,0,0,.41-.82l-1-6.88,1-9.68A.7.7,0,0,0,18,0c-.28-.05-.54.21-.58.59l-1,9.8a1,1,0,0,0,0,.24l1,7c0,.33.26.56.51.56Z"/>
    <path id="path19-3" d="M12.76,18.24c.29,0,.52-.31.52-.7v-6.3H16.9c.29,0,.52-.31.52-.7s-.23-.7-.52-.7H12.76c-.29,0-.52.31-.52.7v7C12.25,17.92,12.48,18.24,12.76,18.24Z"/>
    <path id="path15-7-1" d="M.5,18H.4A.72.72,0,0,1,0,17.16l1-6.8L0,.79A.69.69,0,0,1,.43,0C.7,0,1,.22,1,.59l1,9.69a1,1,0,0,1,0,.23L1,17.43c0,.33-.26.56-.49.56Z"/>
    <path id="path19-3-8" d="M5.51,18c-.28,0-.5-.31-.5-.69V11.07H1.5c-.28,0-.5-.31-.5-.69s.22-.69.5-.69h4c.28,0,.5.31.5.69V17.3C6,17.68,5.79,18,5.51,18Z"/>
  </g>
</svg>
