<svg id="Layer_1" data-name="Layer 1" xmlns="http://www.w3.org/2000/svg" width="24" height="21.4" viewBox="0 0 24 21.4">
  <title>shared</title>
  <path id="path13853" d="M16.83,13.53l.2-3a1.1,1.1,0,0,0,.74-.33,1.06,1.06,0,0,0,.3-.87l-.48-3.82a1.84,1.84,0,0,0-1.83-1.6H13.93a1.84,1.84,0,0,0-1.83,1.6l-.48,3.82a1.06,1.06,0,0,0,.29.87,1.1,1.1,0,0,0,.74.33l.1,1.48" fill="none" stroke="#000" stroke-linecap="round" stroke-width="0.7"/>
  <path id="path13849" d="M20.24,14H18.78l-.21-2.82a.35.35,0,0,0-.38-.3.34.34,0,0,0-.33.35l.23,3.08s.27.35.46.35h3.06c.19,0,.21-.8.21-.8l.24-3.32a1.11,1.11,0,0,0,.74-.33A.93.93,0,0,0,23,9.42L22.59,6a1.75,1.75,0,0,0-1.78-1.44H19a1.92,1.92,0,0,0-.6.1.32.32,0,0,0-.22.42.37.37,0,0,0,.46.2A1.16,1.16,0,0,1,19,5.27h1.77a1,1,0,0,1,1.07.86l.46,3.37a.31.31,0,0,1-.09.26.37.37,0,0,1-.27.11h-.26a.35.35,0,0,0-.36.31L21,14"/>
  <path id="path13847" d="M8.45,10.18a.35.35,0,0,0-.36-.31H7.83a.37.37,0,0,1-.27-.11.31.31,0,0,1-.09-.26l.46-3.37A1,1,0,0,1,9,5.27h1.77a1.12,1.12,0,0,1,.27,0,.37.37,0,0,0,.44-.23.33.33,0,0,0-.26-.4,1.91,1.91,0,0,0-.45-.06H9A1.75,1.75,0,0,0,7.23,6L6.77,9.42A.94.94,0,0,0,7,10.2a1.11,1.11,0,0,0,.74.33C7.88,11.06,8.72,10.73,8.45,10.18Z"/>
  <path id="path7" d="M9.89,1.32A1,1,0,0,1,11,2.3a1.08,1.08,0,0,1-2.15,0A1,1,0,0,1,9.89,1.32Zm0,2.63A1.73,1.73,0,0,0,11.68,2.3,1.73,1.73,0,0,0,9.89.66,1.73,1.73,0,0,0,8.1,2.3,1.73,1.73,0,0,0,9.89,3.95Zm10-2.63A1,1,0,0,1,21,2.3a1.08,1.08,0,0,1-2.15,0A1,1,0,0,1,19.93,1.32Zm0,2.63A1.73,1.73,0,0,0,21.72,2.3a1.8,1.8,0,0,0-3.58,0A1.73,1.73,0,0,0,19.93,3.95ZM14.85.66a1,1,0,0,1,1.08,1,1.08,1.08,0,0,1-2.15,0A1,1,0,0,1,14.85.66Zm0,2.63a1.73,1.73,0,0,0,1.79-1.65,1.8,1.8,0,0,0-3.58,0A1.73,1.73,0,0,0,14.85,3.29Z"/>
  <g id="g3">
    <g id="g7">
      <path id="path9" d="M3.5,19.43H.5a.5.5,0,0,1-.5-.5v-9a.5.5,0,0,1,.16-.36.53.53,0,0,1,.37-.14c1,.06,4.46.32,5.31,1.14A.5.5,0,0,1,6,11a52.46,52.46,0,0,1-2,8.11A.5.5,0,0,1,3.5,19.43Zm-2.5-1H3.13A52.6,52.6,0,0,0,5,11.17a15.23,15.23,0,0,0-4-.71Z"/>
      <path id="path11" d="M13.4,21.4a5.75,5.75,0,0,1-2.07-.5L3.84,18.4a.5.5,0,1,1,.32-.95l7.5,2.5c1.8.68,1.95.74,6.15-1l5-2.25A2.28,2.28,0,0,0,20.45,16l-3.83,1a.5.5,0,0,1-.24-1l3.83-1a3.26,3.26,0,0,1,3.74,1.72.5.5,0,0,1-.24.68l-5.5,2.5C15.6,21,14.41,21.4,13.4,21.4Z"/>
      <path id="path13" d="M14.43,17.35a3.45,3.45,0,0,1-.69-.07L9.4,16.42a.5.5,0,1,1,.2-1l4.34.87a2.51,2.51,0,0,0,1.1,0L16,16c-.06-.91-.51-1.35-1.61-1.63l-9-2a.5.5,0,1,1,.22-1l9,2c1.66.41,2.39,1.29,2.39,2.83v.16a.5.5,0,0,1-.38.49l-1.35.34A3.5,3.5,0,0,1,14.43,17.35Z"/>
    </g>
  </g>
</svg>
