<svg id="Layer_1" data-name="Layer 1" xmlns="http://www.w3.org/2000/svg" width="27.5" height="30" viewBox="0 0 27.5 30">
  <title>sliders</title>
  <path d="M5,6.88H2.5V0H5Zm2.5,6.88A1.27,1.27,0,0,1,6.25,15h-5a1.2,1.2,0,0,1-.88-.37A1.2,1.2,0,0,1,0,13.75v-5a1.2,1.2,0,0,1,.37-.88,1.2,1.2,0,0,1,.88-.37h5A1.27,1.27,0,0,1,7.5,8.75ZM15,16.88H12.5V0H15ZM25,4.38H22.5V0H25ZM5,30H2.5V15.63H5ZM27.5,11.25a1.27,1.27,0,0,1-1.25,1.25h-5A1.27,1.27,0,0,1,20,11.25v-5A1.27,1.27,0,0,1,21.25,5h5A1.27,1.27,0,0,1,27.5,6.25Zm-10,12.5A1.27,1.27,0,0,1,16.25,25h-5A1.27,1.27,0,0,1,10,23.75v-5a1.27,1.27,0,0,1,1.25-1.25h5a1.27,1.27,0,0,1,1.25,1.25ZM15,30H12.5V25.63H15Zm10,0H22.5V13.13H25Z"/>
</svg>
