<svg id="svg2" xmlns="http://www.w3.org/2000/svg" width="235.77" height="136.08" viewBox="0 0 235.77 136.08">
  <title>tile</title>
  <g id="layer1">
    <path id="rect13786" d="M32.92,0A33,33,0,0,0,0,32.92v70.23a33,33,0,0,0,32.92,32.92H202.84a33,33,0,0,0,32.92-32.92V32.92A33,33,0,0,0,202.84,0Zm0,8.4H202.84a24.38,24.38,0,0,1,24.52,24.52v70.23a24.38,24.38,0,0,1-24.52,24.52H32.92A24.38,24.38,0,0,1,8.4,103.15V32.92A24.38,24.38,0,0,1,32.92,8.4Z"/>
    <path id="path13788" d="M114.5,23.21c-22.63,0-41,18.09-41,40.11s18.33,40.11,41,40.11,41-18.09,41-40.11-18.32-40.11-41-40.11Zm0,10.58A29.54,29.54,0,1,1,84.58,63.32,29.65,29.65,0,0,1,114.5,33.78Z"/>
    <path id="path13792" d="M144.79,73.71v8.7h87.39v-8.7Z"/>
    <path id="path13792-7" d="M.88,74v8.56H83.8V74Z"/>
  </g>
</svg>
