<svg id="svg2" xmlns="http://www.w3.org/2000/svg" width="237.82" height="73.26" viewBox="0 0 237.82 73.26">
  <title>list</title>
  <g id="layer1">
    <path id="path13788" d="M50.05,14.24A22.3,22.3,0,1,0,72,36.53,22.17,22.17,0,0,0,50.05,14.24Zm0,5.88a16.18,16.18,0,0,1,16,16.41,16,16,0,1,1-32.07,0A16.18,16.18,0,0,1,50.05,20.11Z"/>
    <path id="path13792" d="M92.38,42.08v8.7h92.17v-8.7Z"/>
    <path id="path13792-5" d="M91.94,21.7v8.7h92.17V21.7Z"/>
    <path id="rect13832" d="M22,0A22,22,0,0,0,0,22V51.26a22,22,0,0,0,22,22H215.81a22,22,0,0,0,22-22V22a22,22,0,0,0-22-22Zm0,8.4H215.81A13.48,13.48,0,0,1,229.42,22V51.26a13.48,13.48,0,0,1-13.6,13.6H22A13.48,13.48,0,0,1,8.4,51.26V22A13.48,13.48,0,0,1,22,8.4Z"/>
  </g>
</svg>
