<svg id="svg2" xmlns="http://www.w3.org/2000/svg" width="275.16" height="266.8" viewBox="0 0 275.16 266.8">
  <title>to-top</title>
  <g id="layer1">
    <ellipse id="path13853" cx="137.58" cy="133.4" rx="137.58" ry="133.4" fill="#fff" fill-opacity="0.65"/>
    <path id="path13851" d="M136.26,230.05a14.39,14.39,0,0,1-7.84-7.14c-.79-1.84-1-12.62-1-60.73,0-58.08-.13-61.52-2.31-62.91-2.42-1.54-4.16-.09-24.56,20.41C89.09,131.23,78.53,141.24,77.05,142a15.46,15.46,0,0,1-12.88,0c-7.5-3.82-10-14-5-20.72,1.09-1.47,19.8-20.66,41.59-42.65l39.61-40L170,68.49c52.14,52.59,52.68,53.16,53.63,56.69,2.51,9.37-4,18.22-13.51,18.22A14.84,14.84,0,0,1,203.6,142c-1.58-.81-11.34-10.14-23.36-22.34C158.68,97.81,157.73,97.06,155.1,100c-1,1.13-1.15,7-1.33,61.13-.22,66.65.15,61.82-5,66.35-2.28,2-6.31,3.65-8.76,3.59a18.12,18.12,0,0,1-3.74-1Z" fill="#69f" stroke="#69f" stroke-linecap="round" stroke-width="10.5"/>
  </g>
</svg>
