<svg id="Layer_1" data-name="Layer 1" xmlns="http://www.w3.org/2000/svg" width="24" height="22" viewBox="0 0 24 22">
  <title>tour</title>
  <g id="g3">
    <path id="path5" d="M21.5,0H2.5A2.5,2.5,0,0,0,0,2.5v17A2.5,2.5,0,0,0,2.5,22h19A2.5,2.5,0,0,0,24,19.5V2.5A2.5,2.5,0,0,0,21.5,0ZM2.5,1h19A1.5,1.5,0,0,1,23,2.5V4H1V2.5A1.5,1.5,0,0,1,2.5,1Zm19,20H2.5A1.5,1.5,0,0,1,1,19.5V5H23V19.5A1.5,1.5,0,0,1,21.5,21Z"/>
    <path id="circle7" d="M3,2.5A.5.5,0,1,1,2.5,2,.5.5,0,0,1,3,2.5Z"/>
    <path id="circle9" d="M5,2.5A.5.5,0,1,1,4.5,2,.5.5,0,0,1,5,2.5Z"/>
    <path id="circle11" d="M7,2.5A.5.5,0,1,1,6.5,2,.5.5,0,0,1,7,2.5Z"/>
  </g>
  <g id="text13815">
    <path id="path13820" d="M7.71,10.56H5.84v4.77H4.43V10.56H2.56V9.34H7.71Z"/>
    <path id="path13822" d="M9.47,15.41a2.73,2.73,0,0,1-1-.19,2.29,2.29,0,0,1-.76-.5A2.22,2.22,0,0,1,7.2,14,2.52,2.52,0,0,1,7,13.12a2.45,2.45,0,0,1,.16-.87,2.11,2.11,0,0,1,.47-.73A2.23,2.23,0,0,1,8.43,11a2.63,2.63,0,0,1,1-.19,2.57,2.57,0,0,1,1,.19,2.23,2.23,0,0,1,.76.51,2.11,2.11,0,0,1,.47.73,2.33,2.33,0,0,1,.16.87,2.4,2.4,0,0,1-.16.88,2.11,2.11,0,0,1-.47.73,2.27,2.27,0,0,1-.77.5A2.67,2.67,0,0,1,9.47,15.41Zm-1-2.29a1.22,1.22,0,0,0,.28.84,1,1,0,0,0,1.12.23.91.91,0,0,0,.31-.24,1.09,1.09,0,0,0,.22-.36,1.4,1.4,0,0,0,.08-.47,1.19,1.19,0,0,0-.28-.84A.92.92,0,0,0,9.47,12a.95.95,0,0,0-.72.32,1.16,1.16,0,0,0-.21.37A1.33,1.33,0,0,0,8.46,13.12Z"/>
    <path id="path13824" d="M13.94,15.41A1.32,1.32,0,0,1,12.88,15a1.94,1.94,0,0,1-.35-1.26V10.9h1.38v2.54a1,1,0,0,0,.16.62.56.56,0,0,0,.47.21,1.09,1.09,0,0,0,.54-.14,1.24,1.24,0,0,0,.46-.5V10.9h1.38v2.91a.51.51,0,0,0,.06.29.36.36,0,0,0,.23.09v1.14l-.34.05-.25,0q-.74,0-.85-.57l0-.27a1.9,1.9,0,0,1-.78.65A2.51,2.51,0,0,1,13.94,15.41Z"/>
    <path id="path13826" d="M20.85,12.06a2.7,2.7,0,0,0-.91.16,1.1,1.1,0,0,0-.59.46v2.66H18V10.9h1.27v.89a1.91,1.91,0,0,1,.6-.7,1.42,1.42,0,0,1,.79-.26h.22v1.21Z"/>
  </g>
</svg>
