<svg id="Layer_1" data-name="Layer 1" xmlns="http://www.w3.org/2000/svg" width="30" height="21" viewBox="0 0 30 21">
  <title>Traveller Info</title>
  <g id="g3">
    <g id="g5">
      <path id="path7" d="M24.5,18H2.5A2.48,2.48,0,0,1,0,15.5V2.5A2.48,2.48,0,0,1,2.5,0h22A2.48,2.48,0,0,1,27,2.5v13A2.48,2.48,0,0,1,24.5,18ZM2.5,1A1.54,1.54,0,0,0,1,2.5v13A1.54,1.54,0,0,0,2.5,17h22A1.54,1.54,0,0,0,26,15.5V2.5A1.54,1.54,0,0,0,24.5,1Z"/>
    </g>
    <g id="g9">
      <path id="path11" d="M27,21H5a3,3,0,0,1-3-3,.47.47,0,0,1,.5-.5A.47.47,0,0,1,3,18a2,2,0,0,0,2,2H27a2,2,0,0,0,2-2V5a2,2,0,0,0-2-2,.47.47,0,0,1-.5-.5A.47.47,0,0,1,27,2a3,3,0,0,1,3,3V18A3,3,0,0,1,27,21Z"/>
    </g>
    <g id="g13">
      <path id="path15" d="M24.5,6h-6a.47.47,0,0,1-.5-.5.47.47,0,0,1,.5-.5h6a.47.47,0,0,1,.5.5A.47.47,0,0,1,24.5,6Z"/>
    </g>
    <g id="g17">
      <path id="path19" d="M24.5,10h-6a.5.5,0,0,1,0-1h6a.5.5,0,0,1,0,1Z"/>
    </g>
    <g id="g21">
      <path id="path23" d="M24.5,14h-6a.5.5,0,0,1,0-1h6a.5.5,0,0,1,0,1Z"/>
    </g>
    <g id="g25">
      <path id="path27" d="M9,11A3,3,0,0,1,6,8,3,3,0,0,1,9,5a3,3,0,0,1,3,3A3,3,0,0,1,9,11ZM9,6a2,2,0,1,0,2,2A2,2,0,0,0,9,6Z"/>
    </g>
    <g id="g29">
      <path id="path31" d="M13.8,13.9h0c-.2,0-.4-.1-.4-.3a5,5,0,0,0-8.8,0,1.38,1.38,0,0,1-.4.3c-.2,0-.3,0-.4-.2A7,7,0,0,1,9,2a7,7,0,0,1,5.2,11.7A.52.52,0,0,1,13.8,13.9ZM9,10a6.11,6.11,0,0,1,4.9,2.5A6,6,0,1,0,3,9a6.06,6.06,0,0,0,1.1,3.5A6.11,6.11,0,0,1,9,10Z"/>
    </g>
    <g id="g33">
      <path id="path35" d="M9,16a7,7,0,1,1,7-7A7,7,0,0,1,9,16ZM9,3a6,6,0,1,0,6,6A6,6,0,0,0,9,3Z"/>
    </g>
  </g>
</svg>
